{
.appVersion = "1303";
DisplayStrings = (
"Tomo/space Friedrich/space Kutílek\01222./space 02./space 2018\01253/space cm\0123795/space g",
Tomo,
nnutnn
);
copyright = "Copyright 2009 Jens, created using www.fontcapture.com";
customParameters = (
{
name = vendorID;
value = JENS;
}
);
date = "2009-10-08 18:11:00 +0000";
designer = "Jens Kutilek";
disablesAutomaticAlignment = 1;
disablesNiceNames = 1;
familyName = "Jenswriter Two";
featurePrefixes = (
{
code = "languagesystem DFLT dflt; languagesystem latn MOL; languagesystem latn ROM; languagesystem latn dflt; ";
name = Languagesystems;
},
{

glyphs = (
{
glyphname = A;
lastChange = "2018-05-20 14:18:03 +0000";
layers = (
{
anchors = (
{
name = top;
position = "{343, 650}";
}
);
background = {
anchors = (
{
name = top;
position = "{343, 650}";
}
);
paths = (
{
closed = 1;
nodes = (
"186 215 OFFCURVE",
"248 417 OFFCURVE",
"361 613 CURVE",
"329 613 LINE",
"529 33 LINE",
"610 41 LINE",
"390 666 LINE",
"298 662 LINE",
"190 451 OFFCURVE",
"99 227 OFFCURVE",
"61 25 CURVE",
"134 23 LINE"
);
},
{
closed = 1;
nodes = (
"159 203 LINE",
"491 210 LINE",
"482 279 LINE",
"172 264 LINE"
);
},
{
closed = 1;
nodes = (
"-4 -9 LINE",
"244 -6 LINE",
"242 59 LINE",
"112 64 LINE",
"-6 59 LINE"
);
},
{
closed = 1;
nodes = (
"448 -13 LINE",
"699 -1 LINE",
"693 62 LINE",
"559 59 LINE",
"441 53 LINE"
);
}
);
};
layerId = "523CE715-D489-4446-A5DE-4E6CA80777EE";
paths = (
{
closed = 1;
nodes = (
"186 215 OFFCURVE",
"248 417 OFFCURVE",
"361 613 CURVE",
"329 613 LINE",
"529 33 LINE",
"610 41 LINE",
"390 666 LINE",
"298 662 LINE",
"190 451 OFFCURVE",
"99 227 OFFCURVE",
"61 25 CURVE",
"134 23 LINE"
);
},
{
closed = 1;
nodes = (
"159 203 LINE",
"491 210 LINE",
"482 279 LINE",
"172 264 LINE"
);
},
{
closed = 1;
nodes = (
"-4 -9 LINE",
"244 -6 LINE",
"242 59 LINE",
"112 64 LINE",
"-6 59 LINE"
);
},
{
closed = 1;
nodes = (
"448 -13 LINE",
"699 -1 LINE",
"693 62 LINE",
"559 59 LINE",
"441 53 LINE"
);
}
);
width = 713;
}
);
leftKerningGroup = A;
rightKerningGroup = A;
unicode = 0041;
userData = {
com.typemytype.robofont.mark = (
0.656,
1,
0.6,
1
);
};
},
{
color = 0;
glyphname = Aacute;
lastChange = "2018-05-20 14:18:03 +0000";
layers = (
{
background = {
paths = (
{
closed = 1;
nodes = (
"441 770 OFFCURVE",
"461 764 QCURVE",
"478 760 OFFCURVE",
"458 721 QCURVE",
"443 694 OFFCURVE",
"414 661 QCURVE",
"411 656 OFFCURVE",
"404 648 QCURVE",
"384 626 OFFCURVE",
"368 607 OFFCURVE",
"345 577 OFFCURVE",
"339 568 OFFCURVE",
"330 547 OFFCURVE",
"331 541 OFFCURVE",
"333 521 OFFCURVE",
"338 511 OFFCURVE",
"343 499 QCURVE",
"344 494 OFFCURVE",
"346 492 QCURVE",
"364 447 OFFCURVE",
"493 231 OFFCURVE",
"553 145 QCURVE",
"573 116 OFFCURVE",
"601 64 OFFCURVE",
"601 48 OFFCURVE",
"636 23 OFFCURVE",
"661 13 QCURVE",
"688 3 OFFCURVE",
"718 -21 OFFCURVE",
"714 -29 QCURVE",
"712 -38 OFFCURVE",
"700 -48 OFFCURVE",
"694 -48 QCURVE",
"681 -47 OFFCURVE",
"553 -36 QCURVE",
"456 -26 OFFCURVE",
"439 -18 QCURVE",
"426 -8 OFFCURVE",
"425 11 QCURVE",
"425 30 OFFCURVE",
"456 58 OFFCURVE",
"496 63 OFFCURVE",
"514 53 QCURVE",
"521 49 OFFCURVE",
"519 56 QCURVE",
"518 67 OFFCURVE",
"502 91 QCURVE",
"471 142 LINE",
"334 136 LINE",
"271 134 OFFCURVE",
"204 124 OFFCURVE",
"177 106 OFFCURVE",
"176 89 QCURVE",
"176 85 OFFCURVE",
"201 73 OFFCURVE",
"220 69 QCURVE",
"248 63 OFFCURVE",
"261 41 QCURVE",
"274 23 OFFCURVE",
"259 18 QCURVE",
"256 16 OFFCURVE",
"253 16 QCURVE",
"199 13 OFFCURVE",
"89 0 OFFCURVE",
"74 -4 QCURVE",
"64 -8 OFFCURVE",
"38 1 OFFCURVE",
"30 10 QCURVE",
"19 26 OFFCURVE",
"19 62 OFFCURVE",
"42 91 OFFCURVE",
"59 91 QCURVE",
"77 91 OFFCURVE",
"132 149 OFFCURVE",
"181 234 OFFCURVE",
"191 273 QCURVE",
"206 333 OFFCURVE",
"239 439 QCURVE",
"253 483 OFFCURVE",
"266 551 OFFCURVE",
"261 553 QCURVE",
"253 558 OFFCURVE",
"259 590 OFFCURVE",
"276 625 OFFCURVE",
"302 658 OFFCURVE",
"314 662 QCURVE",
"327 667 OFFCURVE",
"370 699 OFFCURVE",
"388 718 QCURVE"
);
},
{
closed = 1;
nodes = (
"390 270 OFFCURVE",
"347 323 OFFCURVE",
"328 342 QCURVE",
"281 386 LINE",
"264 311 LINE",
"257 280 OFFCURVE",
"251 231 OFFCURVE",
"254 228 QCURVE",
"261 221 OFFCURVE",
"345 212 QCURVE",
"429 203 LINE",
"402 250 LINE"
);
}
);
};
layerId = "523CE715-D489-4446-A5DE-4E6CA80777EE";
paths = (
{
closed = 1;
nodes = (
"441 770 OFFCURVE",
"461 764 QCURVE",
"478 760 OFFCURVE",
"458 721 QCURVE",
"443 694 OFFCURVE",
"414 661 QCURVE",
"411 656 OFFCURVE",
"404 648 QCURVE",
"384 626 OFFCURVE",
"368 607 OFFCURVE",
"345 577 OFFCURVE",
"339 568 OFFCURVE",
"330 547 OFFCURVE",
"331 541 OFFCURVE",
"333 521 OFFCURVE",
"338 511 OFFCURVE",
"343 499 QCURVE",
"344 494 OFFCURVE",
"346 492 QCURVE",
"364 447 OFFCURVE",
"493 231 OFFCURVE",
"553 145 QCURVE",
"573 116 OFFCURVE",
"601 64 OFFCURVE",
"601 48 OFFCURVE",
"636 23 OFFCURVE",
"661 13 QCURVE",
"688 3 OFFCURVE",
"718 -21 OFFCURVE",
"714 -29 QCURVE",
"712 -38 OFFCURVE",
"700 -48 OFFCURVE",
"694 -48 QCURVE",
"681 -47 OFFCURVE",
"553 -36 QCURVE",
"456 -26 OFFCURVE",
"439 -18 QCURVE",
"426 -8 OFFCURVE",
"425 11 QCURVE",
"425 30 OFFCURVE",
"456 58 OFFCURVE",
"496 63 OFFCURVE",
"514 53 QCURVE",
"521 49 OFFCURVE",
"519 56 QCURVE",
"518 67 OFFCURVE",
"502 91 QCURVE",
"471 142 LINE",
"334 136 LINE",
"271 134 OFFCURVE",
"204 124 OFFCURVE",
"177 106 OFFCURVE",
"176 89 QCURVE",
"176 85 OFFCURVE",
"201 73 OFFCURVE",
"220 69 QCURVE",
"248 63 OFFCURVE",
"261 41 QCURVE",
"274 23 OFFCURVE",
"259 18 QCURVE",
"256 16 OFFCURVE",
"253 16 QCURVE",
"199 13 OFFCURVE",
"89 0 OFFCURVE",
"74 -4 QCURVE",
"64 -8 OFFCURVE",
"38 1 OFFCURVE",
"30 10 QCURVE",
"19 26 OFFCURVE",
"19 62 OFFCURVE",
"42 91 OFFCURVE",
"59 91 QCURVE",
"77 91 OFFCURVE",
"132 149 OFFCURVE",
"181 234 OFFCURVE",
"191 273 QCURVE",
"206 333 OFFCURVE",
"239 439 QCURVE",
"253 483 OFFCURVE",
"266 551 OFFCURVE",
"261 553 QCURVE",
"253 558 OFFCURVE",
"259 590 OFFCURVE",
"276 625 OFFCURVE",
"302 658 OFFCURVE",
"314 662 QCURVE",
"327 667 OFFCURVE",
"370 699 OFFCURVE",
"388 718 QCURVE"
);
},
{
closed = 1;
nodes = (
"390 270 OFFCURVE",
"347 323 OFFCURVE",
"328 342 QCURVE",
"281 386 LINE",
"264 311 LINE",
"257 280 OFFCURVE",
"251 231 OFFCURVE",
"254 228 QCURVE",
"261 221 OFFCURVE",
"345 212 QCURVE",
"429 203 LINE",
"402 250 LINE"
);
}
);
width = 734;
}
);
unicode = 00C1;
},
{
color = 0;
glyphname = Adieresis;
lastChange = "2018-05-20 14:18:03 +0000";
layers = (
{
background = {
paths = (
{
closed = 1;
nodes = (
"369 546 OFFCURVE",
"408 578 OFFCURVE",
"418 578 QCURVE",
"444 578 OFFCURVE",
"502 468 OFFCURVE",
"540 346 QCURVE",
"574 239 OFFCURVE",
"628 119 OFFCURVE",
"683 66 OFFCURVE",
"717 66 QCURVE",
"739 65 OFFCURVE",
"741 49 QCURVE",
"743 33 OFFCURVE",
"723 21 QCURVE",
"716 18 OFFCURVE",
"709 16 QCURVE",
"676 6 OFFCURVE",
"593 6 QCURVE",
"541 6 OFFCURVE",
"503 18 OFFCURVE",
"492 38 QCURVE",
"479 62 OFFCURVE",
"504 109 OFFCURVE",
"532 109 QCURVE",
"549 109 OFFCURVE",
"551 116 QCURVE",
"551 126 OFFCURVE",
"521 184 QCURVE",
"513 202 OFFCURVE",
"500 221 OFFCURVE",
"479 236 OFFCURVE",
"461 241 OFFCURVE",
"422 238 OFFCURVE",
"382 230 OFFCURVE",
"346 221 QCURVE",
"293 209 OFFCURVE",
"253 181 OFFCURVE",
"226 137 QCURVE",
"189 76 OFFCURVE",
"189 63 QCURVE",
"189 54 OFFCURVE",
"202 51 QCURVE",
"207 49 OFFCURVE",
"219 48 QCURVE",
"232 46 OFFCURVE",
"254 28 OFFCURVE",
"256 18 QCURVE",
"258 1 OFFCURVE",
"233 -8 OFFCURVE",
"188 -8 QCURVE",
"115 -8 OFFCURVE",
"71 -17 QCURVE",
"45 -23 OFFCURVE",
"26 -14 OFFCURVE",
"21 4 QCURVE",
"13 32 OFFCURVE",
"48 83 OFFCURVE",
"71 78 QCURVE",
"81 75 OFFCURVE",
"121 105 OFFCURVE",
"140 129 QCURVE",
"197 201 OFFCURVE",
"180 209 QCURVE",
"176 211 OFFCURVE",
"164 211 OFFCURVE",
"156 229 OFFCURVE",
"156 241 QCURVE",
"156 264 OFFCURVE",
"202 297 OFFCURVE",
"223 289 QCURVE",
"230 287 OFFCURVE",
"259 337 OFFCURVE",
"288 414 OFFCURVE",
"333 500 OFFCURVE",
"351 523 QCURVE"
);
},
{
closed = 1;
nodes = (
"430 437 OFFCURVE",
"411 461 OFFCURVE",
"406 461 QCURVE",
"394 461 OFFCURVE",
"347 389 OFFCURVE",
"325 336 QCURVE",
"303 281 LINE",
"348 290 LINE",
"393 299 OFFCURVE",
"436 299 QCURVE",
"465 299 OFFCURVE",
"475 311 OFFCURVE",
"469 339 QCURVE",
"459 380 OFFCURVE",
"438 420 QCURVE"
);
},
{
closed = 1;
nodes = (
"222 649 OFFCURVE",
"274 649 OFFCURVE",
"282 631 QCURVE",
"286 618 OFFCURVE",
"268 563 OFFCURVE",
"236 519 OFFCURVE",
"224 519 QCURVE",
"199 519 OFFCURVE",
"169 561 OFFCURVE",
"176 614 OFFCURVE",
"197 631 QCURVE"
);
},
{
closed = 1;
nodes = (
"623 661 OFFCURVE",
"653 666 OFFCURVE",
"668 638 QCURVE",
"676 622 OFFCURVE",
"674 586 OFFCURVE",
"656 559 OFFCURVE",
"630 539 OFFCURVE",
"600 539 OFFCURVE",
"586 549 QCURVE",
"572 561 OFFCURVE",
"566 579 OFFCURVE",
"578 603 OFFCURVE",
"596 628 QCURVE"
);
}
);
};
layerId = "523CE715-D489-4446-A5DE-4E6CA80777EE";
paths = (
{
closed = 1;
nodes = (
"369 546 OFFCURVE",
"408 578 OFFCURVE",
"418 578 QCURVE",
"444 578 OFFCURVE",
"502 468 OFFCURVE",
"540 346 QCURVE",
"574 239 OFFCURVE",
"628 119 OFFCURVE",
"683 66 OFFCURVE",
"717 66 QCURVE",
"739 65 OFFCURVE",
"741 49 QCURVE",
"743 33 OFFCURVE",
"723 21 QCURVE",
"716 18 OFFCURVE",
"709 16 QCURVE",
"676 6 OFFCURVE",
"593 6 QCURVE",
"541 6 OFFCURVE",
"503 18 OFFCURVE",
"492 38 QCURVE",
"479 62 OFFCURVE",
"504 109 OFFCURVE",
"532 109 QCURVE",
"549 109 OFFCURVE",
"551 116 QCURVE",
"551 126 OFFCURVE",
"521 184 QCURVE",
"513 202 OFFCURVE",
"500 221 OFFCURVE",
"479 236 OFFCURVE",
"461 241 OFFCURVE",
"422 238 OFFCURVE",
"382 230 OFFCURVE",
"346 221 QCURVE",
"293 209 OFFCURVE",
"253 181 OFFCURVE",
"226 137 QCURVE",
"189 76 OFFCURVE",
"189 63 QCURVE",
"189 54 OFFCURVE",
"202 51 QCURVE",
"207 49 OFFCURVE",
"219 48 QCURVE",
"232 46 OFFCURVE",
"254 28 OFFCURVE",
"256 18 QCURVE",
"258 1 OFFCURVE",
"233 -8 OFFCURVE",
"188 -8 QCURVE",
"115 -8 OFFCURVE",
"71 -17 QCURVE",
"45 -23 OFFCURVE",
"26 -14 OFFCURVE",
"21 4 QCURVE",
"13 32 OFFCURVE",
"48 83 OFFCURVE",
"71 78 QCURVE",
"81 75 OFFCURVE",
"121 105 OFFCURVE",
"140 129 QCURVE",
"197 201 OFFCURVE",
"180 209 QCURVE",
"176 211 OFFCURVE",
"164 211 OFFCURVE",
"156 229 OFFCURVE",
"156 241 QCURVE",
"156 264 OFFCURVE",
"202 297 OFFCURVE",
"223 289 QCURVE",
"230 287 OFFCURVE",
"259 337 OFFCURVE",
"288 414 OFFCURVE",
"333 500 OFFCURVE",
"351 523 QCURVE"
);
},
{
closed = 1;
nodes = (
"430 437 OFFCURVE",
"411 461 OFFCURVE",
"406 461 QCURVE",
"394 461 OFFCURVE",
"347 389 OFFCURVE",
"325 336 QCURVE",
"303 281 LINE",
"348 290 LINE",
"393 299 OFFCURVE",
"436 299 QCURVE",
"465 299 OFFCURVE",
"475 311 OFFCURVE",
"469 339 QCURVE",
"459 380 OFFCURVE",
"438 420 QCURVE"
);
},
{
closed = 1;
nodes = (
"222 649 OFFCURVE",
"274 649 OFFCURVE",
"282 631 QCURVE",
"286 618 OFFCURVE",
"268 563 OFFCURVE",
"236 519 OFFCURVE",
"224 519 QCURVE",
"199 519 OFFCURVE",
"169 561 OFFCURVE",
"176 614 OFFCURVE",
"197 631 QCURVE"
);
},
{
closed = 1;
nodes = (
"623 661 OFFCURVE",
"653 666 OFFCURVE",
"668 638 QCURVE",
"676 622 OFFCURVE",
"674 586 OFFCURVE",
"656 559 OFFCURVE",
"630 539 OFFCURVE",
"600 539 OFFCURVE",
"586 549 QCURVE",
"572 561 OFFCURVE",
"566 579 OFFCURVE",
"578 603 OFFCURVE",
"596 628 QCURVE"
);
}
);
width = 760;
}
);
unicode = 00C4;
},
{
color = 0;
glyphname = Aring;
lastChange = "2018-05-20 14:18:03 +0000";
layers = (
{
background = {
paths = (
{
closed = 1;
nodes = (
"297 704 OFFCURVE",
"389 683 OFFCURVE",
"408 656 QCURVE",
"428 624 OFFCURVE",
"425 522 QCURVE",
"423 461 OFFCURVE",
"435 389 OFFCURVE",
"456 343 QCURVE",
"470 311 OFFCURVE",
"502 266 OFFCURVE",
"511 266 QCURVE",
"531 266 OFFCURVE",
"529 226 QCURVE",
"528 188 OFFCURVE",
"570 73 OFFCURVE",
"589 61 QCURVE",
"635 34 OFFCURVE",
"508 -4 QCURVE",
"444 -23 OFFCURVE",
"385 -17 OFFCURVE",
"385 7 QCURVE",
"386 34 OFFCURVE",
"421 66 OFFCURVE",
"449 66 QCURVE",
"483 66 OFFCURVE",
"489 104 OFFCURVE",
"463 152 QCURVE",
"456 166 OFFCURVE",
"447 179 OFFCURVE",
"436 190 OFFCURVE",
"418 191 OFFCURVE",
"399 189 OFFCURVE",
"379 186 QCURVE",
"319 177 OFFCURVE",
"258 169 QCURVE",
"224 164 OFFCURVE",
"190 146 OFFCURVE",
"181 126 QCURVE",
"176 115 OFFCURVE",
"172 106 OFFCURVE",
"168 93 OFFCURVE",
"167 89 OFFCURVE",
"170 81 OFFCURVE",
"173 79 OFFCURVE",
"184 74 OFFCURVE",
"192 73 OFFCURVE",
"201 70 QCURVE",
"217 66 OFFCURVE",
"236 50 OFFCURVE",
"234 44 QCURVE",
"231 34 OFFCURVE",
"138 0 OFFCURVE",
"40 -23 OFFCURVE",
"31 -18 QCURVE",
"13 -6 OFFCURVE",
"30 50 OFFCURVE",
"61 76 QCURVE",
"81 93 OFFCURVE",
"148 203 OFFCURVE",
"184 281 QCURVE",
"263 449 LINE",
"234 506 LINE",
"221 530 OFFCURVE",
"213 548 OFFCURVE",
"212 575 OFFCURVE",
"220 593 OFFCURVE",
"232 615 QCURVE",
"260 668 OFFCURVE",
"278 685 QCURVE"
);
},
{
closed = 1;
nodes = (
"356 613 OFFCURVE",
"335 619 OFFCURVE",
"314 596 QCURVE",
"302 582 OFFCURVE",
"294 557 OFFCURVE",
"307 544 OFFCURVE",
"321 547 QCURVE",
"333 549 OFFCURVE",
"351 571 OFFCURVE",
"353 584 QCURVE"
);
},
{
closed = 1;
nodes = (
"344 414 OFFCURVE",
"336 423 QCURVE",
"333 424 OFFCURVE",
"319 408 OFFCURVE",
"299 375 OFFCURVE",
"289 354 QCURVE",
"273 323 OFFCURVE",
"257 271 OFFCURVE",
"268 261 OFFCURVE",
"314 259 OFFCURVE",
"343 262 QCURVE",
"411 269 LINE",
"377 342 LINE"
);
}
);
};
layerId = "523CE715-D489-4446-A5DE-4E6CA80777EE";
paths = (
{
closed = 1;
nodes = (
"297 704 OFFCURVE",
"389 683 OFFCURVE",
"408 656 QCURVE",
"428 624 OFFCURVE",
"425 522 QCURVE",
"423 461 OFFCURVE",
"435 389 OFFCURVE",
"456 343 QCURVE",
"470 311 OFFCURVE",
"502 266 OFFCURVE",
"511 266 QCURVE",
"531 266 OFFCURVE",
"529 226 QCURVE",
"528 188 OFFCURVE",
"570 73 OFFCURVE",
"589 61 QCURVE",
"635 34 OFFCURVE",
"508 -4 QCURVE",
"444 -23 OFFCURVE",
"385 -17 OFFCURVE",
"385 7 QCURVE",
"386 34 OFFCURVE",
"421 66 OFFCURVE",
"449 66 QCURVE",
"483 66 OFFCURVE",
"489 104 OFFCURVE",
"463 152 QCURVE",
"456 166 OFFCURVE",
"447 179 OFFCURVE",
"436 190 OFFCURVE",
"418 191 OFFCURVE",
"399 189 OFFCURVE",
"379 186 QCURVE",
"319 177 OFFCURVE",
"258 169 QCURVE",
"224 164 OFFCURVE",
"190 146 OFFCURVE",
"181 126 QCURVE",
"176 115 OFFCURVE",
"172 106 OFFCURVE",
"168 93 OFFCURVE",
"167 89 OFFCURVE",
"170 81 OFFCURVE",
"173 79 OFFCURVE",
"184 74 OFFCURVE",
"192 73 OFFCURVE",
"201 70 QCURVE",
"217 66 OFFCURVE",
"236 50 OFFCURVE",
"234 44 QCURVE",
"231 34 OFFCURVE",
"138 0 OFFCURVE",
"40 -23 OFFCURVE",
"31 -18 QCURVE",
"13 -6 OFFCURVE",
"30 50 OFFCURVE",
"61 76 QCURVE",
"81 93 OFFCURVE",
"148 203 OFFCURVE",
"184 281 QCURVE",
"263 449 LINE",
"234 506 LINE",
"221 530 OFFCURVE",
"213 548 OFFCURVE",
"212 575 OFFCURVE",
"220 593 OFFCURVE",
"232 615 QCURVE",
"260 668 OFFCURVE",
"278 685 QCURVE"
);
},
{
closed = 1;
nodes = (
"356 613 OFFCURVE",
"335 619 OFFCURVE",
"314 596 QCURVE",
"302 582 OFFCURVE",
"294 557 OFFCURVE",
"307 544 OFFCURVE",
"321 547 QCURVE",
"333 549 OFFCURVE",
"351 571 OFFCURVE",
"353 584 QCURVE"
);
},
{
closed = 1;
nodes = (
"344 414 OFFCURVE",
"336 423 QCURVE",
"333 424 OFFCURVE",
"319 408 OFFCURVE",
"299 375 OFFCURVE",
"289 354 QCURVE",
"273 323 OFFCURVE",
"257 271 OFFCURVE",
"268 261 OFFCURVE",
"314 259 OFFCURVE",
"343 262 QCURVE",
"411 269 LINE",
"377 342 LINE"
);
}
);
width = 620;
}
);
unicode = 00C5;
},
{
color = 0;
glyphname = AE;
lastChange = "2018-05-20 14:18:03 +0000";
layers = (
{
background = {
paths = (
{
closed = 1;
nodes = (
"306 531 OFFCURVE",
"345 537 OFFCURVE",
"403 531 QCURVE",
"494 523 OFFCURVE",
"634 494 OFFCURVE",
"677 494 QCURVE",
"714 494 OFFCURVE",
"739 441 OFFCURVE",
"733 378 QCURVE",
"729 345 OFFCURVE",
"711 319 OFFCURVE",
"687 339 OFFCURVE",
"677 370 QCURVE",
"670 389 OFFCURVE",
"656 412 OFFCURVE",
"632 429 OFFCURVE",
"596 433 OFFCURVE",
"540 436 OFFCURVE",
"501 433 QCURVE",
"406 429 LINE",
"406 378 LINE",
"406 363 OFFCURVE",
"406 349 OFFCURVE",
"412 334 OFFCURVE",
"417 329 OFFCURVE",
"436 323 OFFCURVE",
"453 320 OFFCURVE",
"472 318 QCURVE",
"510 313 OFFCURVE",
"551 321 OFFCURVE",
"570 338 QCURVE",
"583 349 OFFCURVE",
"612 359 OFFCURVE",
"618 356 QCURVE",
"628 350 OFFCURVE",
"635 268 OFFCURVE",
"629 186 OFFCURVE",
"620 181 QCURVE",
"615 178 OFFCURVE",
"589 196 OFFCURVE",
"575 211 QCURVE",
"558 231 OFFCURVE",
"528 244 OFFCURVE",
"511 239 QCURVE",
"479 231 OFFCURVE",
"446 231 QCURVE",
"424 231 OFFCURVE",
"413 209 OFFCURVE",
"413 165 QCURVE",
"413 99 LINE",
"489 99 LINE",
"564 99 OFFCURVE",
"583 124 QCURVE",
"597 144 OFFCURVE",
"646 134 OFFCURVE",
"656 109 QCURVE",
"661 97 OFFCURVE",
"644 34 OFFCURVE",
"615 -18 OFFCURVE",
"605 -18 QCURVE",
"599 -18 OFFCURVE",
"589 -4 OFFCURVE",
"589 6 QCURVE",
"589 14 OFFCURVE",
"583 23 OFFCURVE",
"561 26 OFFCURVE",
"528 25 OFFCURVE",
"497 23 QCURVE",
"458 20 OFFCURVE",
"386 4 OFFCURVE",
"373 -5 QCURVE",
"351 -18 OFFCURVE",
"332 -18 OFFCURVE",
"318 -3 QCURVE",
"302 13 OFFCURVE",
"304 43 OFFCURVE",
"325 89 QCURVE",
"340 123 OFFCURVE",
"351 197 OFFCURVE",
"338 246 OFFCURVE",
"323 246 QCURVE",
"294 246 OFFCURVE",
"220 186 OFFCURVE",
"209 154 QCURVE",
"198 122 OFFCURVE",
"203 98 OFFCURVE",
"226 81 QCURVE",
"235 74 OFFCURVE",
"249 61 OFFCURVE",
"254 53 OFFCURVE",
"252 51 QCURVE",
"237 39 OFFCURVE",
"56 -1 OFFCURVE",
"41 5 QCURVE",
"21 13 OFFCURVE",
"18 65 OFFCURVE",
"37 81 QCURVE",
"44 88 OFFCURVE",
"76 99 OFFCURVE",
"91 101 QCURVE",
"108 104 OFFCURVE",
"133 133 OFFCURVE",
"168 209 OFFCURVE",
"203 297 QCURVE",
"279 487 OFFCURVE",
"296 514 QCURVE"
);
},
{
closed = 1;
nodes = (
"326 373 OFFCURVE",
"316 377 OFFCURVE",
"299 359 QCURVE",
"281 342 OFFCURVE",
"284 319 OFFCURVE",
"303 319 QCURVE",
"313 319 OFFCURVE",
"326 336 OFFCURVE",
"326 348 QCURVE"
);
}
);
};
layerId = "523CE715-D489-4446-A5DE-4E6CA80777EE";
paths = (
{
closed = 1;
nodes = (
"306 531 OFFCURVE",
"345 537 OFFCURVE",
"403 531 QCURVE",
"494 523 OFFCURVE",
"634 494 OFFCURVE",
"677 494 QCURVE",
"714 494 OFFCURVE",
"739 441 OFFCURVE",
"733 378 QCURVE",
"729 345 OFFCURVE",
"711 319 OFFCURVE",
"687 339 OFFCURVE",
"677 370 QCURVE",
"670 389 OFFCURVE",
"656 412 OFFCURVE",
"632 429 OFFCURVE",
"596 433 OFFCURVE",
"540 436 OFFCURVE",
"501 433 QCURVE",
"406 429 LINE",
"406 378 LINE",
"406 363 OFFCURVE",
"406 349 OFFCURVE",
"412 334 OFFCURVE",
"417 329 OFFCURVE",
"436 323 OFFCURVE",
"453 320 OFFCURVE",
"472 318 QCURVE",
"510 313 OFFCURVE",
"551 321 OFFCURVE",
"570 338 QCURVE",
"583 349 OFFCURVE",
"612 359 OFFCURVE",
"618 356 QCURVE",
"628 350 OFFCURVE",
"635 268 OFFCURVE",
"629 186 OFFCURVE",
"620 181 QCURVE",
"615 178 OFFCURVE",
"589 196 OFFCURVE",
"575 211 QCURVE",
"558 231 OFFCURVE",
"528 244 OFFCURVE",
"511 239 QCURVE",
"479 231 OFFCURVE",
"446 231 QCURVE",
"424 231 OFFCURVE",
"413 209 OFFCURVE",
"413 165 QCURVE",
"413 99 LINE",
"489 99 LINE",
"564 99 OFFCURVE",
"583 124 QCURVE",
"597 144 OFFCURVE",
"646 134 OFFCURVE",
"656 109 QCURVE",
"661 97 OFFCURVE",
"644 34 OFFCURVE",
"615 -18 OFFCURVE",
"605 -18 QCURVE",
"599 -18 OFFCURVE",
"589 -4 OFFCURVE",
"589 6 QCURVE",
"589 14 OFFCURVE",
"583 23 OFFCURVE",
"561 26 OFFCURVE",
"528 25 OFFCURVE",
"497 23 QCURVE",
"458 20 OFFCURVE",
"386 4 OFFCURVE",
"373 -5 QCURVE",
"351 -18 OFFCURVE",
"332 -18 OFFCURVE",
"318 -3 QCURVE",
"302 13 OFFCURVE",
"304 43 OFFCURVE",
"325 89 QCURVE",
"340 123 OFFCURVE",
"351 197 OFFCURVE",
"338 246 OFFCURVE",
"323 246 QCURVE",
"294 246 OFFCURVE",
"220 186 OFFCURVE",
"209 154 QCURVE",
"198 122 OFFCURVE",
"203 98 OFFCURVE",
"226 81 QCURVE",
"235 74 OFFCURVE",
"249 61 OFFCURVE",
"254 53 OFFCURVE",
"252 51 QCURVE",
"237 39 OFFCURVE",
"56 -1 OFFCURVE",
"41 5 QCURVE",
"21 13 OFFCURVE",
"18 65 OFFCURVE",
"37 81 QCURVE",
"44 88 OFFCURVE",
"76 99 OFFCURVE",
"91 101 QCURVE",
"108 104 OFFCURVE",
"133 133 OFFCURVE",
"168 209 OFFCURVE",
"203 297 QCURVE",
"279 487 OFFCURVE",
"296 514 QCURVE"
);
},
{
closed = 1;
nodes = (
"326 373 OFFCURVE",
"316 377 OFFCURVE",
"299 359 QCURVE",
"281 342 OFFCURVE",
"284 319 OFFCURVE",
"303 319 QCURVE",
"313 319 OFFCURVE",
"326 336 OFFCURVE",
"326 348 QCURVE"
);
}
);
width = 754;
}
);
unicode = 00C6;
},
{
color = 0;
glyphname = B;
lastChange = "2018-05-20 14:18:03 +0000";
layers = (
{
background = {
paths = (
{
closed = 1;
nodes = (
"173 558 OFFCURVE",
"192 558 QCURVE",
"216 558 OFFCURVE",
"302 505 OFFCURVE",
"325 475 QCURVE",
"354 439 OFFCURVE",
"356 381 OFFCURVE",
"330 342 QCURVE",
"315 320 OFFCURVE",
"313 301 OFFCURVE",
"323 298 QCURVE",
"355 287 OFFCURVE",
"430 207 OFFCURVE",
"437 176 QCURVE",
"449 118 OFFCURVE",
"361 8 OFFCURVE",
"283 -14 QCURVE",
"253 -23 OFFCURVE",
"164 -9 OFFCURVE",
"79 19 OFFCURVE",
"19 61 OFFCURVE",
"19 78 QCURVE",
"19 84 OFFCURVE",
"43 86 OFFCURVE",
"59 83 QCURVE",
"99 74 LINE",
"99 225 LINE",
"98 414 OFFCURVE",
"92 438 QCURVE",
"88 453 OFFCURVE",
"77 445 QCURVE",
"74 444 OFFCURVE",
"71 441 QCURVE",
"63 434 OFFCURVE",
"41 428 OFFCURVE",
"35 432 QCURVE",
"-3 455 OFFCURVE",
"44 491 QCURVE",
"64 506 OFFCURVE",
"96 521 QCURVE"
);
},
{
closed = 1;
nodes = (
"236 476 OFFCURVE",
"173 498 OFFCURVE",
"154 486 QCURVE",
"143 479 OFFCURVE",
"139 443 OFFCURVE",
"146 402 QCURVE",
"149 381 OFFCURVE",
"153 363 OFFCURVE",
"161 343 OFFCURVE",
"166 337 OFFCURVE",
"181 331 OFFCURVE",
"194 330 OFFCURVE",
"208 330 QCURVE",
"238 330 OFFCURVE",
"268 347 OFFCURVE",
"282 371 QCURVE",
"298 399 OFFCURVE",
"294 421 OFFCURVE",
"268 446 QCURVE"
);
},
{
closed = 1;
nodes = (
"276 246 OFFCURVE",
"168 251 OFFCURVE",
"158 235 QCURVE",
"147 218 OFFCURVE",
"158 64 OFFCURVE",
"171 56 QCURVE",
"192 42 OFFCURVE",
"298 50 OFFCURVE",
"323 68 QCURVE",
"377 105 OFFCURVE",
"370 197 OFFCURVE",
"312 227 QCURVE"
);
}
);
};
layerId = "523CE715-D489-4446-A5DE-4E6CA80777EE";
paths = (
{
closed = 1;
nodes = (
"173 558 OFFCURVE",
"192 558 QCURVE",
"216 558 OFFCURVE",
"302 505 OFFCURVE",
"325 475 QCURVE",
"354 439 OFFCURVE",
"356 381 OFFCURVE",
"330 342 QCURVE",
"315 320 OFFCURVE",
"313 301 OFFCURVE",
"323 298 QCURVE",
"355 287 OFFCURVE",
"430 207 OFFCURVE",
"437 176 QCURVE",
"449 118 OFFCURVE",
"361 8 OFFCURVE",
"283 -14 QCURVE",
"253 -23 OFFCURVE",
"164 -9 OFFCURVE",
"79 19 OFFCURVE",
"19 61 OFFCURVE",
"19 78 QCURVE",
"19 84 OFFCURVE",
"43 86 OFFCURVE",
"59 83 QCURVE",
"99 74 LINE",
"99 225 LINE",
"98 414 OFFCURVE",
"92 438 QCURVE",
"88 453 OFFCURVE",
"77 445 QCURVE",
"74 444 OFFCURVE",
"71 441 QCURVE",
"63 434 OFFCURVE",
"41 428 OFFCURVE",
"35 432 QCURVE",
"-3 455 OFFCURVE",
"44 491 QCURVE",
"64 506 OFFCURVE",
"96 521 QCURVE"
);
},
{
closed = 1;
nodes = (
"236 476 OFFCURVE",
"173 498 OFFCURVE",
"154 486 QCURVE",
"143 479 OFFCURVE",
"139 443 OFFCURVE",
"146 402 QCURVE",
"149 381 OFFCURVE",
"153 363 OFFCURVE",
"161 343 OFFCURVE",
"166 337 OFFCURVE",
"181 331 OFFCURVE",
"194 330 OFFCURVE",
"208 330 QCURVE",
"238 330 OFFCURVE",
"268 347 OFFCURVE",
"282 371 QCURVE",
"298 399 OFFCURVE",
"294 421 OFFCURVE",
"268 446 QCURVE"
);
},
{
closed = 1;
nodes = (
"276 246 OFFCURVE",
"168 251 OFFCURVE",
"158 235 QCURVE",
"147 218 OFFCURVE",
"158 64 OFFCURVE",
"171 56 QCURVE",
"192 42 OFFCURVE",
"298 50 OFFCURVE",
"323 68 QCURVE",
"377 105 OFFCURVE",
"370 197 OFFCURVE",
"312 227 QCURVE"
);
}
);
width = 458;
}
);
unicode = 0042;
},
{
color = 0;
glyphname = C;
lastChange = "2018-05-20 14:18:03 +0000";
layers = (
{
background = {
paths = (
{
closed = 1;
nodes = (
"358 530 OFFCURVE",
"374 525 QCURVE",
"386 521 OFFCURVE",
"399 509 QCURVE",
"415 493 OFFCURVE",
"418 360 OFFCURVE",
"404 337 QCURVE",
"389 313 OFFCURVE",
"373 329 QCURVE",
"358 346 OFFCURVE",
"358 387 QCURVE",
"358 401 OFFCURVE",
"358 415 OFFCURVE",
"353 429 OFFCURVE",
"348 434 OFFCURVE",
"332 438 OFFCURVE",
"316 438 OFFCURVE",
"299 438 QCURVE",
"237 438 OFFCURVE",
"133 381 OFFCURVE",
"108 333 QCURVE",
"82 281 OFFCURVE",
"82 199 OFFCURVE",
"109 147 QCURVE",
"134 99 OFFCURVE",
"244 43 OFFCURVE",
"316 43 QCURVE",
"352 43 OFFCURVE",
"396 63 OFFCURVE",
"427 94 QCURVE",
"474 141 OFFCURVE",
"483 143 QCURVE",
"488 143 OFFCURVE",
"489 136 QCURVE",
"490 131 OFFCURVE",
"490 114 QCURVE",
"490 93 OFFCURVE",
"441 31 OFFCURVE",
"374 -16 OFFCURVE",
"349 -17 QCURVE",
"231 -22 OFFCURVE",
"96 40 OFFCURVE",
"58 118 QCURVE",
"18 194 OFFCURVE",
"19 295 OFFCURVE",
"59 359 QCURVE",
"99 424 OFFCURVE",
"199 484 OFFCURVE",
"278 493 QCURVE",
"311 496 OFFCURVE",
"358 509 OFFCURVE",
"358 514 QCURVE"
);
}
);
};
layerId = "523CE715-D489-4446-A5DE-4E6CA80777EE";
paths = (
{
closed = 1;
nodes = (
"358 530 OFFCURVE",
"374 525 QCURVE",
"386 521 OFFCURVE",
"399 509 QCURVE",
"415 493 OFFCURVE",
"418 360 OFFCURVE",
"404 337 QCURVE",
"389 313 OFFCURVE",
"373 329 QCURVE",
"358 346 OFFCURVE",
"358 387 QCURVE",
"358 401 OFFCURVE",
"358 415 OFFCURVE",
"353 429 OFFCURVE",
"348 434 OFFCURVE",
"332 438 OFFCURVE",
"316 438 OFFCURVE",
"299 438 QCURVE",
"237 438 OFFCURVE",
"133 381 OFFCURVE",
"108 333 QCURVE",
"82 281 OFFCURVE",
"82 199 OFFCURVE",
"109 147 QCURVE",
"134 99 OFFCURVE",
"244 43 OFFCURVE",
"316 43 QCURVE",
"352 43 OFFCURVE",
"396 63 OFFCURVE",
"427 94 QCURVE",
"474 141 OFFCURVE",
"483 143 QCURVE",
"488 143 OFFCURVE",
"489 136 QCURVE",
"490 131 OFFCURVE",
"490 114 QCURVE",
"490 93 OFFCURVE",
"441 31 OFFCURVE",
"374 -16 OFFCURVE",
"349 -17 QCURVE",
"231 -22 OFFCURVE",
"96 40 OFFCURVE",
"58 118 QCURVE",
"18 194 OFFCURVE",
"19 295 OFFCURVE",
"59 359 QCURVE",
"99 424 OFFCURVE",
"199 484 OFFCURVE",
"278 493 QCURVE",
"311 496 OFFCURVE",
"358 509 OFFCURVE",
"358 514 QCURVE"
);
}
);
width = 509;
}
);
unicode = 0043;
},
{
color = 0;
glyphname = D;
lastChange = "2018-05-20 14:18:03 +0000";
layers = (
{
background = {
paths = (
{
closed = 1;
nodes = (
"176 464 OFFCURVE",
"326 452 OFFCURVE",
"405 411 QCURVE",
"490 368 OFFCURVE",
"556 282 OFFCURVE",
"531 177 OFFCURVE",
"471 104 QCURVE",
"416 37 OFFCURVE",
"279 -27 OFFCURVE",
"213 -16 QCURVE",
"182 -11 OFFCURVE",
"106 35 OFFCURVE",
"53 91 OFFCURVE",
"53 110 QCURVE",
"53 136 OFFCURVE",
"61 136 QCURVE",
"72 136 OFFCURVE",
"114 101 QCURVE",
"134 84 OFFCURVE",
"161 66 OFFCURVE",
"181 61 OFFCURVE",
"191 70 OFFCURVE",
"196 98 OFFCURVE",
"195 138 OFFCURVE",
"192 170 QCURVE",
"181 277 OFFCURVE",
"168 332 QCURVE",
"153 387 LINE",
"97 358 LINE",
"63 341 OFFCURVE",
"34 337 OFFCURVE",
"24 349 QCURVE",
"10 366 OFFCURVE",
"55 412 OFFCURVE",
"111 436 QCURVE"
);
},
{
closed = 1;
nodes = (
"289 390 OFFCURVE",
"265 396 OFFCURVE",
"243 401 OFFCURVE",
"231 401 OFFCURVE",
"220 398 OFFCURVE",
"216 391 OFFCURVE",
"215 379 OFFCURVE",
"218 365 OFFCURVE",
"219 354 QCURVE",
"229 306 OFFCURVE",
"238 178 QCURVE",
"242 106 OFFCURVE",
"254 50 OFFCURVE",
"266 50 QCURVE",
"297 50 OFFCURVE",
"373 90 OFFCURVE",
"434 149 OFFCURVE",
"477 220 OFFCURVE",
"477 249 QCURVE",
"477 276 OFFCURVE",
"454 309 OFFCURVE",
"421 332 QCURVE",
"398 347 OFFCURVE",
"330 379 OFFCURVE",
"307 385 QCURVE"
);
}
);
};
layerId = "523CE715-D489-4446-A5DE-4E6CA80777EE";
paths = (
{
closed = 1;
nodes = (
"176 464 OFFCURVE",
"326 452 OFFCURVE",
"405 411 QCURVE",
"490 368 OFFCURVE",
"556 282 OFFCURVE",
"531 177 OFFCURVE",
"471 104 QCURVE",
"416 37 OFFCURVE",
"279 -27 OFFCURVE",
"213 -16 QCURVE",
"182 -11 OFFCURVE",
"106 35 OFFCURVE",
"53 91 OFFCURVE",
"53 110 QCURVE",
"53 136 OFFCURVE",
"61 136 QCURVE",
"72 136 OFFCURVE",
"114 101 QCURVE",
"134 84 OFFCURVE",
"161 66 OFFCURVE",
"181 61 OFFCURVE",
"191 70 OFFCURVE",
"196 98 OFFCURVE",
"195 138 OFFCURVE",
"192 170 QCURVE",
"181 277 OFFCURVE",
"168 332 QCURVE",
"153 387 LINE",
"97 358 LINE",
"63 341 OFFCURVE",
"34 337 OFFCURVE",
"24 349 QCURVE",
"10 366 OFFCURVE",
"55 412 OFFCURVE",
"111 436 QCURVE"
);
},
{
closed = 1;
nodes = (
"289 390 OFFCURVE",
"265 396 OFFCURVE",
"243 401 OFFCURVE",
"231 401 OFFCURVE",
"220 398 OFFCURVE",
"216 391 OFFCURVE",
"215 379 OFFCURVE",
"218 365 OFFCURVE",
"219 354 QCURVE",
"229 306 OFFCURVE",
"238 178 QCURVE",
"242 106 OFFCURVE",
"254 50 OFFCURVE",
"266 50 QCURVE",
"297 50 OFFCURVE",
"373 90 OFFCURVE",
"434 149 OFFCURVE",
"477 220 OFFCURVE",
"477 249 QCURVE",
"477 276 OFFCURVE",
"454 309 OFFCURVE",
"421 332 QCURVE",
"398 347 OFFCURVE",
"330 379 OFFCURVE",
"307 385 QCURVE"
);
}
);
width = 566;
}
);
unicode = 0044;
},
{
color = 0;
glyphname = E;
lastChange = "2018-05-20 14:18:03 +0000";
layers = (
{
background = {
paths = (
{
closed = 1;
nodes = (
"128 547 OFFCURVE",
"328 554 OFFCURVE",
"500 544 OFFCURVE",
"501 534 QCURVE",
"504 510 OFFCURVE",
"495 351 OFFCURVE",
"489 332 QCURVE",
"486 321 OFFCURVE",
"468 308 OFFCURVE",
"458 310 QCURVE",
"444 313 OFFCURVE",
"436 346 OFFCURVE",
"439 394 QCURVE",
"444 473 OFFCURVE",
"424 485 QCURVE",
"416 490 OFFCURVE",
"342 498 OFFCURVE",
"298 498 QCURVE",
"191 498 LINE",
"191 395 LINE",
"191 293 LINE",
"242 293 LINE",
"278 293 OFFCURVE",
"294 307 OFFCURVE",
"297 340 QCURVE",
"301 388 OFFCURVE",
"328 393 QCURVE",
"343 396 OFFCURVE",
"348 384 QCURVE",
"353 368 OFFCURVE",
"350 271 QCURVE",
"346 147 OFFCURVE",
"326 133 QCURVE",
"316 127 OFFCURVE",
"306 153 QCURVE",
"302 163 OFFCURVE",
"298 178 QCURVE",
"289 210 OFFCURVE",
"271 225 OFFCURVE",
"243 221 QCURVE",
"227 219 OFFCURVE",
"214 218 OFFCURVE",
"198 211 OFFCURVE",
"194 207 OFFCURVE",
"188 189 OFFCURVE",
"188 175 OFFCURVE",
"186 158 QCURVE",
"185 141 OFFCURVE",
"185 118 OFFCURVE",
"188 98 OFFCURVE",
"194 86 OFFCURVE",
"206 76 OFFCURVE",
"221 72 OFFCURVE",
"247 70 OFFCURVE",
"274 71 OFFCURVE",
"296 73 QCURVE",
"340 76 OFFCURVE",
"376 84 OFFCURVE",
"393 99 OFFCURVE",
"396 117 QCURVE",
"406 156 OFFCURVE",
"423 155 QCURVE",
"439 154 OFFCURVE",
"448 119 QCURVE",
"451 106 OFFCURVE",
"452 90 QCURVE",
"456 36 OFFCURVE",
"426 -17 OFFCURVE",
"398 -2 QCURVE",
"379 8 OFFCURVE",
"195 -6 OFFCURVE",
"183 -18 QCURVE",
"179 -23 OFFCURVE",
"158 -21 OFFCURVE",
"148 -16 QCURVE",
"133 -8 OFFCURVE",
"126 51 OFFCURVE",
"129 148 QCURVE",
"133 300 OFFCURVE",
"124 391 QCURVE",
"116 483 LINE",
"64 483 LINE",
"18 483 OFFCURVE",
"19 498 QCURVE",
"21 514 OFFCURVE",
"73 532 QCURVE",
"81 534 OFFCURVE",
"91 537 QCURVE"
);
}
);
};
layerId = "523CE715-D489-4446-A5DE-4E6CA80777EE";
paths = (
{
closed = 1;
nodes = (
"128 547 OFFCURVE",
"328 554 OFFCURVE",
"500 544 OFFCURVE",
"501 534 QCURVE",
"504 510 OFFCURVE",
"495 351 OFFCURVE",
"489 332 QCURVE",
"486 321 OFFCURVE",
"468 308 OFFCURVE",
"458 310 QCURVE",
"444 313 OFFCURVE",
"436 346 OFFCURVE",
"439 394 QCURVE",
"444 473 OFFCURVE",
"424 485 QCURVE",
"416 490 OFFCURVE",
"342 498 OFFCURVE",
"298 498 QCURVE",
"191 498 LINE",
"191 395 LINE",
"191 293 LINE",
"242 293 LINE",
"278 293 OFFCURVE",
"294 307 OFFCURVE",
"297 340 QCURVE",
"301 388 OFFCURVE",
"328 393 QCURVE",
"343 396 OFFCURVE",
"348 384 QCURVE",
"353 368 OFFCURVE",
"350 271 QCURVE",
"346 147 OFFCURVE",
"326 133 QCURVE",
"316 127 OFFCURVE",
"306 153 QCURVE",
"302 163 OFFCURVE",
"298 178 QCURVE",
"289 210 OFFCURVE",
"271 225 OFFCURVE",
"243 221 QCURVE",
"227 219 OFFCURVE",
"214 218 OFFCURVE",
"198 211 OFFCURVE",
"194 207 OFFCURVE",
"188 189 OFFCURVE",
"188 175 OFFCURVE",
"186 158 QCURVE",
"185 141 OFFCURVE",
"185 118 OFFCURVE",
"188 98 OFFCURVE",
"194 86 OFFCURVE",
"206 76 OFFCURVE",
"221 72 OFFCURVE",
"247 70 OFFCURVE",
"274 71 OFFCURVE",
"296 73 QCURVE",
"340 76 OFFCURVE",
"376 84 OFFCURVE",
"393 99 OFFCURVE",
"396 117 QCURVE",
"406 156 OFFCURVE",
"423 155 QCURVE",
"439 154 OFFCURVE",
"448 119 QCURVE",
"451 106 OFFCURVE",
"452 90 QCURVE",
"456 36 OFFCURVE",
"426 -17 OFFCURVE",
"398 -2 QCURVE",
"379 8 OFFCURVE",
"195 -6 OFFCURVE",
"183 -18 QCURVE",
"179 -23 OFFCURVE",
"158 -21 OFFCURVE",
"148 -16 QCURVE",
"133 -8 OFFCURVE",
"126 51 OFFCURVE",
"129 148 QCURVE",
"133 300 OFFCURVE",
"124 391 QCURVE",
"116 483 LINE",
"64 483 LINE",
"18 483 OFFCURVE",
"19 498 QCURVE",
"21 514 OFFCURVE",
"73 532 QCURVE",
"81 534 OFFCURVE",
"91 537 QCURVE"
);
}
);
width = 521;
}
);
unicode = 0045;
},
{
color = 0;
glyphname = Eacute;
lastChange = "2018-05-20 14:18:03 +0000";
layers = (
{
background = {
paths = (
{
closed = 1;
nodes = (
"515 588 OFFCURVE",
"584 584 QCURVE",
"610 583 OFFCURVE",
"644 577 OFFCURVE",
"669 564 OFFCURVE",
"681 548 OFFCURVE",
"685 520 OFFCURVE",
"679 485 OFFCURVE",
"673 459 QCURVE",
"653 380 OFFCURVE",
"628 376 QCURVE",
"613 373 OFFCURVE",
"603 397 OFFCURVE",
"603 437 QCURVE",
"603 465 OFFCURVE",
"593 506 OFFCURVE",
"586 509 QCURVE",
"569 515 OFFCURVE",
"451 509 OFFCURVE",
"369 499 QCURVE",
"368 499 OFFCURVE",
"364 498 QCURVE",
"340 495 OFFCURVE",
"319 493 OFFCURVE",
"286 486 OFFCURVE",
"275 484 OFFCURVE",
"255 475 OFFCURVE",
"251 471 OFFCURVE",
"241 457 OFFCURVE",
"240 449 OFFCURVE",
"237 427 OFFCURVE",
"237 413 OFFCURVE",
"237 396 QCURVE",
"237 394 OFFCURVE",
"237 394 QCURVE",
"237 314 LINE",
"317 314 LINE",
"397 314 LINE",
"389 363 LINE",
"381 411 OFFCURVE",
"404 431 QCURVE",
"438 458 OFFCURVE",
"455 414 QCURVE",
"470 377 OFFCURVE",
"468 301 QCURVE",
"464 221 OFFCURVE",
"446 202 QCURVE",
"433 188 OFFCURVE",
"421 224 QCURVE",
"419 232 OFFCURVE",
"413 240 OFFCURVE",
"403 246 OFFCURVE",
"379 245 OFFCURVE",
"351 241 OFFCURVE",
"325 237 QCURVE",
"300 233 OFFCURVE",
"268 225 OFFCURVE",
"242 212 OFFCURVE",
"229 196 OFFCURVE",
"222 169 OFFCURVE",
"223 139 OFFCURVE",
"225 115 QCURVE",
"229 73 LINE",
"433 69 LINE",
"596 67 OFFCURVE",
"632 77 QCURVE",
"659 85 OFFCURVE",
"658 108 QCURVE",
"657 115 OFFCURVE",
"653 126 QCURVE",
"648 142 OFFCURVE",
"666 178 OFFCURVE",
"698 198 OFFCURVE",
"713 192 QCURVE",
"724 188 OFFCURVE",
"733 171 OFFCURVE",
"733 133 OFFCURVE",
"728 90 QCURVE",
"716 -13 OFFCURVE",
"699 -17 QCURVE",
"691 -18 OFFCURVE",
"680 -5 QCURVE",
"671 7 OFFCURVE",
"621 11 OFFCURVE",
"564 4 QCURVE",
"464 -6 OFFCURVE",
"370 -7 QCURVE",
"332 -8 OFFCURVE",
"241 -17 OFFCURVE",
"216 -23 QCURVE",
"105 -53 LINE",
"76 -61 OFFCURVE",
"45 -57 OFFCURVE",
"33 -44 QCURVE",
"6 -18 OFFCURVE",
"50 29 OFFCURVE",
"104 33 QCURVE",
"164 38 LINE",
"166 173 LINE",
"168 307 OFFCURVE",
"177 424 OFFCURVE",
"171 457 QCURVE",
"166 478 OFFCURVE",
"153 484 OFFCURVE",
"133 474 QCURVE",
"112 465 OFFCURVE",
"78 474 OFFCURVE",
"61 511 OFFCURVE",
"68 533 QCURVE",
"74 552 OFFCURVE",
"105 564 OFFCURVE",
"154 564 QCURVE",
"216 564 OFFCURVE",
"508 582 OFFCURVE",
"513 586 QCURVE"
);
},
{
closed = 1;
nodes = (
"499 868 OFFCURVE",
"526 848 OFFCURVE",
"444 728 QCURVE",
"379 633 OFFCURVE",
"356 620 QCURVE",
"339 610 OFFCURVE",
"326 634 QCURVE",
"318 651 OFFCURVE",
"345 698 OFFCURVE",
"401 759 QCURVE"
);
}
);
};
layerId = "523CE715-D489-4446-A5DE-4E6CA80777EE";
paths = (
{
closed = 1;
nodes = (
"515 588 OFFCURVE",
"584 584 QCURVE",
"610 583 OFFCURVE",
"644 577 OFFCURVE",
"669 564 OFFCURVE",
"681 548 OFFCURVE",
"685 520 OFFCURVE",
"679 485 OFFCURVE",
"673 459 QCURVE",
"653 380 OFFCURVE",
"628 376 QCURVE",
"613 373 OFFCURVE",
"603 397 OFFCURVE",
"603 437 QCURVE",
"603 465 OFFCURVE",
"593 506 OFFCURVE",
"586 509 QCURVE",
"569 515 OFFCURVE",
"451 509 OFFCURVE",
"369 499 QCURVE",
"368 499 OFFCURVE",
"364 498 QCURVE",
"340 495 OFFCURVE",
"319 493 OFFCURVE",
"286 486 OFFCURVE",
"275 484 OFFCURVE",
"255 475 OFFCURVE",
"251 471 OFFCURVE",
"241 457 OFFCURVE",
"240 449 OFFCURVE",
"237 427 OFFCURVE",
"237 413 OFFCURVE",
"237 396 QCURVE",
"237 394 OFFCURVE",
"237 394 QCURVE",
"237 314 LINE",
"317 314 LINE",
"397 314 LINE",
"389 363 LINE",
"381 411 OFFCURVE",
"404 431 QCURVE",
"438 458 OFFCURVE",
"455 414 QCURVE",
"470 377 OFFCURVE",
"468 301 QCURVE",
"464 221 OFFCURVE",
"446 202 QCURVE",
"433 188 OFFCURVE",
"421 224 QCURVE",
"419 232 OFFCURVE",
"413 240 OFFCURVE",
"403 246 OFFCURVE",
"379 245 OFFCURVE",
"351 241 OFFCURVE",
"325 237 QCURVE",
"300 233 OFFCURVE",
"268 225 OFFCURVE",
"242 212 OFFCURVE",
"229 196 OFFCURVE",
"222 169 OFFCURVE",
"223 139 OFFCURVE",
"225 115 QCURVE",
"229 73 LINE",
"433 69 LINE",
"596 67 OFFCURVE",
"632 77 QCURVE",
"659 85 OFFCURVE",
"658 108 QCURVE",
"657 115 OFFCURVE",
"653 126 QCURVE",
"648 142 OFFCURVE",
"666 178 OFFCURVE",
"698 198 OFFCURVE",
"713 192 QCURVE",
"724 188 OFFCURVE",
"733 171 OFFCURVE",
"733 133 OFFCURVE",
"728 90 QCURVE",
"716 -13 OFFCURVE",
"699 -17 QCURVE",
"691 -18 OFFCURVE",
"680 -5 QCURVE",
"671 7 OFFCURVE",
"621 11 OFFCURVE",
"564 4 QCURVE",
"464 -6 OFFCURVE",
"370 -7 QCURVE",
"332 -8 OFFCURVE",
"241 -17 OFFCURVE",
"216 -23 QCURVE",
"105 -53 LINE",
"76 -61 OFFCURVE",
"45 -57 OFFCURVE",
"33 -44 QCURVE",
"6 -18 OFFCURVE",
"50 29 OFFCURVE",
"104 33 QCURVE",
"164 38 LINE",
"166 173 LINE",
"168 307 OFFCURVE",
"177 424 OFFCURVE",
"171 457 QCURVE",
"166 478 OFFCURVE",
"153 484 OFFCURVE",
"133 474 QCURVE",
"112 465 OFFCURVE",
"78 474 OFFCURVE",
"61 511 OFFCURVE",
"68 533 QCURVE",
"74 552 OFFCURVE",
"105 564 OFFCURVE",
"154 564 QCURVE",
"216 564 OFFCURVE",
"508 582 OFFCURVE",
"513 586 QCURVE"
);
},
{
closed = 1;
nodes = (
"499 868 OFFCURVE",
"526 848 OFFCURVE",
"444 728 QCURVE",
"379 633 OFFCURVE",
"356 620 QCURVE",
"339 610 OFFCURVE",
"326 634 QCURVE",
"318 651 OFFCURVE",
"345 698 OFFCURVE",
"401 759 QCURVE"
);
}
);
width = 751;
}
);
unicode = 00C9;
},
{
color = 0;
glyphname = F;
lastChange = "2018-05-20 15:32:18 +0000";
layers = (
{
background = {
paths = (
{
closed = 1;
nodes = (
"305 667 OFFCURVE",
"442 683 OFFCURVE",
"463 681 QCURVE",
"514 679 LINE",
"517 548 LINE",
"520 413 OFFCURVE",
"501 388 QCURVE",
"491 376 OFFCURVE",
"471 383 QCURVE",
"458 389 OFFCURVE",
"448 436 OFFCURVE",
"448 502 QCURVE",
"448 575 OFFCURVE",
"442 592 QCURVE",
"434 614 OFFCURVE",
"404 613 QCURVE",
"382 613 OFFCURVE",
"298 596 QCURVE",
"266 590 OFFCURVE",
"237 583 OFFCURVE",
"218 570 OFFCURVE",
"213 556 OFFCURVE",
"213 542 QCURVE",
"212 476 OFFCURVE",
"212 263 OFFCURVE",
"213 246 QCURVE",
"213 229 OFFCURVE",
"230 226 OFFCURVE",
"258 237 QCURVE",
"271 242 OFFCURVE",
"285 249 OFFCURVE",
"295 258 OFFCURVE",
"297 273 OFFCURVE",
"296 290 OFFCURVE",
"293 306 QCURVE",
"288 336 OFFCURVE",
"294 364 OFFCURVE",
"306 368 QCURVE",
"331 378 OFFCURVE",
"360 323 OFFCURVE",
"373 240 QCURVE",
"393 113 OFFCURVE",
"362 117 QCURVE",
"350 119 OFFCURVE",
"330 143 QCURVE",
"313 164 OFFCURVE",
"286 172 OFFCURVE",
"262 164 QCURVE",
"233 154 OFFCURVE",
"203 118 OFFCURVE",
"205 83 OFFCURVE",
"239 57 OFFCURVE",
"268 57 QCURVE",
"298 57 OFFCURVE",
"302 40 QCURVE",
"305 23 OFFCURVE",
"281 10 QCURVE",
"273 6 OFFCURVE",
"262 3 QCURVE",
"245 -1 OFFCURVE",
"174 -8 OFFCURVE",
"141 -8 QCURVE",
"120 -9 OFFCURVE",
"97 -8 OFFCURVE",
"76 -6 OFFCURVE",
"68 -2 OFFCURVE",
"61 8 OFFCURVE",
"60 18 OFFCURVE",
"60 28 QCURVE",
"60 49 OFFCURVE",
"75 64 OFFCURVE",
"119 64 OFFCURVE",
"125 73 QCURVE",
"135 86 OFFCURVE",
"143 163 QCURVE",
"144 175 OFFCURVE",
"146 196 QCURVE",
"151 251 OFFCURVE",
"152 399 OFFCURVE",
"148 450 QCURVE",
"138 573 LINE",
"68 562 LINE",
"36 558 OFFCURVE",
"-8 560 OFFCURVE",
"-12 566 QCURVE",
"-25 588 OFFCURVE",
"31 609 QCURVE",
"91 633 OFFCURVE",
"230 655 QCURVE"
);
}
);
};
layerId = "523CE715-D489-4446-A5DE-4E6CA80777EE";
paths = (
{
closed = 1;
nodes = (
"313 8 LINE",
"310 72 LINE",
"57 65 LINE",
"62 -8 LINE"
);
},
{
closed = 1;
nodes = (
"154 422 OFFCURVE",
"162 255 OFFCURVE",
"122 49 CURVE",
"199 50 LINE",
"241 270 OFFCURVE",
"240 434 OFFCURVE",
"216 608 CURVE",
"134 599 LINE"
);
},
{
closed = 1;
nodes = (
"203 595 OFFCURVE",
"398 630 OFFCURVE",
"550 626 CURVE",
"501 649 LINE",
"520 568 OFFCURVE",
"525 483 OFFCURVE",
"526 406 CURVE",
"584 402 LINE",
"598 500 OFFCURVE",
"602 609 OFFCURVE",
"594 707 CURVE",
"401 696 OFFCURVE",
"213 668 OFFCURVE",
"29 625 CURVE",
"40 563 LINE"
);
},
{
closed = 1;
nodes = (
"371 270 LINE",
"357 346 LINE",
"194 307 LINE",
"205 251 LINE"
);
},
{
closed = 1;
nodes = (
"373 156 LINE",
"425 163 LINE",
"408 445 LINE",
"354 443 LINE",
"336 318 LINE"
);
}
);
width = 670;
}
);
rightKerningGroup = F;
unicode = 0046;
},
{
color = 0;
glyphname = G;
lastChange = "2018-05-20 14:18:03 +0000";
layers = (
{
background = {
paths = (
{
closed = 1;
nodes = (
"428 626 OFFCURVE",
"445 643 OFFCURVE",
"454 643 QCURVE",
"468 643 OFFCURVE",
"489 555 OFFCURVE",
"491 451 OFFCURVE",
"483 409 QCURVE",
"478 388 OFFCURVE",
"463 361 OFFCURVE",
"448 356 OFFCURVE",
"436 365 OFFCURVE",
"427 394 OFFCURVE",
"426 416 QCURVE",
"423 474 OFFCURVE",
"422 499 QCURVE",
"421 516 OFFCURVE",
"386 541 OFFCURVE",
"331 553 OFFCURVE",
"269 553 OFFCURVE",
"206 537 OFFCURVE",
"185 523 QCURVE",
"126 483 OFFCURVE",
"77 373 OFFCURVE",
"72 269 QCURVE",
"69 223 OFFCURVE",
"69 180 OFFCURVE",
"76 143 OFFCURVE",
"88 126 OFFCURVE",
"101 112 QCURVE",
"116 98 OFFCURVE",
"171 69 OFFCURVE",
"194 65 QCURVE",
"230 58 OFFCURVE",
"260 66 OFFCURVE",
"277 86 QCURVE",
"318 138 OFFCURVE",
"271 204 OFFCURVE",
"195 201 QCURVE",
"147 199 OFFCURVE",
"124 218 OFFCURVE",
"133 254 QCURVE",
"139 276 OFFCURVE",
"148 281 QCURVE",
"160 289 OFFCURVE",
"225 285 QCURVE",
"236 284 OFFCURVE",
"256 284 QCURVE",
"369 277 OFFCURVE",
"380 277 QCURVE",
"385 277 OFFCURVE",
"391 223 OFFCURVE",
"391 186 QCURVE",
"391 90 OFFCURVE",
"398 68 QCURVE",
"406 41 OFFCURVE",
"431 34 QCURVE",
"450 30 OFFCURVE",
"519 32 QCURVE",
"630 35 OFFCURVE",
"636 18 QCURVE",
"638 12 OFFCURVE",
"627 -4 OFFCURVE",
"617 -8 QCURVE",
"578 -23 OFFCURVE",
"373 -59 OFFCURVE",
"362 -53 QCURVE",
"356 -49 OFFCURVE",
"348 -19 OFFCURVE",
"348 0 QCURVE",
"348 36 OFFCURVE",
"333 43 QCURVE",
"319 48 OFFCURVE",
"309 22 QCURVE",
"301 1 OFFCURVE",
"231 -13 OFFCURVE",
"148 1 OFFCURVE",
"67 38 OFFCURVE",
"48 63 QCURVE",
"29 89 OFFCURVE",
"18 156 OFFCURVE",
"19 252 QCURVE",
"19 345 OFFCURVE",
"43 456 OFFCURVE",
"98 532 OFFCURVE",
"151 568 QCURVE",
"191 594 OFFCURVE",
"250 614 OFFCURVE",
"292 614 QCURVE",
"321 614 OFFCURVE",
"379 605 OFFCURVE",
"391 599 QCURVE",
"407 590 OFFCURVE",
"421 596 OFFCURVE",
"425 614 QCURVE"
);
}
);
};
layerId = "523CE715-D489-4446-A5DE-4E6CA80777EE";
paths = (
{
closed = 1;
nodes = (
"428 626 OFFCURVE",
"445 643 OFFCURVE",
"454 643 QCURVE",
"468 643 OFFCURVE",
"489 555 OFFCURVE",
"491 451 OFFCURVE",
"483 409 QCURVE",
"478 388 OFFCURVE",
"463 361 OFFCURVE",
"448 356 OFFCURVE",
"436 365 OFFCURVE",
"427 394 OFFCURVE",
"426 416 QCURVE",
"423 474 OFFCURVE",
"422 499 QCURVE",
"421 516 OFFCURVE",
"386 541 OFFCURVE",
"331 553 OFFCURVE",
"269 553 OFFCURVE",
"206 537 OFFCURVE",
"185 523 QCURVE",
"126 483 OFFCURVE",
"77 373 OFFCURVE",
"72 269 QCURVE",
"69 223 OFFCURVE",
"69 180 OFFCURVE",
"76 143 OFFCURVE",
"88 126 OFFCURVE",
"101 112 QCURVE",
"116 98 OFFCURVE",
"171 69 OFFCURVE",
"194 65 QCURVE",
"230 58 OFFCURVE",
"260 66 OFFCURVE",
"277 86 QCURVE",
"318 138 OFFCURVE",
"271 204 OFFCURVE",
"195 201 QCURVE",
"147 199 OFFCURVE",
"124 218 OFFCURVE",
"133 254 QCURVE",
"139 276 OFFCURVE",
"148 281 QCURVE",
"160 289 OFFCURVE",
"225 285 QCURVE",
"236 284 OFFCURVE",
"256 284 QCURVE",
"369 277 OFFCURVE",
"380 277 QCURVE",
"385 277 OFFCURVE",
"391 223 OFFCURVE",
"391 186 QCURVE",
"391 90 OFFCURVE",
"398 68 QCURVE",
"406 41 OFFCURVE",
"431 34 QCURVE",
"450 30 OFFCURVE",
"519 32 QCURVE",
"630 35 OFFCURVE",
"636 18 QCURVE",
"638 12 OFFCURVE",
"627 -4 OFFCURVE",
"617 -8 QCURVE",
"578 -23 OFFCURVE",
"373 -59 OFFCURVE",
"362 -53 QCURVE",
"356 -49 OFFCURVE",
"348 -19 OFFCURVE",
"348 0 QCURVE",
"348 36 OFFCURVE",
"333 43 QCURVE",
"319 48 OFFCURVE",
"309 22 QCURVE",
"301 1 OFFCURVE",
"231 -13 OFFCURVE",
"148 1 OFFCURVE",
"67 38 OFFCURVE",
"48 63 QCURVE",
"29 89 OFFCURVE",
"18 156 OFFCURVE",
"19 252 QCURVE",
"19 345 OFFCURVE",
"43 456 OFFCURVE",
"98 532 OFFCURVE",
"151 568 QCURVE",
"191 594 OFFCURVE",
"250 614 OFFCURVE",
"292 614 QCURVE",
"321 614 OFFCURVE",
"379 605 OFFCURVE",
"391 599 QCURVE",
"407 590 OFFCURVE",
"421 596 OFFCURVE",
"425 614 QCURVE"
);
}
);
width = 655;
}
);
unicode = 0047;
},
{
glyphname = H;
lastChange = "2018-05-20 14:18:03 +0000";
layers = (
{
background = {
paths = (
{
closed = 1;
nodes = (
"29 571 LINE",
"119 583 LINE",
"106 608 LINE",
"138 417 OFFCURVE",
"136 199 OFFCURVE",
"124 28 CURVE",
"158 59 LINE",
"36 46 LINE",
"42 -20 LINE",
"288 6 LINE",
"280 74 LINE",
"188 64 LINE",
"206 40 LINE",
"209 213 OFFCURVE",
"205 403 OFFCURVE",
"174 614 CURVE",
"157 586 LINE",
"243 590 LINE",
"236 658 LINE",
"24 639 LINE"
);
},
{
closed = 1;
nodes = (
"404 573 LINE",
"501 579 LINE",
"485 609 LINE",
"498 421 OFFCURVE",
"508 236 OFFCURVE",
"501 48 CURVE",
"524 71 LINE",
"428 67 LINE",
"429 -2 LINE",
"659 0 LINE",
"661 68 LINE",
"566 72 LINE",
"585 61 LINE",
"585 236 OFFCURVE",
"579 426 OFFCURVE",
"566 610 CURVE",
"538 577 LINE",
"666 581 LINE",
"662 650 LINE",
"398 644 LINE"
);
},
{
closed = 1;
nodes = (
"286 299 OFFCURVE",
"401 298 OFFCURVE",
"516 292 CURVE",
"515 356 LINE",
"401 366 OFFCURVE",
"285 372 OFFCURVE",
"166 372 CURVE",
"169 299 LINE"
);
}
);
};
layerId = "523CE715-D489-4446-A5DE-4E6CA80777EE";
paths = (
{
closed = 1;
nodes = (
"29 571 LINE",
"119 583 LINE",
"106 608 LINE",
"138 417 OFFCURVE",
"136 199 OFFCURVE",
"124 28 CURVE",
"158 59 LINE",
"36 46 LINE",
"42 -20 LINE",
"288 6 LINE",
"280 74 LINE",
"188 64 LINE",
"206 40 LINE",
"209 213 OFFCURVE",
"205 403 OFFCURVE",
"174 614 CURVE",
"157 586 LINE",
"243 590 LINE",
"236 658 LINE",
"24 639 LINE"
);
},
{
closed = 1;
nodes = (
"404 573 LINE",
"501 579 LINE",
"485 609 LINE",
"498 421 OFFCURVE",
"508 236 OFFCURVE",
"501 48 CURVE",
"524 71 LINE",
"428 67 LINE",
"429 -2 LINE",
"659 0 LINE",
"661 68 LINE",
"566 72 LINE",
"585 61 LINE",
"585 236 OFFCURVE",
"579 426 OFFCURVE",
"566 610 CURVE",
"538 577 LINE",
"666 581 LINE",
"662 650 LINE",
"398 644 LINE"
);
},
{
closed = 1;
nodes = (
"286 299 OFFCURVE",
"401 298 OFFCURVE",
"516 292 CURVE",
"515 356 LINE",
"401 366 OFFCURVE",
"285 372 OFFCURVE",
"166 372 CURVE",
"169 299 LINE"
);
}
);
width = 727;
}
);
unicode = 0048;
userData = {
com.typemytype.robofont.mark = (
0.656,
1,
0.6,
1
);
};
},
{
glyphname = I;
lastChange = "2018-05-20 14:18:03 +0000";
layers = (
{
anchors = (
{
name = top;
position = "{175, 650}";
}
);
background = {
anchors = (
{
name = top;
position = "{175, 650}";
}
);
paths = (
{
closed = 1;
nodes = (
"242 231 OFFCURVE",
"227 445 OFFCURVE",
"216 619 CURVE",
"136 612 LINE",
"155 439 OFFCURVE",
"170 225 OFFCURVE",
"180 52 CURVE",
"259 59 LINE"
);
},
{
closed = 1;
nodes = (
"30 634 LINE",
"39 557 LINE",
"178 576 LINE",
"294 586 LINE",
"286 654 LINE"
);
},
{
closed = 1;
nodes = (
"44 -18 LINE",
"335 13 LINE",
"327 79 LINE",
"223 67 LINE",
"35 50 LINE"
);
}
);
};
layerId = "523CE715-D489-4446-A5DE-4E6CA80777EE";
paths = (
{
closed = 1;
nodes = (
"242 231 OFFCURVE",
"227 445 OFFCURVE",
"216 619 CURVE",
"136 612 LINE",
"155 439 OFFCURVE",
"170 225 OFFCURVE",
"180 52 CURVE",
"259 59 LINE"
);
},
{
closed = 1;
nodes = (
"30 634 LINE",
"39 557 LINE",
"178 576 LINE",
"294 586 LINE",
"286 654 LINE"
);
},
{
closed = 1;
nodes = (
"44 -18 LINE",
"335 13 LINE",
"327 79 LINE",
"223 67 LINE",
"35 50 LINE"
);
}
);
width = 358;
}
);
unicode = 0049;
userData = {
com.typemytype.robofont.mark = (
0.656,
1,
0.6,
1
);
};
},
{
color = 6;
glyphname = Iacute;
lastChange = "2018-05-20 14:18:03 +0000";
layers = (
{
background = {
anchors = (
{
name = top;
position = "{181, 616}";
}
);
paths = (
{
closed = 1;
nodes = (
"248 198 OFFCURVE",
"233 411 OFFCURVE",
"222 585 CURVE",
"143 578 LINE",
"161 405 OFFCURVE",
"176 191 OFFCURVE",
"186 18 CURVE",
"266 25 LINE"
);
},
{
closed = 1;
nodes = (
"36 601 LINE",
"46 523 LINE",
"184 543 LINE",
"301 553 LINE",
"292 620 LINE"
);
},
{
closed = 1;
nodes = (
"50 -52 LINE",
"341 -21 LINE",
"333 45 LINE",
"229 33 LINE",
"41 16 LINE"
);
},
{
closed = 1;
nodes = (
"168 654 LINE",
"356 803 LINE",
"268 870 LINE",
"118 689 LINE"
);
}
);
};
components = (
{
name = I;
transform = "{1, 0, 0, 1, 6, -34}";
},
{
name = acutecomb;
transform = "{1, 0, 0, 1, 206, 152}";
}
);
layerId = "523CE715-D489-4446-A5DE-4E6CA80777EE";
width = 358;
}
);
unicode = 00CD;
userData = {
com.typemytype.robofont.mark = (
0.6,
0.986,
1,
1
);
};
},
{
color = 0;
glyphname = J;
lastChange = "2018-05-20 14:18:03 +0000";
layers = (
{
background = {
paths = (
{
closed = 1;
nodes = (
"430 693 OFFCURVE",
"467 694 OFFCURVE",
"474 670 QCURVE",
"477 659 OFFCURVE",
"479 484 OFFCURVE",
"479 371 QCURVE",
"477 238 OFFCURVE",
"472 130 OFFCURVE",
"461 80 OFFCURVE",
"446 64 QCURVE",
"434 49 OFFCURVE",
"421 35 OFFCURVE",
"398 18 OFFCURVE",
"383 11 OFFCURVE",
"347 -1 OFFCURVE",
"314 -9 OFFCURVE",
"281 -16 QCURVE",
"251 -23 OFFCURVE",
"223 -29 OFFCURVE",
"189 -33 OFFCURVE",
"176 -33 OFFCURVE",
"154 -26 OFFCURVE",
"140 -18 OFFCURVE",
"126 -9 QCURVE",
"94 11 OFFCURVE",
"74 47 OFFCURVE",
"70 98 QCURVE",
"64 144 OFFCURVE",
"69 196 OFFCURVE",
"88 212 OFFCURVE",
"108 209 QCURVE",
"127 206 OFFCURVE",
"141 176 OFFCURVE",
"146 131 QCURVE",
"153 58 LINE",
"212 54 LINE",
"274 49 OFFCURVE",
"389 91 OFFCURVE",
"404 124 QCURVE",
"421 161 OFFCURVE",
"413 378 QCURVE",
"405 596 LINE",
"345 586 LINE",
"285 576 OFFCURVE",
"204 569 QCURVE",
"175 567 OFFCURVE",
"143 563 OFFCURVE",
"113 557 OFFCURVE",
"100 551 OFFCURVE",
"89 539 OFFCURVE",
"86 528 OFFCURVE",
"84 516 QCURVE",
"79 483 OFFCURVE",
"62 483 QCURVE",
"46 484 OFFCURVE",
"33 515 QCURVE",
"28 526 OFFCURVE",
"26 540 QCURVE",
"23 555 OFFCURVE",
"19 574 OFFCURVE",
"19 595 OFFCURVE",
"21 607 OFFCURVE",
"31 620 OFFCURVE",
"43 626 OFFCURVE",
"66 633 OFFCURVE",
"89 636 OFFCURVE",
"129 639 OFFCURVE",
"169 640 OFFCURVE",
"199 641 QCURVE",
"291 643 OFFCURVE",
"375 654 OFFCURVE",
"395 668 QCURVE"
);
}
);
};
layerId = "523CE715-D489-4446-A5DE-4E6CA80777EE";
paths = (
{
closed = 1;
nodes = (
"430 693 OFFCURVE",
"467 694 OFFCURVE",
"474 670 QCURVE",
"477 659 OFFCURVE",
"479 484 OFFCURVE",
"479 371 QCURVE",
"477 238 OFFCURVE",
"472 130 OFFCURVE",
"461 80 OFFCURVE",
"446 64 QCURVE",
"434 49 OFFCURVE",
"421 35 OFFCURVE",
"398 18 OFFCURVE",
"383 11 OFFCURVE",
"347 -1 OFFCURVE",
"314 -9 OFFCURVE",
"281 -16 QCURVE",
"251 -23 OFFCURVE",
"223 -29 OFFCURVE",
"189 -33 OFFCURVE",
"176 -33 OFFCURVE",
"154 -26 OFFCURVE",
"140 -18 OFFCURVE",
"126 -9 QCURVE",
"94 11 OFFCURVE",
"74 47 OFFCURVE",
"70 98 QCURVE",
"64 144 OFFCURVE",
"69 196 OFFCURVE",
"88 212 OFFCURVE",
"108 209 QCURVE",
"127 206 OFFCURVE",
"141 176 OFFCURVE",
"146 131 QCURVE",
"153 58 LINE",
"212 54 LINE",
"274 49 OFFCURVE",
"389 91 OFFCURVE",
"404 124 QCURVE",
"421 161 OFFCURVE",
"413 378 QCURVE",
"405 596 LINE",
"345 586 LINE",
"285 576 OFFCURVE",
"204 569 QCURVE",
"175 567 OFFCURVE",
"143 563 OFFCURVE",
"113 557 OFFCURVE",
"100 551 OFFCURVE",
"89 539 OFFCURVE",
"86 528 OFFCURVE",
"84 516 QCURVE",
"79 483 OFFCURVE",
"62 483 QCURVE",
"46 484 OFFCURVE",
"33 515 QCURVE",
"28 526 OFFCURVE",
"26 540 QCURVE",
"23 555 OFFCURVE",
"19 574 OFFCURVE",
"19 595 OFFCURVE",
"21 607 OFFCURVE",
"31 620 OFFCURVE",
"43 626 OFFCURVE",
"66 633 OFFCURVE",
"89 636 OFFCURVE",
"129 639 OFFCURVE",
"169 640 OFFCURVE",
"199 641 QCURVE",
"291 643 OFFCURVE",
"375 654 OFFCURVE",
"395 668 QCURVE"
);
}
);
width = 498;
}
);
unicode = 004A;
},
{
color = 0;
glyphname = K;
lastChange = "2018-05-20 15:46:36 +0000";
layers = (
{
associatedMasterId = "523CE715-D489-4446-A5DE-4E6CA80777EE";
background = {
paths = (
{
closed = 1;
nodes = (
"173 578 LINE",
"301 584 LINE",
"298 652 LINE",
"49 639 LINE",
"54 576 LINE"
);
},
{
closed = 1;
nodes = (
"136 425 OFFCURVE",
"141 236 OFFCURVE",
"132 47 CURVE",
"225 52 LINE",
"231 241 OFFCURVE",
"219 428 OFFCURVE",
"206 613 CURVE",
"129 614 LINE"
);
},
{
closed = 1;
nodes = (
"48 78 LINE",
"54 11 LINE",
"315 36 LINE",
"311 92 LINE",
"184 88 LINE"
);
},
{
closed = 1;
nodes = (
"348 266 OFFCURVE",
"478 414 OFFCURVE",
"586 584 CURVE",
"493 583 LINE",
"404 442 OFFCURVE",
"283 313 OFFCURVE",
"167 205 CURVE",
"203 130 LINE"
);
},
{
closed = 1;
nodes = (
"519 559 LINE",
"646 566 LINE",
"652 622 LINE",
"423 641 LINE",
"419 588 LINE"
);
},
{
closed = 1;
nodes = (
"358 191 OFFCURVE",
"429 101 OFFCURVE",
"508 17 CURVE",
"613 38 LINE",
"508 129 OFFCURVE",
"418 226 OFFCURVE",
"350 344 CURVE",
"303 288 LINE"
);
},
{
closed = 1;
nodes = (
"421 33 LINE",
"431 -23 LINE",
"684 8 LINE",
"680 62 LINE",
"497 71 LINE"
);
}
);
};
layerId = "CC7ED8DF-D08E-482F-98BC-CF2BDD5B1A01";
name = "May 20 18, 17:46";
paths = (
{
closed = 1;
nodes = (
"173 578 LINE",
"301 584 LINE",
"298 652 LINE",
"49 639 LINE",
"54 576 LINE"
);
},
{
closed = 1;
nodes = (
"144 425 OFFCURVE",
"148 236 OFFCURVE",
"132 47 CURVE",
"215 52 LINE",
"231 241 OFFCURVE",
"225 429 OFFCURVE",
"206 613 CURVE",
"129 614 LINE"
);
},
{
closed = 1;
nodes = (
"48 78 LINE",
"54 11 LINE",
"315 36 LINE",
"311 92 LINE",
"184 88 LINE"
);
},
{
closed = 1;
nodes = (
"369 277 OFFCURVE",
"490 414 OFFCURVE",
"586 584 CURVE",
"493 583 LINE",
"420 434 OFFCURVE",
"298 312 OFFCURVE",
"173 198 CURVE",
"208 152 LINE"
);
},
{
closed = 1;
nodes = (
"519 559 LINE",
"646 566 LINE",
"652 622 LINE",
"423 641 LINE",
"419 588 LINE"
);
},
{
closed = 1;
nodes = (
"358 191 OFFCURVE",
"429 101 OFFCURVE",
"508 17 CURVE",
"613 38 LINE",
"508 129 OFFCURVE",
"418 226 OFFCURVE",
"350 344 CURVE",
"303 288 LINE"
);
},
{
closed = 1;
nodes = (
"390 28 LINE",
"400 -28 LINE",
"684 8 LINE",
"680 62 LINE",
"503 58 LINE"
);
}
);
width = 719;
},
{
background = {
paths = (
{
closed = 1;
nodes = (
"173 578 LINE",
"301 584 LINE",
"298 652 LINE",
"49 639 LINE",
"54 576 LINE"
);
},
{
closed = 1;
nodes = (
"144 425 OFFCURVE",
"148 236 OFFCURVE",
"132 47 CURVE",
"215 52 LINE",
"231 241 OFFCURVE",
"225 429 OFFCURVE",
"206 613 CURVE",
"129 614 LINE"
);
},
{
closed = 1;
nodes = (
"48 78 LINE",
"54 11 LINE",
"315 36 LINE",
"311 92 LINE",
"184 88 LINE"
);
},
{
closed = 1;
nodes = (
"514 578 LINE",
"641 585 LINE",
"647 641 LINE",
"418 660 LINE",
"414 607 LINE"
);
},
{
closed = 1;
nodes = (
"209 293 OFFCURVE",
"229 295 OFFCURVE",
"248 295 CURVE SMOOTH",
"341 295 OFFCURVE",
"385 261 OFFCURVE",
"429 155 CURVE SMOOTH",
"476 41 OFFCURVE",
"530 -27 OFFCURVE",
"622 -27 CURVE SMOOTH",
"704 -27 OFFCURVE",
"765 37 OFFCURVE",
"751 181 CURVE",
"689 181 LINE",
"689 98 OFFCURVE",
"667 48 OFFCURVE",
"616 48 CURVE SMOOTH",
"574 48 OFFCURVE",
"553 79 OFFCURVE",
"510 181 CURVE SMOOTH",
"454 312 OFFCURVE",
"382 367 OFFCURVE",
"281 366 CURVE SMOOTH",
"252 366 OFFCURVE",
"222 362 OFFCURVE",
"188 354 CURVE",
"188 290 LINE"
);
}
);
};
layerId = "523CE715-D489-4446-A5DE-4E6CA80777EE";
paths = (
{
closed = 1;
nodes = (
"173 578 LINE",
"301 584 LINE",
"298 652 LINE",
"49 639 LINE",
"54 576 LINE"
);
},
{
closed = 1;
nodes = (
"144 425 OFFCURVE",
"148 236 OFFCURVE",
"132 47 CURVE",
"215 52 LINE",
"231 241 OFFCURVE",
"225 429 OFFCURVE",
"206 613 CURVE",
"129 614 LINE"
);
},
{
closed = 1;
nodes = (
"48 78 LINE",
"54 11 LINE",
"315 36 LINE",
"311 92 LINE",
"184 88 LINE"
);
},
{
closed = 1;
nodes = (
"514 578 LINE",
"641 585 LINE",
"647 641 LINE",
"418 660 LINE",
"414 607 LINE"
);
},
{
closed = 1;
nodes = (
"209 293 OFFCURVE",
"239 298 OFFCURVE",
"268 298 CURVE SMOOTH",
"365 298 OFFCURVE",
"395 246 OFFCURVE",
"432 157 CURVE SMOOTH",
"469 68 OFFCURVE",
"510 -27 OFFCURVE",
"618 -27 CURVE SMOOTH",
"704 -27 OFFCURVE",
"765 37 OFFCURVE",
"751 181 CURVE",
"689 181 LINE",
"689 98 OFFCURVE",
"667 48 OFFCURVE",
"616 48 CURVE SMOOTH",
"565 48 OFFCURVE",
"538 115 OFFCURVE",
"508 187 CURVE SMOOTH",
"472 273 OFFCURVE",
"418 366 OFFCURVE",
"281 366 CURVE SMOOTH",
"252 366 OFFCURVE",
"222 362 OFFCURVE",
"188 354 CURVE",
"188 288 LINE"
);
},
{
closed = 1;
nodes = (
"339 320 LINE",
"453 403 OFFCURVE",
"532 492 OFFCURVE",
"581 603 CURVE",
"488 602 LINE",
"449 507 OFFCURVE",
"387 432 OFFCURVE",
"289 360 CURVE"
);
}
);
width = 770;
}
);
rightKerningGroup = K;
unicode = 004B;
userData = {
com.typemytype.robofont.mark = (
0.656,
1,
0.6,
1
);
};
},
{
color = 0;
glyphname = L;
lastChange = "2018-05-20 14:18:03 +0000";
layers = (
{
background = {
paths = (
{
closed = 1;
nodes = (
"129 526 OFFCURVE",
"334 523 OFFCURVE",
"338 513 QCURVE",
"347 486 OFFCURVE",
"338 479 QCURVE",
"334 476 OFFCURVE",
"329 479 QCURVE",
"324 483 OFFCURVE",
"282 478 OFFCURVE",
"257 471 QCURVE",
"196 456 LINE",
"192 322 LINE",
"190 268 OFFCURVE",
"194 151 OFFCURVE",
"199 124 QCURVE",
"203 106 OFFCURVE",
"206 89 OFFCURVE",
"215 72 OFFCURVE",
"219 68 OFFCURVE",
"236 65 OFFCURVE",
"250 67 OFFCURVE",
"266 69 QCURVE",
"319 78 OFFCURVE",
"374 78 QCURVE",
"389 78 OFFCURVE",
"404 79 OFFCURVE",
"419 83 OFFCURVE",
"424 88 OFFCURVE",
"428 101 OFFCURVE",
"429 114 OFFCURVE",
"429 128 QCURVE",
"429 166 OFFCURVE",
"466 216 OFFCURVE",
"486 204 QCURVE",
"501 194 OFFCURVE",
"503 62 OFFCURVE",
"488 34 QCURVE",
"479 18 OFFCURVE",
"438 6 OFFCURVE",
"381 6 QCURVE",
"344 6 OFFCURVE",
"234 -12 OFFCURVE",
"158 -35 OFFCURVE",
"96 -48 OFFCURVE",
"86 -43 OFFCURVE",
"73 -48 OFFCURVE",
"69 -55 QCURVE",
"60 -70 OFFCURVE",
"41 -55 QCURVE",
"21 -36 OFFCURVE",
"19 -9 QCURVE",
"19 15 OFFCURVE",
"57 47 OFFCURVE",
"92 51 QCURVE",
"115 54 OFFCURVE",
"128 74 OFFCURVE",
"128 103 QCURVE",
"124 363 OFFCURVE",
"119 397 QCURVE",
"115 421 OFFCURVE",
"105 422 QCURVE",
"103 422 OFFCURVE",
"95 420 QCURVE",
"84 418 OFFCURVE",
"57 428 OFFCURVE",
"49 437 QCURVE",
"29 460 OFFCURVE",
"56 509 OFFCURVE",
"92 518 QCURVE"
);
}
);
};
layerId = "523CE715-D489-4446-A5DE-4E6CA80777EE";
paths = (
{
closed = 1;
nodes = (
"129 526 OFFCURVE",
"334 523 OFFCURVE",
"338 513 QCURVE",
"347 486 OFFCURVE",
"338 479 QCURVE",
"334 476 OFFCURVE",
"329 479 QCURVE",
"324 483 OFFCURVE",
"282 478 OFFCURVE",
"257 471 QCURVE",
"196 456 LINE",
"192 322 LINE",
"190 268 OFFCURVE",
"194 151 OFFCURVE",
"199 124 QCURVE",
"203 106 OFFCURVE",
"206 89 OFFCURVE",
"215 72 OFFCURVE",
"219 68 OFFCURVE",
"236 65 OFFCURVE",
"250 67 OFFCURVE",
"266 69 QCURVE",
"319 78 OFFCURVE",
"374 78 QCURVE",
"389 78 OFFCURVE",
"404 79 OFFCURVE",
"419 83 OFFCURVE",
"424 88 OFFCURVE",
"428 101 OFFCURVE",
"429 114 OFFCURVE",
"429 128 QCURVE",
"429 166 OFFCURVE",
"466 216 OFFCURVE",
"486 204 QCURVE",
"501 194 OFFCURVE",
"503 62 OFFCURVE",
"488 34 QCURVE",
"479 18 OFFCURVE",
"438 6 OFFCURVE",
"381 6 QCURVE",
"344 6 OFFCURVE",
"234 -12 OFFCURVE",
"158 -35 OFFCURVE",
"96 -48 OFFCURVE",
"86 -43 OFFCURVE",
"73 -48 OFFCURVE",
"69 -55 QCURVE",
"60 -70 OFFCURVE",
"41 -55 QCURVE",
"21 -36 OFFCURVE",
"19 -9 QCURVE",
"19 15 OFFCURVE",
"57 47 OFFCURVE",
"92 51 QCURVE",
"115 54 OFFCURVE",
"128 74 OFFCURVE",
"128 103 QCURVE",
"124 363 OFFCURVE",
"119 397 QCURVE",
"115 421 OFFCURVE",
"105 422 QCURVE",
"103 422 OFFCURVE",
"95 420 QCURVE",
"84 418 OFFCURVE",
"57 428 OFFCURVE",
"49 437 QCURVE",
"29 460 OFFCURVE",
"56 509 OFFCURVE",
"92 518 QCURVE"
);
}
);
width = 521;
}
);
unicode = 004C;
},
{
color = 0;
glyphname = M;
lastChange = "2018-05-20 14:18:03 +0000";
layers = (
{
background = {
paths = (
{
closed = 1;
nodes = (
"554 573 OFFCURVE",
"584 601 OFFCURVE",
"611 624 OFFCURVE",
"631 629 OFFCURVE",
"649 629 OFFCURVE",
"663 626 QCURVE",
"749 608 OFFCURVE",
"779 577 QCURVE",
"800 556 OFFCURVE",
"774 545 QCURVE",
"758 538 OFFCURVE",
"725 539 QCURVE",
"659 539 LINE",
"654 327 LINE",
"649 134 OFFCURVE",
"657 95 QCURVE",
"662 68 OFFCURVE",
"679 64 QCURVE",
"683 63 OFFCURVE",
"690 63 QCURVE",
"706 63 OFFCURVE",
"721 43 OFFCURVE",
"709 19 OFFCURVE",
"693 13 QCURVE",
"581 -22 OFFCURVE",
"519 -8 QCURVE",
"475 2 OFFCURVE",
"487 34 QCURVE",
"489 39 OFFCURVE",
"492 44 QCURVE",
"498 55 OFFCURVE",
"525 74 OFFCURVE",
"547 78 OFFCURVE",
"569 90 OFFCURVE",
"573 96 QCURVE",
"585 116 OFFCURVE",
"601 374 OFFCURVE",
"593 431 QCURVE",
"583 506 LINE",
"546 472 LINE",
"516 443 OFFCURVE",
"396 268 OFFCURVE",
"396 253 QCURVE",
"396 247 OFFCURVE",
"379 239 OFFCURVE",
"368 239 QCURVE",
"341 239 OFFCURVE",
"317 304 QCURVE",
"305 334 OFFCURVE",
"247 422 OFFCURVE",
"193 480 OFFCURVE",
"186 473 QCURVE",
"183 470 OFFCURVE",
"176 343 OFFCURVE",
"174 258 QCURVE",
"168 49 LINE",
"215 49 LINE",
"256 49 OFFCURVE",
"273 31 QCURVE",
"283 20 OFFCURVE",
"273 9 QCURVE",
"264 1 OFFCURVE",
"147 -25 QCURVE",
"55 -46 OFFCURVE",
"40 -44 QCURVE",
"29 -42 OFFCURVE",
"24 -29 QCURVE",
"23 -27 OFFCURVE",
"22 -23 QCURVE",
"13 6 OFFCURVE",
"49 49 OFFCURVE",
"83 49 QCURVE",
"120 49 LINE",
"115 291 LINE",
"113 390 OFFCURVE",
"105 532 OFFCURVE",
"102 532 QCURVE",
"94 532 OFFCURVE",
"78 516 QCURVE",
"62 500 OFFCURVE",
"29 520 OFFCURVE",
"29 545 QCURVE",
"29 605 OFFCURVE",
"124 605 QCURVE",
"151 605 OFFCURVE",
"185 596 OFFCURVE",
"229 560 OFFCURVE",
"274 504 OFFCURVE",
"313 449 QCURVE",
"336 417 OFFCURVE",
"376 371 OFFCURVE",
"386 371 OFFCURVE",
"407 396 OFFCURVE",
"415 412 QCURVE",
"424 429 OFFCURVE",
"489 507 OFFCURVE",
"526 544 QCURVE"
);
}
);
};
layerId = "523CE715-D489-4446-A5DE-4E6CA80777EE";
paths = (
{
closed = 1;
nodes = (
"554 573 OFFCURVE",
"584 601 OFFCURVE",
"611 624 OFFCURVE",
"631 629 OFFCURVE",
"649 629 OFFCURVE",
"663 626 QCURVE",
"749 608 OFFCURVE",
"779 577 QCURVE",
"800 556 OFFCURVE",
"774 545 QCURVE",
"758 538 OFFCURVE",
"725 539 QCURVE",
"659 539 LINE",
"654 327 LINE",
"649 134 OFFCURVE",
"657 95 QCURVE",
"662 68 OFFCURVE",
"679 64 QCURVE",
"683 63 OFFCURVE",
"690 63 QCURVE",
"706 63 OFFCURVE",
"721 43 OFFCURVE",
"709 19 OFFCURVE",
"693 13 QCURVE",
"581 -22 OFFCURVE",
"519 -8 QCURVE",
"475 2 OFFCURVE",
"487 34 QCURVE",
"489 39 OFFCURVE",
"492 44 QCURVE",
"498 55 OFFCURVE",
"525 74 OFFCURVE",
"547 78 OFFCURVE",
"569 90 OFFCURVE",
"573 96 QCURVE",
"585 116 OFFCURVE",
"601 374 OFFCURVE",
"593 431 QCURVE",
"583 506 LINE",
"546 472 LINE",
"516 443 OFFCURVE",
"396 268 OFFCURVE",
"396 253 QCURVE",
"396 247 OFFCURVE",
"379 239 OFFCURVE",
"368 239 QCURVE",
"341 239 OFFCURVE",
"317 304 QCURVE",
"305 334 OFFCURVE",
"247 422 OFFCURVE",
"193 480 OFFCURVE",
"186 473 QCURVE",
"183 470 OFFCURVE",
"176 343 OFFCURVE",
"174 258 QCURVE",
"168 49 LINE",
"215 49 LINE",
"256 49 OFFCURVE",
"273 31 QCURVE",
"283 20 OFFCURVE",
"273 9 QCURVE",
"264 1 OFFCURVE",
"147 -25 QCURVE",
"55 -46 OFFCURVE",
"40 -44 QCURVE",
"29 -42 OFFCURVE",
"24 -29 QCURVE",
"23 -27 OFFCURVE",
"22 -23 QCURVE",
"13 6 OFFCURVE",
"49 49 OFFCURVE",
"83 49 QCURVE",
"120 49 LINE",
"115 291 LINE",
"113 390 OFFCURVE",
"105 532 OFFCURVE",
"102 532 QCURVE",
"94 532 OFFCURVE",
"78 516 QCURVE",
"62 500 OFFCURVE",
"29 520 OFFCURVE",
"29 545 QCURVE",
"29 605 OFFCURVE",
"124 605 QCURVE",
"151 605 OFFCURVE",
"185 596 OFFCURVE",
"229 560 OFFCURVE",
"274 504 OFFCURVE",
"313 449 QCURVE",
"336 417 OFFCURVE",
"376 371 OFFCURVE",
"386 371 OFFCURVE",
"407 396 OFFCURVE",
"415 412 QCURVE",
"424 429 OFFCURVE",
"489 507 OFFCURVE",
"526 544 QCURVE"
);
}
);
width = 807;
}
);
unicode = 004D;
},
{
color = 0;
glyphname = N;
lastChange = "2018-05-20 14:18:03 +0000";
layers = (
{
background = {
paths = (
{
closed = 1;
nodes = (
"185 638 OFFCURVE",
"239 639 QCURVE",
"273 641 OFFCURVE",
"284 634 QCURVE",
"299 624 OFFCURVE",
"323 576 QCURVE",
"331 562 OFFCURVE",
"349 521 QCURVE",
"375 467 OFFCURVE",
"498 277 OFFCURVE",
"609 129 OFFCURVE",
"621 129 QCURVE",
"626 128 OFFCURVE",
"631 249 OFFCURVE",
"629 333 QCURVE",
"625 498 OFFCURVE",
"617 521 QCURVE",
"612 534 OFFCURVE",
"601 531 QCURVE",
"591 528 OFFCURVE",
"567 536 OFFCURVE",
"559 546 QCURVE",
"538 571 OFFCURVE",
"576 600 QCURVE",
"615 631 OFFCURVE",
"678 638 QCURVE",
"713 642 OFFCURVE",
"741 635 QCURVE",
"766 629 OFFCURVE",
"781 607 OFFCURVE",
"758 581 OFFCURVE",
"729 568 QCURVE",
"683 546 LINE",
"687 294 LINE",
"691 51 OFFCURVE",
"671 1 QCURVE",
"654 -39 OFFCURVE",
"614 3 QCURVE",
"593 25 OFFCURVE",
"561 73 QCURVE",
"426 268 LINE",
"353 370 OFFCURVE",
"299 461 QCURVE",
"241 560 OFFCURVE",
"223 561 QCURVE",
"210 561 OFFCURVE",
"209 523 QCURVE",
"209 501 OFFCURVE",
"213 463 QCURVE",
"221 355 OFFCURVE",
"229 231 QCURVE",
"233 179 OFFCURVE",
"247 74 OFFCURVE",
"254 51 QCURVE",
"263 20 OFFCURVE",
"263 -13 OFFCURVE",
"254 -21 QCURVE",
"239 -35 OFFCURVE",
"170 -36 OFFCURVE",
"100 -18 OFFCURVE",
"46 17 OFFCURVE",
"46 34 QCURVE",
"46 48 OFFCURVE",
"71 53 OFFCURVE",
"112 47 QCURVE",
"178 38 LINE",
"178 131 LINE",
"178 169 OFFCURVE",
"163 316 OFFCURVE",
"152 381 QCURVE",
"126 538 LINE",
"79 529 LINE",
"51 524 OFFCURVE",
"27 531 OFFCURVE",
"21 546 QCURVE",
"11 572 OFFCURVE",
"63 614 OFFCURVE",
"121 625 QCURVE"
);
}
);
};
layerId = "523CE715-D489-4446-A5DE-4E6CA80777EE";
paths = (
{
closed = 1;
nodes = (
"185 638 OFFCURVE",
"239 639 QCURVE",
"273 641 OFFCURVE",
"284 634 QCURVE",
"299 624 OFFCURVE",
"323 576 QCURVE",
"331 562 OFFCURVE",
"349 521 QCURVE",
"375 467 OFFCURVE",
"498 277 OFFCURVE",
"609 129 OFFCURVE",
"621 129 QCURVE",
"626 128 OFFCURVE",
"631 249 OFFCURVE",
"629 333 QCURVE",
"625 498 OFFCURVE",
"617 521 QCURVE",
"612 534 OFFCURVE",
"601 531 QCURVE",
"591 528 OFFCURVE",
"567 536 OFFCURVE",
"559 546 QCURVE",
"538 571 OFFCURVE",
"576 600 QCURVE",
"615 631 OFFCURVE",
"678 638 QCURVE",
"713 642 OFFCURVE",
"741 635 QCURVE",
"766 629 OFFCURVE",
"781 607 OFFCURVE",
"758 581 OFFCURVE",
"729 568 QCURVE",
"683 546 LINE",
"687 294 LINE",
"691 51 OFFCURVE",
"671 1 QCURVE",
"654 -39 OFFCURVE",
"614 3 QCURVE",
"593 25 OFFCURVE",
"561 73 QCURVE",
"426 268 LINE",
"353 370 OFFCURVE",
"299 461 QCURVE",
"241 560 OFFCURVE",
"223 561 QCURVE",
"210 561 OFFCURVE",
"209 523 QCURVE",
"209 501 OFFCURVE",
"213 463 QCURVE",
"221 355 OFFCURVE",
"229 231 QCURVE",
"233 179 OFFCURVE",
"247 74 OFFCURVE",
"254 51 QCURVE",
"263 20 OFFCURVE",
"263 -13 OFFCURVE",
"254 -21 QCURVE",
"239 -35 OFFCURVE",
"170 -36 OFFCURVE",
"100 -18 OFFCURVE",
"46 17 OFFCURVE",
"46 34 QCURVE",
"46 48 OFFCURVE",
"71 53 OFFCURVE",
"112 47 QCURVE",
"178 38 LINE",
"178 131 LINE",
"178 169 OFFCURVE",
"163 316 OFFCURVE",
"152 381 QCURVE",
"126 538 LINE",
"79 529 LINE",
"51 524 OFFCURVE",
"27 531 OFFCURVE",
"21 546 QCURVE",
"11 572 OFFCURVE",
"63 614 OFFCURVE",
"121 625 QCURVE"
);
}
);
width = 795;
}
);
unicode = 004E;
},
{
color = 0;
glyphname = Ntilde;
lastChange = "2018-05-20 14:18:03 +0000";
layers = (
{
background = {
paths = (
{
closed = 1;
nodes = (
"568 676 OFFCURVE",
"643 672 OFFCURVE",
"712 650 OFFCURVE",
"771 608 OFFCURVE",
"786 582 QCURVE",
"809 542 OFFCURVE",
"781 526 OFFCURVE",
"741 556 QCURVE",
"697 588 LINE",
"706 479 LINE",
"712 418 OFFCURVE",
"697 291 OFFCURVE",
"664 194 OFFCURVE",
"614 133 OFFCURVE",
"588 133 QCURVE",
"547 133 OFFCURVE",
"386 269 OFFCURVE",
"298 380 QCURVE",
"259 427 OFFCURVE",
"258 424 QCURVE",
"256 418 OFFCURVE",
"256 117 OFFCURVE",
"258 84 QCURVE",
"258 58 OFFCURVE",
"274 44 OFFCURVE",
"303 44 QCURVE",
"342 44 OFFCURVE",
"347 28 QCURVE",
"351 14 OFFCURVE",
"326 3 QCURVE",
"314 -2 OFFCURVE",
"300 -4 QCURVE",
"251 -13 OFFCURVE",
"169 -23 QCURVE",
"144 -25 OFFCURVE",
"118 -27 OFFCURVE",
"96 -26 OFFCURVE",
"88 -19 OFFCURVE",
"81 -9 OFFCURVE",
"79 2 QCURVE",
"70 37 OFFCURVE",
"92 59 OFFCURVE",
"136 59 QCURVE",
"186 59 LINE",
"186 257 LINE",
"186 294 OFFCURVE",
"185 351 OFFCURVE",
"183 403 OFFCURVE",
"179 440 OFFCURVE",
"174 473 OFFCURVE",
"167 494 OFFCURVE",
"157 511 OFFCURVE",
"145 519 OFFCURVE",
"129 523 OFFCURVE",
"112 523 OFFCURVE",
"101 520 QCURVE",
"53 511 OFFCURVE",
"9 543 OFFCURVE",
"26 573 QCURVE",
"35 590 OFFCURVE",
"76 601 OFFCURVE",
"131 601 QCURVE",
"222 601 LINE",
"302 496 LINE",
"377 396 OFFCURVE",
"550 220 OFFCURVE",
"573 220 QCURVE",
"593 220 OFFCURVE",
"625 279 OFFCURVE",
"639 344 QCURVE",
"654 409 OFFCURVE",
"637 534 OFFCURVE",
"609 569 QCURVE",
"581 604 LINE",
"543 574 LINE",
"504 544 OFFCURVE",
"464 546 OFFCURVE",
"464 578 QCURVE",
"464 603 OFFCURVE",
"506 653 OFFCURVE",
"537 664 QCURVE"
);
},
{
closed = 1;
nodes = (
"569 876 OFFCURVE",
"586 868 QCURVE",
"602 859 OFFCURVE",
"591 818 QCURVE",
"586 799 OFFCURVE",
"574 777 QCURVE",
"565 759 OFFCURVE",
"529 728 OFFCURVE",
"492 711 OFFCURVE",
"455 706 OFFCURVE",
"445 715 QCURVE",
"409 743 OFFCURVE",
"349 742 OFFCURVE",
"318 712 QCURVE",
"283 678 OFFCURVE",
"229 682 OFFCURVE",
"229 718 QCURVE",
"229 736 OFFCURVE",
"284 785 OFFCURVE",
"361 821 OFFCURVE",
"389 821 QCURVE",
"433 821 OFFCURVE",
"471 807 QCURVE",
"494 798 OFFCURVE",
"519 808 OFFCURVE",
"539 835 QCURVE"
);
}
);
};
layerId = "523CE715-D489-4446-A5DE-4E6CA80777EE";
paths = (
{
closed = 1;
nodes = (
"568 676 OFFCURVE",
"643 672 OFFCURVE",
"712 650 OFFCURVE",
"771 608 OFFCURVE",
"786 582 QCURVE",
"809 542 OFFCURVE",
"781 526 OFFCURVE",
"741 556 QCURVE",
"697 588 LINE",
"706 479 LINE",
"712 418 OFFCURVE",
"697 291 OFFCURVE",
"664 194 OFFCURVE",
"614 133 OFFCURVE",
"588 133 QCURVE",
"547 133 OFFCURVE",
"386 269 OFFCURVE",
"298 380 QCURVE",
"259 427 OFFCURVE",
"258 424 QCURVE",
"256 418 OFFCURVE",
"256 117 OFFCURVE",
"258 84 QCURVE",
"258 58 OFFCURVE",
"274 44 OFFCURVE",
"303 44 QCURVE",
"342 44 OFFCURVE",
"347 28 QCURVE",
"351 14 OFFCURVE",
"326 3 QCURVE",
"314 -2 OFFCURVE",
"300 -4 QCURVE",
"251 -13 OFFCURVE",
"169 -23 QCURVE",
"144 -25 OFFCURVE",
"118 -27 OFFCURVE",
"96 -26 OFFCURVE",
"88 -19 OFFCURVE",
"81 -9 OFFCURVE",
"79 2 QCURVE",
"70 37 OFFCURVE",
"92 59 OFFCURVE",
"136 59 QCURVE",
"186 59 LINE",
"186 257 LINE",
"186 294 OFFCURVE",
"185 351 OFFCURVE",
"183 403 OFFCURVE",
"179 440 OFFCURVE",
"174 473 OFFCURVE",
"167 494 OFFCURVE",
"157 511 OFFCURVE",
"145 519 OFFCURVE",
"129 523 OFFCURVE",
"112 523 OFFCURVE",
"101 520 QCURVE",
"53 511 OFFCURVE",
"9 543 OFFCURVE",
"26 573 QCURVE",
"35 590 OFFCURVE",
"76 601 OFFCURVE",
"131 601 QCURVE",
"222 601 LINE",
"302 496 LINE",
"377 396 OFFCURVE",
"550 220 OFFCURVE",
"573 220 QCURVE",
"593 220 OFFCURVE",
"625 279 OFFCURVE",
"639 344 QCURVE",
"654 409 OFFCURVE",
"637 534 OFFCURVE",
"609 569 QCURVE",
"581 604 LINE",
"543 574 LINE",
"504 544 OFFCURVE",
"464 546 OFFCURVE",
"464 578 QCURVE",
"464 603 OFFCURVE",
"506 653 OFFCURVE",
"537 664 QCURVE"
);
},
{
closed = 1;
nodes = (
"569 876 OFFCURVE",
"586 868 QCURVE",
"602 859 OFFCURVE",
"591 818 QCURVE",
"586 799 OFFCURVE",
"574 777 QCURVE",
"565 759 OFFCURVE",
"529 728 OFFCURVE",
"492 711 OFFCURVE",
"455 706 OFFCURVE",
"445 715 QCURVE",
"409 743 OFFCURVE",
"349 742 OFFCURVE",
"318 712 QCURVE",
"283 678 OFFCURVE",
"229 682 OFFCURVE",
"229 718 QCURVE",
"229 736 OFFCURVE",
"284 785 OFFCURVE",
"361 821 OFFCURVE",
"389 821 QCURVE",
"433 821 OFFCURVE",
"471 807 QCURVE",
"494 798 OFFCURVE",
"519 808 OFFCURVE",
"539 835 QCURVE"
);
}
);
width = 819;
}
);
unicode = 00D1;
},
{
color = 0;
glyphname = O;
lastChange = "2018-05-20 14:18:03 +0000";
layers = (
{
background = {
paths = (
{
closed = 1;
nodes = (
"316 519 OFFCURVE",
"421 492 OFFCURVE",
"438 438 QCURVE",
"453 389 OFFCURVE",
"480 313 QCURVE",
"509 231 OFFCURVE",
"489 123 OFFCURVE",
"432 66 QCURVE",
"343 -24 OFFCURVE",
"187 -23 OFFCURVE",
"104 67 QCURVE",
"46 131 OFFCURVE",
"10 253 OFFCURVE",
"28 331 QCURVE",
"43 401 OFFCURVE",
"131 483 OFFCURVE",
"206 498 QCURVE"
);
},
{
closed = 1;
nodes = (
"383 381 OFFCURVE",
"374 400 OFFCURVE",
"358 421 OFFCURVE",
"349 427 OFFCURVE",
"326 434 OFFCURVE",
"306 436 OFFCURVE",
"285 436 QCURVE",
"142 443 OFFCURVE",
"96 348 QCURVE",
"73 298 OFFCURVE",
"76 223 OFFCURVE",
"104 177 QCURVE",
"156 91 OFFCURVE",
"263 43 OFFCURVE",
"329 75 QCURVE",
"418 118 OFFCURVE",
"447 248 OFFCURVE",
"393 360 QCURVE"
);
}
);
};
layerId = "523CE715-D489-4446-A5DE-4E6CA80777EE";
paths = (
{
closed = 1;
nodes = (
"316 519 OFFCURVE",
"421 492 OFFCURVE",
"438 438 QCURVE",
"453 389 OFFCURVE",
"480 313 QCURVE",
"509 231 OFFCURVE",
"489 123 OFFCURVE",
"432 66 QCURVE",
"343 -24 OFFCURVE",
"187 -23 OFFCURVE",
"104 67 QCURVE",
"46 131 OFFCURVE",
"10 253 OFFCURVE",
"28 331 QCURVE",
"43 401 OFFCURVE",
"131 483 OFFCURVE",
"206 498 QCURVE"
);
},
{
closed = 1;
nodes = (
"383 381 OFFCURVE",
"374 400 OFFCURVE",
"358 421 OFFCURVE",
"349 427 OFFCURVE",
"326 434 OFFCURVE",
"306 436 OFFCURVE",
"285 436 QCURVE",
"142 443 OFFCURVE",
"96 348 QCURVE",
"73 298 OFFCURVE",
"76 223 OFFCURVE",
"104 177 QCURVE",
"156 91 OFFCURVE",
"263 43 OFFCURVE",
"329 75 QCURVE",
"418 118 OFFCURVE",
"447 248 OFFCURVE",
"393 360 QCURVE"
);
}
);
width = 521;
}
);
unicode = 004F;
},
{
color = 0;
glyphname = Oacute;
lastChange = "2018-05-20 14:18:03 +0000";
layers = (
{
background = {
paths = (
{
closed = 1;
nodes = (
"199 580 OFFCURVE",
"241 603 OFFCURVE",
"283 603 QCURVE",
"308 603 OFFCURVE",
"363 594 OFFCURVE",
"376 587 QCURVE",
"393 578 OFFCURVE",
"411 578 OFFCURVE",
"418 588 QCURVE",
"437 620 OFFCURVE",
"463 574 QCURVE",
"497 514 OFFCURVE",
"512 393 QCURVE",
"516 353 OFFCURVE",
"518 314 QCURVE",
"522 204 OFFCURVE",
"399 29 OFFCURVE",
"297 2 QCURVE",
"251 -9 OFFCURVE",
"170 -4 OFFCURVE",
"101 33 OFFCURVE",
"49 89 OFFCURVE",
"19 170 OFFCURVE",
"19 216 QCURVE",
"18 290 OFFCURVE",
"94 471 OFFCURVE",
"154 533 QCURVE"
);
},
{
closed = 1;
nodes = (
"382 513 OFFCURVE",
"263 529 OFFCURVE",
"234 516 QCURVE",
"208 506 OFFCURVE",
"158 449 OFFCURVE",
"119 375 OFFCURVE",
"92 290 OFFCURVE",
"87 212 OFFCURVE",
"94 178 QCURVE",
"105 138 OFFCURVE",
"134 107 OFFCURVE",
"177 88 QCURVE",
"257 53 OFFCURVE",
"388 108 OFFCURVE",
"434 196 QCURVE",
"453 234 OFFCURVE",
"460 293 OFFCURVE",
"454 364 QCURVE",
"448 429 OFFCURVE",
"431 481 OFFCURVE",
"413 493 QCURVE"
);
},
{
closed = 1;
nodes = (
"483 851 OFFCURVE",
"493 851 QCURVE",
"516 852 OFFCURVE",
"507 831 QCURVE",
"496 805 OFFCURVE",
"433 738 QCURVE",
"298 594 OFFCURVE",
"302 678 QCURVE",
"302 682 OFFCURVE",
"303 686 QCURVE",
"305 708 OFFCURVE",
"346 754 OFFCURVE",
"395 788 QCURVE"
);
}
);
};
layerId = "523CE715-D489-4446-A5DE-4E6CA80777EE";
paths = (
{
closed = 1;
nodes = (
"199 580 OFFCURVE",
"241 603 OFFCURVE",
"283 603 QCURVE",
"308 603 OFFCURVE",
"363 594 OFFCURVE",
"376 587 QCURVE",
"393 578 OFFCURVE",
"411 578 OFFCURVE",
"418 588 QCURVE",
"437 620 OFFCURVE",
"463 574 QCURVE",
"497 514 OFFCURVE",
"512 393 QCURVE",
"516 353 OFFCURVE",
"518 314 QCURVE",
"522 204 OFFCURVE",
"399 29 OFFCURVE",
"297 2 QCURVE",
"251 -9 OFFCURVE",
"170 -4 OFFCURVE",
"101 33 OFFCURVE",
"49 89 OFFCURVE",
"19 170 OFFCURVE",
"19 216 QCURVE",
"18 290 OFFCURVE",
"94 471 OFFCURVE",
"154 533 QCURVE"
);
},
{
closed = 1;
nodes = (
"382 513 OFFCURVE",
"263 529 OFFCURVE",
"234 516 QCURVE",
"208 506 OFFCURVE",
"158 449 OFFCURVE",
"119 375 OFFCURVE",
"92 290 OFFCURVE",
"87 212 OFFCURVE",
"94 178 QCURVE",
"105 138 OFFCURVE",
"134 107 OFFCURVE",
"177 88 QCURVE",
"257 53 OFFCURVE",
"388 108 OFFCURVE",
"434 196 QCURVE",
"453 234 OFFCURVE",
"460 293 OFFCURVE",
"454 364 QCURVE",
"448 429 OFFCURVE",
"431 481 OFFCURVE",
"413 493 QCURVE"
);
},
{
closed = 1;
nodes = (
"483 851 OFFCURVE",
"493 851 QCURVE",
"516 852 OFFCURVE",
"507 831 QCURVE",
"496 805 OFFCURVE",
"433 738 QCURVE",
"298 594 OFFCURVE",
"302 678 QCURVE",
"302 682 OFFCURVE",
"303 686 QCURVE",
"305 708 OFFCURVE",
"346 754 OFFCURVE",
"395 788 QCURVE"
);
}
);
width = 537;
}
);
unicode = 00D3;
},
{
color = 0;
glyphname = Odieresis;
lastChange = "2018-05-20 14:18:03 +0000";
layers = (
{
background = {
paths = (
{
closed = 1;
nodes = (
"196 545 OFFCURVE",
"289 556 OFFCURVE",
"365 521 OFFCURVE",
"382 486 QCURVE",
"451 341 LINE",
"475 291 OFFCURVE",
"491 247 OFFCURVE",
"490 213 OFFCURVE",
"481 182 QCURVE",
"448 70 OFFCURVE",
"316 -28 OFFCURVE",
"212 -17 QCURVE",
"156 -11 OFFCURVE",
"84 18 OFFCURVE",
"38 77 OFFCURVE",
"19 164 OFFCURVE",
"19 230 QCURVE",
"19 304 OFFCURVE",
"33 366 OFFCURVE",
"63 413 QCURVE",
"81 443 OFFCURVE",
"136 504 OFFCURVE",
"156 518 QCURVE"
);
},
{
closed = 1;
nodes = (
"296 477 OFFCURVE",
"253 479 OFFCURVE",
"206 461 OFFCURVE",
"160 430 OFFCURVE",
"119 385 OFFCURVE",
"106 359 QCURVE",
"89 326 OFFCURVE",
"83 214 OFFCURVE",
"94 156 QCURVE",
"104 103 OFFCURVE",
"197 51 OFFCURVE",
"266 59 QCURVE",
"329 65 OFFCURVE",
"392 115 OFFCURVE",
"409 173 QCURVE",
"421 209 OFFCURVE",
"417 258 OFFCURVE",
"399 306 QCURVE",
"378 366 OFFCURVE",
"330 453 OFFCURVE",
"311 466 QCURVE"
);
},
{
closed = 1;
nodes = (
"138 658 OFFCURVE",
"190 646 OFFCURVE",
"201 626 QCURVE",
"210 609 OFFCURVE",
"204 584 OFFCURVE",
"188 564 QCURVE",
"170 542 OFFCURVE",
"153 538 OFFCURVE",
"137 550 QCURVE",
"119 565 OFFCURVE",
"110 631 OFFCURVE",
"124 644 QCURVE"
);
},
{
closed = 1;
nodes = (
"376 665 OFFCURVE",
"424 663 OFFCURVE",
"441 636 QCURVE",
"455 614 OFFCURVE",
"419 566 OFFCURVE",
"389 566 QCURVE",
"362 566 OFFCURVE",
"346 609 OFFCURVE",
"363 639 QCURVE"
);
}
);
};
layerId = "523CE715-D489-4446-A5DE-4E6CA80777EE";
paths = (
{
closed = 1;
nodes = (
"196 545 OFFCURVE",
"289 556 OFFCURVE",
"365 521 OFFCURVE",
"382 486 QCURVE",
"451 341 LINE",
"475 291 OFFCURVE",
"491 247 OFFCURVE",
"490 213 OFFCURVE",
"481 182 QCURVE",
"448 70 OFFCURVE",
"316 -28 OFFCURVE",
"212 -17 QCURVE",
"156 -11 OFFCURVE",
"84 18 OFFCURVE",
"38 77 OFFCURVE",
"19 164 OFFCURVE",
"19 230 QCURVE",
"19 304 OFFCURVE",
"33 366 OFFCURVE",
"63 413 QCURVE",
"81 443 OFFCURVE",
"136 504 OFFCURVE",
"156 518 QCURVE"
);
},
{
closed = 1;
nodes = (
"296 477 OFFCURVE",
"253 479 OFFCURVE",
"206 461 OFFCURVE",
"160 430 OFFCURVE",
"119 385 OFFCURVE",
"106 359 QCURVE",
"89 326 OFFCURVE",
"83 214 OFFCURVE",
"94 156 QCURVE",
"104 103 OFFCURVE",
"197 51 OFFCURVE",
"266 59 QCURVE",
"329 65 OFFCURVE",
"392 115 OFFCURVE",
"409 173 QCURVE",
"421 209 OFFCURVE",
"417 258 OFFCURVE",
"399 306 QCURVE",
"378 366 OFFCURVE",
"330 453 OFFCURVE",
"311 466 QCURVE"
);
},
{
closed = 1;
nodes = (
"138 658 OFFCURVE",
"190 646 OFFCURVE",
"201 626 QCURVE",
"210 609 OFFCURVE",
"204 584 OFFCURVE",
"188 564 QCURVE",
"170 542 OFFCURVE",
"153 538 OFFCURVE",
"137 550 QCURVE",
"119 565 OFFCURVE",
"110 631 OFFCURVE",
"124 644 QCURVE"
);
},
{
closed = 1;
nodes = (
"376 665 OFFCURVE",
"424 663 OFFCURVE",
"441 636 QCURVE",
"455 614 OFFCURVE",
"419 566 OFFCURVE",
"389 566 QCURVE",
"362 566 OFFCURVE",
"346 609 OFFCURVE",
"363 639 QCURVE"
);
}
);
width = 509;
}
);
unicode = 00D6;
},
{
color = 0;
glyphname = Oslash;
lastChange = "2018-05-20 14:18:03 +0000";
layers = (
{
background = {
paths = (
{
closed = 1;
nodes = (
"216 515 OFFCURVE",
"268 526 OFFCURVE",
"296 522 QCURVE",
"348 514 OFFCURVE",
"413 513 OFFCURVE",
"413 484 QCURVE",
"413 472 OFFCURVE",
"426 443 OFFCURVE",
"436 433 QCURVE",
"473 396 OFFCURVE",
"428 242 OFFCURVE",
"356 161 QCURVE",
"307 106 OFFCURVE",
"201 56 OFFCURVE",
"153 66 QCURVE",
"113 73 OFFCURVE",
"88 51 QCURVE",
"78 43 OFFCURVE",
"50 34 OFFCURVE",
"41 38 QCURVE",
"29 42 OFFCURVE",
"17 80 OFFCURVE",
"22 120 OFFCURVE",
"33 127 QCURVE",
"48 136 OFFCURVE",
"31 167 QCURVE",
"24 179 OFFCURVE",
"19 244 OFFCURVE",
"21 277 QCURVE",
"33 420 OFFCURVE",
"181 497 QCURVE"
);
},
{
closed = 1;
nodes = (
"311 441 OFFCURVE",
"268 444 OFFCURVE",
"206 429 OFFCURVE",
"181 416 QCURVE",
"153 401 OFFCURVE",
"105 347 OFFCURVE",
"81 289 OFFCURVE",
"76 231 OFFCURVE",
"89 211 QCURVE",
"99 196 OFFCURVE",
"152 249 QCURVE",
"174 270 OFFCURVE",
"206 305 QCURVE",
"250 353 OFFCURVE",
"311 426 OFFCURVE",
"311 431 QCURVE"
);
},
{
closed = 1;
nodes = (
"384 399 OFFCURVE",
"369 393 QCURVE",
"353 386 OFFCURVE",
"311 328 QCURVE",
"259 259 OFFCURVE",
"211 204 QCURVE",
"161 149 LINE",
"207 149 LINE",
"235 149 OFFCURVE",
"309 202 OFFCURVE",
"368 274 OFFCURVE",
"403 352 OFFCURVE",
"393 375 QCURVE"
);
}
);
};
layerId = "523CE715-D489-4446-A5DE-4E6CA80777EE";
paths = (
{
closed = 1;
nodes = (
"216 515 OFFCURVE",
"268 526 OFFCURVE",
"296 522 QCURVE",
"348 514 OFFCURVE",
"413 513 OFFCURVE",
"413 484 QCURVE",
"413 472 OFFCURVE",
"426 443 OFFCURVE",
"436 433 QCURVE",
"473 396 OFFCURVE",
"428 242 OFFCURVE",
"356 161 QCURVE",
"307 106 OFFCURVE",
"201 56 OFFCURVE",
"153 66 QCURVE",
"113 73 OFFCURVE",
"88 51 QCURVE",
"78 43 OFFCURVE",
"50 34 OFFCURVE",
"41 38 QCURVE",
"29 42 OFFCURVE",
"17 80 OFFCURVE",
"22 120 OFFCURVE",
"33 127 QCURVE",
"48 136 OFFCURVE",
"31 167 QCURVE",
"24 179 OFFCURVE",
"19 244 OFFCURVE",
"21 277 QCURVE",
"33 420 OFFCURVE",
"181 497 QCURVE"
);
},
{
closed = 1;
nodes = (
"311 441 OFFCURVE",
"268 444 OFFCURVE",
"206 429 OFFCURVE",
"181 416 QCURVE",
"153 401 OFFCURVE",
"105 347 OFFCURVE",
"81 289 OFFCURVE",
"76 231 OFFCURVE",
"89 211 QCURVE",
"99 196 OFFCURVE",
"152 249 QCURVE",
"174 270 OFFCURVE",
"206 305 QCURVE",
"250 353 OFFCURVE",
"311 426 OFFCURVE",
"311 431 QCURVE"
);
},
{
closed = 1;
nodes = (
"384 399 OFFCURVE",
"369 393 QCURVE",
"353 386 OFFCURVE",
"311 328 QCURVE",
"259 259 OFFCURVE",
"211 204 QCURVE",
"161 149 LINE",
"207 149 LINE",
"235 149 OFFCURVE",
"309 202 OFFCURVE",
"368 274 OFFCURVE",
"403 352 OFFCURVE",
"393 375 QCURVE"
);
}
);
width = 478;
}
);
unicode = 00D8;
},
{
color = 0;
glyphname = P;
lastChange = "2018-05-20 14:18:03 +0000";
layers = (
{
background = {
paths = (
{
closed = 1;
nodes = (
"213 701 OFFCURVE",
"268 701 OFFCURVE",
"295 698 QCURVE",
"345 692 OFFCURVE",
"427 661 OFFCURVE",
"481 615 OFFCURVE",
"510 557 OFFCURVE",
"511 495 OFFCURVE",
"479 427 OFFCURVE",
"448 396 QCURVE",
"409 358 OFFCURVE",
"336 319 OFFCURVE",
"276 306 QCURVE",
"254 301 OFFCURVE",
"238 285 OFFCURVE",
"242 271 QCURVE",
"248 246 OFFCURVE",
"258 151 QCURVE",
"268 54 LINE",
"333 37 LINE",
"359 30 OFFCURVE",
"398 8 OFFCURVE",
"398 1 QCURVE",
"398 -13 OFFCURVE",
"271 -20 OFFCURVE",
"136 -4 OFFCURVE",
"128 9 QCURVE",
"113 33 OFFCURVE",
"138 78 OFFCURVE",
"165 78 QCURVE",
"183 78 OFFCURVE",
"187 86 QCURVE",
"194 99 OFFCURVE",
"189 184 QCURVE",
"188 200 OFFCURVE",
"186 236 QCURVE",
"175 393 OFFCURVE",
"165 484 QCURVE",
"159 535 OFFCURVE",
"163 583 OFFCURVE",
"174 593 QCURVE",
"214 626 OFFCURVE",
"221 546 QCURVE",
"222 531 OFFCURVE",
"222 510 QCURVE",
"222 481 OFFCURVE",
"224 444 OFFCURVE",
"229 414 OFFCURVE",
"238 399 OFFCURVE",
"254 389 OFFCURVE",
"274 386 OFFCURVE",
"291 386 QCURVE",
"319 386 OFFCURVE",
"364 408 OFFCURVE",
"392 436 QCURVE",
"439 483 OFFCURVE",
"446 563 OFFCURVE",
"366 613 OFFCURVE",
"289 618 QCURVE",
"244 621 OFFCURVE",
"151 605 OFFCURVE",
"90 576 OFFCURVE",
"90 560 QCURVE",
"90 554 OFFCURVE",
"68 547 OFFCURVE",
"53 547 QCURVE",
"29 547 OFFCURVE",
"17 560 OFFCURVE",
"20 586 QCURVE",
"22 602 OFFCURVE",
"37 631 OFFCURVE",
"46 636 QCURVE",
"78 652 OFFCURVE",
"178 692 OFFCURVE",
"200 698 QCURVE"
);
}
);
};
layerId = "523CE715-D489-4446-A5DE-4E6CA80777EE";
paths = (
{
closed = 1;
nodes = (
"213 701 OFFCURVE",
"268 701 OFFCURVE",
"295 698 QCURVE",
"345 692 OFFCURVE",
"427 661 OFFCURVE",
"481 615 OFFCURVE",
"510 557 OFFCURVE",
"511 495 OFFCURVE",
"479 427 OFFCURVE",
"448 396 QCURVE",
"409 358 OFFCURVE",
"336 319 OFFCURVE",
"276 306 QCURVE",
"254 301 OFFCURVE",
"238 285 OFFCURVE",
"242 271 QCURVE",
"248 246 OFFCURVE",
"258 151 QCURVE",
"268 54 LINE",
"333 37 LINE",
"359 30 OFFCURVE",
"398 8 OFFCURVE",
"398 1 QCURVE",
"398 -13 OFFCURVE",
"271 -20 OFFCURVE",
"136 -4 OFFCURVE",
"128 9 QCURVE",
"113 33 OFFCURVE",
"138 78 OFFCURVE",
"165 78 QCURVE",
"183 78 OFFCURVE",
"187 86 QCURVE",
"194 99 OFFCURVE",
"189 184 QCURVE",
"188 200 OFFCURVE",
"186 236 QCURVE",
"175 393 OFFCURVE",
"165 484 QCURVE",
"159 535 OFFCURVE",
"163 583 OFFCURVE",
"174 593 QCURVE",
"214 626 OFFCURVE",
"221 546 QCURVE",
"222 531 OFFCURVE",
"222 510 QCURVE",
"222 481 OFFCURVE",
"224 444 OFFCURVE",
"229 414 OFFCURVE",
"238 399 OFFCURVE",
"254 389 OFFCURVE",
"274 386 OFFCURVE",
"291 386 QCURVE",
"319 386 OFFCURVE",
"364 408 OFFCURVE",
"392 436 QCURVE",
"439 483 OFFCURVE",
"446 563 OFFCURVE",
"366 613 OFFCURVE",
"289 618 QCURVE",
"244 621 OFFCURVE",
"151 605 OFFCURVE",
"90 576 OFFCURVE",
"90 560 QCURVE",
"90 554 OFFCURVE",
"68 547 OFFCURVE",
"53 547 QCURVE",
"29 547 OFFCURVE",
"17 560 OFFCURVE",
"20 586 QCURVE",
"22 602 OFFCURVE",
"37 631 OFFCURVE",
"46 636 QCURVE",
"78 652 OFFCURVE",
"178 692 OFFCURVE",
"200 698 QCURVE"
);
}
);
width = 529;
}
);
unicode = 0050;
},
{
color = 0;
glyphname = Q;
lastChange = "2018-05-20 14:18:03 +0000";
layers = (
{
background = {
paths = (
{
closed = 1;
nodes = (
"249 563 OFFCURVE",
"372 569 OFFCURVE",
"411 549 QCURVE",
"435 537 OFFCURVE",
"486 444 OFFCURVE",
"519 324 OFFCURVE",
"519 275 QCURVE",
"519 195 OFFCURVE",
"451 71 OFFCURVE",
"380 21 QCURVE",
"363 8 OFFCURVE",
"353 -6 OFFCURVE",
"358 -23 OFFCURVE",
"369 -44 QCURVE",
"381 -65 OFFCURVE",
"413 -86 OFFCURVE",
"437 -88 QCURVE",
"466 -91 OFFCURVE",
"490 -76 OFFCURVE",
"502 -49 QCURVE",
"521 -5 OFFCURVE",
"544 -7 OFFCURVE",
"544 -52 QCURVE",
"544 -123 OFFCURVE",
"447 -188 OFFCURVE",
"376 -164 QCURVE",
"340 -153 OFFCURVE",
"301 -94 OFFCURVE",
"293 -40 QCURVE",
"290 -23 OFFCURVE",
"261 -7 OFFCURVE",
"225 -3 QCURVE",
"134 10 OFFCURVE",
"29 132 OFFCURVE",
"21 236 QCURVE",
"17 293 OFFCURVE",
"26 351 OFFCURVE",
"44 386 QCURVE",
"80 453 OFFCURVE",
"139 514 OFFCURVE",
"193 538 QCURVE"
);
},
{
closed = 1;
nodes = (
"356 479 OFFCURVE",
"319 508 OFFCURVE",
"314 508 QCURVE",
"248 499 OFFCURVE",
"148 441 OFFCURVE",
"92 353 OFFCURVE",
"78 238 OFFCURVE",
"99 174 QCURVE",
"105 155 OFFCURVE",
"141 199 QCURVE",
"157 217 OFFCURVE",
"204 252 OFFCURVE",
"223 258 QCURVE",
"251 268 OFFCURVE",
"278 263 OFFCURVE",
"296 245 QCURVE",
"308 234 OFFCURVE",
"324 197 OFFCURVE",
"324 183 QCURVE",
"324 151 OFFCURVE",
"333 118 QCURVE",
"339 97 OFFCURVE",
"352 90 OFFCURVE",
"370 99 QCURVE",
"410 121 OFFCURVE",
"454 211 OFFCURVE",
"456 314 OFFCURVE",
"416 421 OFFCURVE",
"377 459 QCURVE"
);
},
{
closed = 1;
nodes = (
"249 143 OFFCURVE",
"246 151 OFFCURVE",
"240 163 OFFCURVE",
"238 166 OFFCURVE",
"231 169 OFFCURVE",
"228 168 OFFCURVE",
"218 165 OFFCURVE",
"212 161 OFFCURVE",
"204 157 QCURVE",
"177 141 OFFCURVE",
"184 87 OFFCURVE",
"216 72 QCURVE",
"249 57 OFFCURVE",
"269 89 OFFCURVE",
"253 133 QCURVE"
);
}
);
};
layerId = "523CE715-D489-4446-A5DE-4E6CA80777EE";
paths = (
{
closed = 1;
nodes = (
"249 563 OFFCURVE",
"372 569 OFFCURVE",
"411 549 QCURVE",
"435 537 OFFCURVE",
"486 444 OFFCURVE",
"519 324 OFFCURVE",
"519 275 QCURVE",
"519 195 OFFCURVE",
"451 71 OFFCURVE",
"380 21 QCURVE",
"363 8 OFFCURVE",
"353 -6 OFFCURVE",
"358 -23 OFFCURVE",
"369 -44 QCURVE",
"381 -65 OFFCURVE",
"413 -86 OFFCURVE",
"437 -88 QCURVE",
"466 -91 OFFCURVE",
"490 -76 OFFCURVE",
"502 -49 QCURVE",
"521 -5 OFFCURVE",
"544 -7 OFFCURVE",
"544 -52 QCURVE",
"544 -123 OFFCURVE",
"447 -188 OFFCURVE",
"376 -164 QCURVE",
"340 -153 OFFCURVE",
"301 -94 OFFCURVE",
"293 -40 QCURVE",
"290 -23 OFFCURVE",
"261 -7 OFFCURVE",
"225 -3 QCURVE",
"134 10 OFFCURVE",
"29 132 OFFCURVE",
"21 236 QCURVE",
"17 293 OFFCURVE",
"26 351 OFFCURVE",
"44 386 QCURVE",
"80 453 OFFCURVE",
"139 514 OFFCURVE",
"193 538 QCURVE"
);
},
{
closed = 1;
nodes = (
"356 479 OFFCURVE",
"319 508 OFFCURVE",
"314 508 QCURVE",
"248 499 OFFCURVE",
"148 441 OFFCURVE",
"92 353 OFFCURVE",
"78 238 OFFCURVE",
"99 174 QCURVE",
"105 155 OFFCURVE",
"141 199 QCURVE",
"157 217 OFFCURVE",
"204 252 OFFCURVE",
"223 258 QCURVE",
"251 268 OFFCURVE",
"278 263 OFFCURVE",
"296 245 QCURVE",
"308 234 OFFCURVE",
"324 197 OFFCURVE",
"324 183 QCURVE",
"324 151 OFFCURVE",
"333 118 QCURVE",
"339 97 OFFCURVE",
"352 90 OFFCURVE",
"370 99 QCURVE",
"410 121 OFFCURVE",
"454 211 OFFCURVE",
"456 314 OFFCURVE",
"416 421 OFFCURVE",
"377 459 QCURVE"
);
},
{
closed = 1;
nodes = (
"249 143 OFFCURVE",
"246 151 OFFCURVE",
"240 163 OFFCURVE",
"238 166 OFFCURVE",
"231 169 OFFCURVE",
"228 168 OFFCURVE",
"218 165 OFFCURVE",
"212 161 OFFCURVE",
"204 157 QCURVE",
"177 141 OFFCURVE",
"184 87 OFFCURVE",
"216 72 QCURVE",
"249 57 OFFCURVE",
"269 89 OFFCURVE",
"253 133 QCURVE"
);
}
);
width = 563;
}
);
unicode = 0051;
},
{
color = 0;
glyphname = R;
lastChange = "2018-05-20 14:18:03 +0000";
layers = (
{
background = {
paths = (
{
closed = 1;
nodes = (
"254 724 OFFCURVE",
"431 580 QCURVE",
"459 558 OFFCURVE",
"474 522 OFFCURVE",
"473 486 QCURVE",
"473 456 OFFCURVE",
"439 372 OFFCURVE",
"392 306 OFFCURVE",
"373 298 QCURVE",
"358 293 OFFCURVE",
"428 206 OFFCURVE",
"551 99 OFFCURVE",
"606 64 QCURVE",
"641 42 OFFCURVE",
"688 1 OFFCURVE",
"683 -12 OFFCURVE",
"641 -26 OFFCURVE",
"614 -30 QCURVE",
"550 -39 OFFCURVE",
"512 -49 QCURVE",
"491 -56 OFFCURVE",
"461 -47 OFFCURVE",
"445 -29 OFFCURVE",
"449 0 OFFCURVE",
"462 14 QCURVE",
"469 23 OFFCURVE",
"475 33 OFFCURVE",
"477 44 OFFCURVE",
"464 59 OFFCURVE",
"449 78 OFFCURVE",
"431 94 QCURVE",
"374 152 OFFCURVE",
"258 250 OFFCURVE",
"247 250 QCURVE",
"236 250 OFFCURVE",
"234 169 OFFCURVE",
"244 123 QCURVE",
"253 80 OFFCURVE",
"295 64 QCURVE",
"324 53 OFFCURVE",
"343 30 OFFCURVE",
"316 15 OFFCURVE",
"284 15 QCURVE",
"261 14 OFFCURVE",
"211 7 OFFCURVE",
"199 3 QCURVE",
"164 -12 OFFCURVE",
"118 9 OFFCURVE",
"118 40 QCURVE",
"118 77 OFFCURVE",
"149 85 QCURVE",
"166 89 OFFCURVE",
"171 99 QCURVE",
"179 118 OFFCURVE",
"177 225 QCURVE",
"176 256 OFFCURVE",
"174 333 QCURVE",
"169 478 OFFCURVE",
"174 572 OFFCURVE",
"186 572 QCURVE",
"208 572 OFFCURVE",
"235 503 OFFCURVE",
"235 444 QCURVE",
"235 415 OFFCURVE",
"246 363 OFFCURVE",
"253 355 QCURVE",
"268 340 OFFCURVE",
"307 336 OFFCURVE",
"344 356 OFFCURVE",
"377 389 OFFCURVE",
"396 439 OFFCURVE",
"396 465 QCURVE",
"396 504 OFFCURVE",
"379 532 OFFCURVE",
"342 553 QCURVE",
"313 569 OFFCURVE",
"271 589 OFFCURVE",
"227 598 OFFCURVE",
"193 594 OFFCURVE",
"148 576 OFFCURVE",
"103 548 OFFCURVE",
"71 524 QCURVE",
"57 514 OFFCURVE",
"39 513 OFFCURVE",
"30 522 QCURVE",
"9 544 OFFCURVE",
"45 603 OFFCURVE",
"99 634 QCURVE"
);
}
);
};
layerId = "523CE715-D489-4446-A5DE-4E6CA80777EE";
paths = (
{
closed = 1;
nodes = (
"254 724 OFFCURVE",
"431 580 QCURVE",
"459 558 OFFCURVE",
"474 522 OFFCURVE",
"473 486 QCURVE",
"473 456 OFFCURVE",
"439 372 OFFCURVE",
"392 306 OFFCURVE",
"373 298 QCURVE",
"358 293 OFFCURVE",
"428 206 OFFCURVE",
"551 99 OFFCURVE",
"606 64 QCURVE",
"641 42 OFFCURVE",
"688 1 OFFCURVE",
"683 -12 OFFCURVE",
"641 -26 OFFCURVE",
"614 -30 QCURVE",
"550 -39 OFFCURVE",
"512 -49 QCURVE",
"491 -56 OFFCURVE",
"461 -47 OFFCURVE",
"445 -29 OFFCURVE",
"449 0 OFFCURVE",
"462 14 QCURVE",
"469 23 OFFCURVE",
"475 33 OFFCURVE",
"477 44 OFFCURVE",
"464 59 OFFCURVE",
"449 78 OFFCURVE",
"431 94 QCURVE",
"374 152 OFFCURVE",
"258 250 OFFCURVE",
"247 250 QCURVE",
"236 250 OFFCURVE",
"234 169 OFFCURVE",
"244 123 QCURVE",
"253 80 OFFCURVE",
"295 64 QCURVE",
"324 53 OFFCURVE",
"343 30 OFFCURVE",
"316 15 OFFCURVE",
"284 15 QCURVE",
"261 14 OFFCURVE",
"211 7 OFFCURVE",
"199 3 QCURVE",
"164 -12 OFFCURVE",
"118 9 OFFCURVE",
"118 40 QCURVE",
"118 77 OFFCURVE",
"149 85 QCURVE",
"166 89 OFFCURVE",
"171 99 QCURVE",
"179 118 OFFCURVE",
"177 225 QCURVE",
"176 256 OFFCURVE",
"174 333 QCURVE",
"169 478 OFFCURVE",
"174 572 OFFCURVE",
"186 572 QCURVE",
"208 572 OFFCURVE",
"235 503 OFFCURVE",
"235 444 QCURVE",
"235 415 OFFCURVE",
"246 363 OFFCURVE",
"253 355 QCURVE",
"268 340 OFFCURVE",
"307 336 OFFCURVE",
"344 356 OFFCURVE",
"377 389 OFFCURVE",
"396 439 OFFCURVE",
"396 465 QCURVE",
"396 504 OFFCURVE",
"379 532 OFFCURVE",
"342 553 QCURVE",
"313 569 OFFCURVE",
"271 589 OFFCURVE",
"227 598 OFFCURVE",
"193 594 OFFCURVE",
"148 576 OFFCURVE",
"103 548 OFFCURVE",
"71 524 QCURVE",
"57 514 OFFCURVE",
"39 513 OFFCURVE",
"30 522 QCURVE",
"9 544 OFFCURVE",
"45 603 OFFCURVE",
"99 634 QCURVE"
);
}
);
width = 704;
}
);
unicode = 0052;
},
{
color = 0;
glyphname = S;
lastChange = "2018-05-20 14:18:03 +0000";
layers = (
{
background = {
paths = (
{
closed = 1;
nodes = (
"283 581 OFFCURVE",
"341 594 OFFCURVE",
"413 593 QCURVE",
"458 591 OFFCURVE",
"521 581 OFFCURVE",
"521 574 QCURVE",
"526 538 OFFCURVE",
"511 409 OFFCURVE",
"501 403 QCURVE",
"494 399 OFFCURVE",
"461 430 OFFCURVE",
"443 458 QCURVE",
"419 495 OFFCURVE",
"386 522 OFFCURVE",
"364 522 QCURVE",
"326 522 OFFCURVE",
"240 480 OFFCURVE",
"193 423 OFFCURVE",
"206 403 QCURVE",
"214 389 OFFCURVE",
"313 349 OFFCURVE",
"380 333 QCURVE",
"443 317 OFFCURVE",
"519 255 OFFCURVE",
"519 220 QCURVE",
"519 138 OFFCURVE",
"449 36 OFFCURVE",
"366 -5 QCURVE",
"324 -25 OFFCURVE",
"278 -29 OFFCURVE",
"225 -18 QCURVE",
"146 -1 OFFCURVE",
"96 1 QCURVE",
"82 1 OFFCURVE",
"69 2 OFFCURVE",
"53 9 OFFCURVE",
"48 16 OFFCURVE",
"39 40 OFFCURVE",
"34 63 OFFCURVE",
"29 87 QCURVE",
"19 136 OFFCURVE",
"19 183 OFFCURVE",
"30 197 QCURVE",
"49 223 OFFCURVE",
"72 201 QCURVE",
"94 181 OFFCURVE",
"103 134 QCURVE",
"111 91 OFFCURVE",
"187 53 OFFCURVE",
"266 53 QCURVE",
"325 53 OFFCURVE",
"413 95 OFFCURVE",
"447 166 OFFCURVE",
"432 206 QCURVE",
"428 216 OFFCURVE",
"423 227 OFFCURVE",
"408 239 OFFCURVE",
"395 246 OFFCURVE",
"359 257 OFFCURVE",
"324 265 OFFCURVE",
"288 273 QCURVE",
"216 290 OFFCURVE",
"124 363 OFFCURVE",
"124 403 QCURVE",
"124 443 OFFCURVE",
"179 514 OFFCURVE",
"238 553 QCURVE"
);
}
);
};
layerId = "523CE715-D489-4446-A5DE-4E6CA80777EE";
paths = (
{
closed = 1;
nodes = (
"283 581 OFFCURVE",
"341 594 OFFCURVE",
"413 593 QCURVE",
"458 591 OFFCURVE",
"521 581 OFFCURVE",
"521 574 QCURVE",
"526 538 OFFCURVE",
"511 409 OFFCURVE",
"501 403 QCURVE",
"494 399 OFFCURVE",
"461 430 OFFCURVE",
"443 458 QCURVE",
"419 495 OFFCURVE",
"386 522 OFFCURVE",
"364 522 QCURVE",
"326 522 OFFCURVE",
"240 480 OFFCURVE",
"193 423 OFFCURVE",
"206 403 QCURVE",
"214 389 OFFCURVE",
"313 349 OFFCURVE",
"380 333 QCURVE",
"443 317 OFFCURVE",
"519 255 OFFCURVE",
"519 220 QCURVE",
"519 138 OFFCURVE",
"449 36 OFFCURVE",
"366 -5 QCURVE",
"324 -25 OFFCURVE",
"278 -29 OFFCURVE",
"225 -18 QCURVE",
"146 -1 OFFCURVE",
"96 1 QCURVE",
"82 1 OFFCURVE",
"69 2 OFFCURVE",
"53 9 OFFCURVE",
"48 16 OFFCURVE",
"39 40 OFFCURVE",
"34 63 OFFCURVE",
"29 87 QCURVE",
"19 136 OFFCURVE",
"19 183 OFFCURVE",
"30 197 QCURVE",
"49 223 OFFCURVE",
"72 201 QCURVE",
"94 181 OFFCURVE",
"103 134 QCURVE",
"111 91 OFFCURVE",
"187 53 OFFCURVE",
"266 53 QCURVE",
"325 53 OFFCURVE",
"413 95 OFFCURVE",
"447 166 OFFCURVE",
"432 206 QCURVE",
"428 216 OFFCURVE",
"423 227 OFFCURVE",
"408 239 OFFCURVE",
"395 246 OFFCURVE",
"359 257 OFFCURVE",
"324 265 OFFCURVE",
"288 273 QCURVE",
"216 290 OFFCURVE",
"124 363 OFFCURVE",
"124 403 QCURVE",
"124 443 OFFCURVE",
"179 514 OFFCURVE",
"238 553 QCURVE"
);
}
);
width = 542;
}
);
unicode = 0053;
},
{
color = 0;
glyphname = T;
lastChange = "2018-05-20 15:24:42 +0000";
layers = (
{
background = {
paths = (
{
closed = 1;
nodes = (
"514 763 OFFCURVE",
"641 758 OFFCURVE",
"658 741 QCURVE",
"669 730 OFFCURVE",
"671 633 OFFCURVE",
"655 533 OFFCURVE",
"642 519 QCURVE",
"618 493 OFFCURVE",
"593 514 OFFCURVE",
"601 555 QCURVE",
"604 575 OFFCURVE",
"601 625 OFFCURVE",
"594 643 QCURVE",
"590 653 OFFCURVE",
"585 664 OFFCURVE",
"573 675 OFFCURVE",
"563 679 OFFCURVE",
"536 682 OFFCURVE",
"509 683 OFFCURVE",
"484 683 QCURVE",
"388 683 LINE",
"398 371 LINE",
"408 60 OFFCURVE",
"418 47 OFFCURVE",
"528 46 OFFCURVE",
"532 22 QCURVE",
"534 8 OFFCURVE",
"493 -9 OFFCURVE",
"429 -20 QCURVE",
"386 -28 OFFCURVE",
"288 -35 OFFCURVE",
"264 -33 QCURVE",
"228 -30 OFFCURVE",
"203 -14 OFFCURVE",
"200 8 QCURVE",
"196 39 OFFCURVE",
"234 67 OFFCURVE",
"273 59 QCURVE",
"297 54 OFFCURVE",
"303 60 QCURVE",
"312 68 OFFCURVE",
"318 125 QCURVE",
"319 134 OFFCURVE",
"320 151 QCURVE",
"329 251 OFFCURVE",
"336 284 QCURVE",
"343 319 OFFCURVE",
"303 656 OFFCURVE",
"290 669 QCURVE",
"277 683 OFFCURVE",
"198 668 QCURVE",
"142 658 OFFCURVE",
"93 625 OFFCURVE",
"105 606 QCURVE",
"110 595 OFFCURVE",
"104 564 OFFCURVE",
"83 536 OFFCURVE",
"72 536 QCURVE",
"64 536 OFFCURVE",
"47 560 OFFCURVE",
"43 576 QCURVE",
"35 617 OFFCURVE",
"23 639 QCURVE",
"18 649 OFFCURVE",
"21 682 OFFCURVE",
"29 697 QCURVE",
"39 716 OFFCURVE",
"46 721 QCURVE",
"63 733 OFFCURVE",
"150 739 QCURVE",
"190 743 OFFCURVE",
"359 753 QCURVE"
);
}
);
};
layerId = "523CE715-D489-4446-A5DE-4E6CA80777EE";
paths = (
{
closed = 1;
nodes = (
"403 22 LINE",
"404 218 OFFCURVE",
"407 387 OFFCURVE",
"386 614 CURVE",
"300 607 LINE",
"325 381 OFFCURVE",
"329 212 OFFCURVE",
"326 14 CURVE"
);
},
{
closed = 1;
nodes = (
"361 62 LINE",
"200 39 LINE",
"209 -29 LINE",
"531 3 LINE",
"526 64 LINE"
);
},
{
closed = 1;
nodes = (
"105 423 LINE",
"100 502 OFFCURVE",
"101 540 OFFCURVE",
"108 604 CURVE",
"75 569 LINE",
"198 598 OFFCURVE",
"421 605 OFFCURVE",
"592 604 CURVE",
"552 632 LINE",
"563 565 OFFCURVE",
"566 496 OFFCURVE",
"566 418 CURVE",
"624 412 LINE",
"641 498 OFFCURVE",
"647 590 OFFCURVE",
"641 677 CURVE",
"440 677 OFFCURVE",
"225 668 OFFCURVE",
"12 640 CURVE",
"20 568 OFFCURVE",
"29 486 OFFCURVE",
"47 420 CURVE"
);
}
);
width = 689;
}
);
leftKerningGroup = T;
rightKerningGroup = T;
unicode = 0054;
},
{
color = 0;
glyphname = U;
lastChange = "2018-05-20 14:18:03 +0000";
layers = (
{
background = {
paths = (
{
closed = 1;
nodes = (
"38 556 OFFCURVE",
"70 561 OFFCURVE",
"111 555 QCURVE",
"179 545 OFFCURVE",
"191 538 QCURVE",
"218 524 OFFCURVE",
"174 409 QCURVE",
"146 336 OFFCURVE",
"163 173 OFFCURVE",
"203 130 QCURVE",
"226 105 OFFCURVE",
"263 94 OFFCURVE",
"309 99 QCURVE",
"379 106 OFFCURVE",
"414 139 QCURVE",
"445 168 OFFCURVE",
"483 316 OFFCURVE",
"478 388 QCURVE",
"474 432 OFFCURVE",
"459 456 OFFCURVE",
"433 459 QCURVE",
"417 461 OFFCURVE",
"391 479 OFFCURVE",
"379 503 OFFCURVE",
"381 529 OFFCURVE",
"391 539 QCURVE",
"399 548 OFFCURVE",
"476 552 OFFCURVE",
"549 541 OFFCURVE",
"556 531 QCURVE",
"559 526 OFFCURVE",
"571 384 OFFCURVE",
"575 291 QCURVE",
"583 116 OFFCURVE",
"590 86 QCURVE",
"596 63 OFFCURVE",
"611 54 QCURVE",
"614 53 OFFCURVE",
"621 51 QCURVE",
"646 41 OFFCURVE",
"657 21 OFFCURVE",
"631 -2 OFFCURVE",
"597 -19 QCURVE",
"534 -50 OFFCURVE",
"490 -13 OFFCURVE",
"499 64 QCURVE",
"508 139 LINE",
"464 89 LINE",
"439 60 OFFCURVE",
"386 31 OFFCURVE",
"341 22 QCURVE",
"274 8 OFFCURVE",
"198 23 OFFCURVE",
"159 58 QCURVE",
"132 81 OFFCURVE",
"93 161 OFFCURVE",
"74 251 OFFCURVE",
"76 346 OFFCURVE",
"90 385 QCURVE",
"110 441 OFFCURVE",
"100 471 OFFCURVE",
"64 464 QCURVE",
"34 459 OFFCURVE",
"11 509 OFFCURVE",
"29 540 QCURVE"
);
}
);
};
layerId = "523CE715-D489-4446-A5DE-4E6CA80777EE";
paths = (
{
closed = 1;
nodes = (
"38 556 OFFCURVE",
"70 561 OFFCURVE",
"111 555 QCURVE",
"179 545 OFFCURVE",
"191 538 QCURVE",
"218 524 OFFCURVE",
"174 409 QCURVE",
"146 336 OFFCURVE",
"163 173 OFFCURVE",
"203 130 QCURVE",
"226 105 OFFCURVE",
"263 94 OFFCURVE",
"309 99 QCURVE",
"379 106 OFFCURVE",
"414 139 QCURVE",
"445 168 OFFCURVE",
"483 316 OFFCURVE",
"478 388 QCURVE",
"474 432 OFFCURVE",
"459 456 OFFCURVE",
"433 459 QCURVE",
"417 461 OFFCURVE",
"391 479 OFFCURVE",
"379 503 OFFCURVE",
"381 529 OFFCURVE",
"391 539 QCURVE",
"399 548 OFFCURVE",
"476 552 OFFCURVE",
"549 541 OFFCURVE",
"556 531 QCURVE",
"559 526 OFFCURVE",
"571 384 OFFCURVE",
"575 291 QCURVE",
"583 116 OFFCURVE",
"590 86 QCURVE",
"596 63 OFFCURVE",
"611 54 QCURVE",
"614 53 OFFCURVE",
"621 51 QCURVE",
"646 41 OFFCURVE",
"657 21 OFFCURVE",
"631 -2 OFFCURVE",
"597 -19 QCURVE",
"534 -50 OFFCURVE",
"490 -13 OFFCURVE",
"499 64 QCURVE",
"508 139 LINE",
"464 89 LINE",
"439 60 OFFCURVE",
"386 31 OFFCURVE",
"341 22 QCURVE",
"274 8 OFFCURVE",
"198 23 OFFCURVE",
"159 58 QCURVE",
"132 81 OFFCURVE",
"93 161 OFFCURVE",
"74 251 OFFCURVE",
"76 346 OFFCURVE",
"90 385 QCURVE",
"110 441 OFFCURVE",
"100 471 OFFCURVE",
"64 464 QCURVE",
"34 459 OFFCURVE",
"11 509 OFFCURVE",
"29 540 QCURVE"
);
}
);
width = 672;
}
);
unicode = 0055;
},
{
color = 0;
glyphname = Uacute;
lastChange = "2018-05-20 14:18:03 +0000";
layers = (
{
background = {
paths = (
{
closed = 1;
nodes = (
"47 593 OFFCURVE",
"96 598 OFFCURVE",
"162 593 QCURVE",
"206 589 OFFCURVE",
"274 579 OFFCURVE",
"281 573 OFFCURVE",
"274 519 OFFCURVE",
"265 484 QCURVE",
"257 449 OFFCURVE",
"244 328 OFFCURVE",
"244 277 QCURVE",
"244 238 OFFCURVE",
"246 199 OFFCURVE",
"249 164 OFFCURVE",
"260 146 OFFCURVE",
"273 131 OFFCURVE",
"286 119 QCURVE",
"332 81 OFFCURVE",
"427 88 OFFCURVE",
"466 133 QCURVE",
"483 153 OFFCURVE",
"518 209 OFFCURVE",
"526 229 QCURVE",
"549 283 OFFCURVE",
"572 443 OFFCURVE",
"559 458 QCURVE",
"549 473 OFFCURVE",
"553 509 OFFCURVE",
"578 542 OFFCURVE",
"594 545 QCURVE",
"676 562 OFFCURVE",
"736 563 OFFCURVE",
"749 547 QCURVE",
"760 534 OFFCURVE",
"758 507 OFFCURVE",
"744 478 QCURVE",
"725 440 OFFCURVE",
"680 234 OFFCURVE",
"674 159 QCURVE",
"669 93 LINE",
"731 78 LINE",
"803 59 OFFCURVE",
"816 36 QCURVE",
"822 26 OFFCURVE",
"810 19 QCURVE",
"795 9 OFFCURVE",
"699 -2 QCURVE",
"666 -6 OFFCURVE",
"628 -8 OFFCURVE",
"597 0 OFFCURVE",
"585 14 OFFCURVE",
"582 48 OFFCURVE",
"589 88 OFFCURVE",
"596 121 QCURVE",
"628 253 OFFCURVE",
"613 246 QCURVE",
"606 243 OFFCURVE",
"591 209 QCURVE",
"550 119 OFFCURVE",
"409 -4 OFFCURVE",
"346 -4 QCURVE",
"308 -4 OFFCURVE",
"209 63 OFFCURVE",
"192 99 QCURVE",
"179 127 OFFCURVE",
"176 411 OFFCURVE",
"188 459 QCURVE",
"196 492 OFFCURVE",
"138 523 OFFCURVE",
"85 514 QCURVE",
"40 507 OFFCURVE",
"9 547 OFFCURVE",
"34 578 QCURVE"
);
},
{
closed = 1;
nodes = (
"629 826 OFFCURVE",
"646 796 QCURVE",
"648 793 OFFCURVE",
"648 786 QCURVE",
"648 779 OFFCURVE",
"613 734 OFFCURVE",
"563 684 OFFCURVE",
"514 625 OFFCURVE",
"504 609 QCURVE",
"484 574 OFFCURVE",
"432 566 OFFCURVE",
"421 594 QCURVE",
"416 608 OFFCURVE",
"454 659 OFFCURVE",
"508 711 QCURVE"
);
}
);
};
layerId = "523CE715-D489-4446-A5DE-4E6CA80777EE";
paths = (
{
closed = 1;
nodes = (
"47 593 OFFCURVE",
"96 598 OFFCURVE",
"162 593 QCURVE",
"206 589 OFFCURVE",
"274 579 OFFCURVE",
"281 573 OFFCURVE",
"274 519 OFFCURVE",
"265 484 QCURVE",
"257 449 OFFCURVE",
"244 328 OFFCURVE",
"244 277 QCURVE",
"244 238 OFFCURVE",
"246 199 OFFCURVE",
"249 164 OFFCURVE",
"260 146 OFFCURVE",
"273 131 OFFCURVE",
"286 119 QCURVE",
"332 81 OFFCURVE",
"427 88 OFFCURVE",
"466 133 QCURVE",
"483 153 OFFCURVE",
"518 209 OFFCURVE",
"526 229 QCURVE",
"549 283 OFFCURVE",
"572 443 OFFCURVE",
"559 458 QCURVE",
"549 473 OFFCURVE",
"553 509 OFFCURVE",
"578 542 OFFCURVE",
"594 545 QCURVE",
"676 562 OFFCURVE",
"736 563 OFFCURVE",
"749 547 QCURVE",
"760 534 OFFCURVE",
"758 507 OFFCURVE",
"744 478 QCURVE",
"725 440 OFFCURVE",
"680 234 OFFCURVE",
"674 159 QCURVE",
"669 93 LINE",
"731 78 LINE",
"803 59 OFFCURVE",
"816 36 QCURVE",
"822 26 OFFCURVE",
"810 19 QCURVE",
"795 9 OFFCURVE",
"699 -2 QCURVE",
"666 -6 OFFCURVE",
"628 -8 OFFCURVE",
"597 0 OFFCURVE",
"585 14 OFFCURVE",
"582 48 OFFCURVE",
"589 88 OFFCURVE",
"596 121 QCURVE",
"628 253 OFFCURVE",
"613 246 QCURVE",
"606 243 OFFCURVE",
"591 209 QCURVE",
"550 119 OFFCURVE",
"409 -4 OFFCURVE",
"346 -4 QCURVE",
"308 -4 OFFCURVE",
"209 63 OFFCURVE",
"192 99 QCURVE",
"179 127 OFFCURVE",
"176 411 OFFCURVE",
"188 459 QCURVE",
"196 492 OFFCURVE",
"138 523 OFFCURVE",
"85 514 QCURVE",
"40 507 OFFCURVE",
"9 547 OFFCURVE",
"34 578 QCURVE"
);
},
{
closed = 1;
nodes = (
"629 826 OFFCURVE",
"646 796 QCURVE",
"648 793 OFFCURVE",
"648 786 QCURVE",
"648 779 OFFCURVE",
"613 734 OFFCURVE",
"563 684 OFFCURVE",
"514 625 OFFCURVE",
"504 609 QCURVE",
"484 574 OFFCURVE",
"432 566 OFFCURVE",
"421 594 QCURVE",
"416 608 OFFCURVE",
"454 659 OFFCURVE",
"508 711 QCURVE"
);
}
);
width = 837;
}
);
unicode = 00DA;
},
{
color = 0;
glyphname = Udieresis;
lastChange = "2018-05-20 14:18:03 +0000";
layers = (
{
background = {
paths = (
{
closed = 1;
nodes = (
"492 648 OFFCURVE",
"519 638 OFFCURVE",
"526 629 QCURVE",
"541 611 OFFCURVE",
"529 533 OFFCURVE",
"509 520 QCURVE",
"504 516 OFFCURVE",
"517 513 QCURVE",
"532 508 OFFCURVE",
"560 506 QCURVE",
"625 502 LINE",
"620 363 LINE",
"618 306 OFFCURVE",
"621 178 OFFCURVE",
"625 145 QCURVE",
"636 67 LINE",
"721 77 LINE",
"809 88 OFFCURVE",
"818 67 QCURVE",
"821 58 OFFCURVE",
"804 43 QCURVE",
"797 37 OFFCURVE",
"723 9 OFFCURVE",
"679 -4 QCURVE",
"647 -14 OFFCURVE",
"605 -24 OFFCURVE",
"572 -26 OFFCURVE",
"556 -19 OFFCURVE",
"547 1 OFFCURVE",
"548 29 OFFCURVE",
"553 52 QCURVE",
"561 101 LINE",
"518 69 LINE",
"483 43 OFFCURVE",
"351 31 OFFCURVE",
"262 45 QCURVE",
"216 53 OFFCURVE",
"178 78 OFFCURVE",
"153 118 QCURVE",
"122 168 OFFCURVE",
"109 289 OFFCURVE",
"126 369 QCURVE",
"130 384 OFFCURVE",
"133 399 OFFCURVE",
"133 414 OFFCURVE",
"131 419 OFFCURVE",
"120 423 OFFCURVE",
"109 422 OFFCURVE",
"96 421 QCURVE",
"61 417 OFFCURVE",
"25 422 OFFCURVE",
"18 436 OFFCURVE",
"20 453 QCURVE",
"22 469 OFFCURVE",
"36 483 OFFCURVE",
"71 491 OFFCURVE",
"109 494 QCURVE",
"136 498 OFFCURVE",
"174 496 OFFCURVE",
"201 491 OFFCURVE",
"218 475 OFFCURVE",
"224 455 OFFCURVE",
"221 421 OFFCURVE",
"210 379 OFFCURVE",
"200 351 QCURVE",
"168 258 OFFCURVE",
"236 134 OFFCURVE",
"329 116 QCURVE",
"444 94 OFFCURVE",
"544 184 OFFCURVE",
"544 308 QCURVE",
"544 333 OFFCURVE",
"544 355 OFFCURVE",
"540 381 OFFCURVE",
"536 389 OFFCURVE",
"521 403 OFFCURVE",
"508 409 OFFCURVE",
"493 415 QCURVE",
"456 431 OFFCURVE",
"431 486 OFFCURVE",
"455 501 QCURVE",
"461 504 OFFCURVE",
"464 547 OFFCURVE",
"461 574 QCURVE",
"456 614 OFFCURVE",
"464 641 OFFCURVE",
"481 644 QCURVE"
);
},
{
closed = 1;
nodes = (
"253 660 OFFCURVE",
"290 654 QCURVE",
"328 649 OFFCURVE",
"354 626 QCURVE",
"369 612 OFFCURVE",
"369 598 QCURVE",
"369 586 OFFCURVE",
"360 564 OFFCURVE",
"354 561 QCURVE",
"349 557 OFFCURVE",
"339 535 OFFCURVE",
"339 524 QCURVE",
"339 463 OFFCURVE",
"284 537 QCURVE",
"262 568 OFFCURVE",
"248 610 OFFCURVE",
"251 638 QCURVE"
);
}
);
};
layerId = "523CE715-D489-4446-A5DE-4E6CA80777EE";
paths = (
{
closed = 1;
nodes = (
"492 648 OFFCURVE",
"519 638 OFFCURVE",
"526 629 QCURVE",
"541 611 OFFCURVE",
"529 533 OFFCURVE",
"509 520 QCURVE",
"504 516 OFFCURVE",
"517 513 QCURVE",
"532 508 OFFCURVE",
"560 506 QCURVE",
"625 502 LINE",
"620 363 LINE",
"618 306 OFFCURVE",
"621 178 OFFCURVE",
"625 145 QCURVE",
"636 67 LINE",
"721 77 LINE",
"809 88 OFFCURVE",
"818 67 QCURVE",
"821 58 OFFCURVE",
"804 43 QCURVE",
"797 37 OFFCURVE",
"723 9 OFFCURVE",
"679 -4 QCURVE",
"647 -14 OFFCURVE",
"605 -24 OFFCURVE",
"572 -26 OFFCURVE",
"556 -19 OFFCURVE",
"547 1 OFFCURVE",
"548 29 OFFCURVE",
"553 52 QCURVE",
"561 101 LINE",
"518 69 LINE",
"483 43 OFFCURVE",
"351 31 OFFCURVE",
"262 45 QCURVE",
"216 53 OFFCURVE",
"178 78 OFFCURVE",
"153 118 QCURVE",
"122 168 OFFCURVE",
"109 289 OFFCURVE",
"126 369 QCURVE",
"130 384 OFFCURVE",
"133 399 OFFCURVE",
"133 414 OFFCURVE",
"131 419 OFFCURVE",
"120 423 OFFCURVE",
"109 422 OFFCURVE",
"96 421 QCURVE",
"61 417 OFFCURVE",
"25 422 OFFCURVE",
"18 436 OFFCURVE",
"20 453 QCURVE",
"22 469 OFFCURVE",
"36 483 OFFCURVE",
"71 491 OFFCURVE",
"109 494 QCURVE",
"136 498 OFFCURVE",
"174 496 OFFCURVE",
"201 491 OFFCURVE",
"218 475 OFFCURVE",
"224 455 OFFCURVE",
"221 421 OFFCURVE",
"210 379 OFFCURVE",
"200 351 QCURVE",
"168 258 OFFCURVE",
"236 134 OFFCURVE",
"329 116 QCURVE",
"444 94 OFFCURVE",
"544 184 OFFCURVE",
"544 308 QCURVE",
"544 333 OFFCURVE",
"544 355 OFFCURVE",
"540 381 OFFCURVE",
"536 389 OFFCURVE",
"521 403 OFFCURVE",
"508 409 OFFCURVE",
"493 415 QCURVE",
"456 431 OFFCURVE",
"431 486 OFFCURVE",
"455 501 QCURVE",
"461 504 OFFCURVE",
"464 547 OFFCURVE",
"461 574 QCURVE",
"456 614 OFFCURVE",
"464 641 OFFCURVE",
"481 644 QCURVE"
);
},
{
closed = 1;
nodes = (
"253 660 OFFCURVE",
"290 654 QCURVE",
"328 649 OFFCURVE",
"354 626 QCURVE",
"369 612 OFFCURVE",
"369 598 QCURVE",
"369 586 OFFCURVE",
"360 564 OFFCURVE",
"354 561 QCURVE",
"349 557 OFFCURVE",
"339 535 OFFCURVE",
"339 524 QCURVE",
"339 463 OFFCURVE",
"284 537 QCURVE",
"262 568 OFFCURVE",
"248 610 OFFCURVE",
"251 638 QCURVE"
);
}
);
width = 837;
}
);
unicode = 00DC;
},
{
color = 0;
glyphname = V;
lastChange = "2018-05-20 14:18:03 +0000";
layers = (
{
background = {
paths = (
{
closed = 1;
nodes = (
"592 551 OFFCURVE",
"687 551 OFFCURVE",
"728 537 QCURVE",
"768 523 OFFCURVE",
"773 503 QCURVE",
"776 487 OFFCURVE",
"751 482 QCURVE",
"742 480 OFFCURVE",
"731 480 QCURVE",
"713 480 OFFCURVE",
"685 467 OFFCURVE",
"654 437 OFFCURVE",
"612 373 OFFCURVE",
"562 285 OFFCURVE",
"524 213 QCURVE",
"448 71 OFFCURVE",
"338 -58 OFFCURVE",
"309 -39 QCURVE",
"299 -33 OFFCURVE",
"271 18 OFFCURVE",
"261 49 QCURVE",
"240 113 OFFCURVE",
"111 413 OFFCURVE",
"97 431 QCURVE",
"91 439 OFFCURVE",
"64 452 OFFCURVE",
"51 453 QCURVE",
"34 456 OFFCURVE",
"19 474 OFFCURVE",
"19 494 QCURVE",
"19 519 OFFCURVE",
"39 533 OFFCURVE",
"78 536 QCURVE",
"103 538 OFFCURVE",
"163 530 OFFCURVE",
"181 524 QCURVE",
"192 519 OFFCURVE",
"204 515 OFFCURVE",
"213 509 OFFCURVE",
"214 505 OFFCURVE",
"211 499 OFFCURVE",
"204 493 OFFCURVE",
"197 487 QCURVE",
"184 478 OFFCURVE",
"174 452 OFFCURVE",
"178 440 QCURVE",
"199 374 OFFCURVE",
"335 77 OFFCURVE",
"346 73 QCURVE",
"356 69 OFFCURVE",
"376 96 QCURVE",
"402 132 OFFCURVE",
"511 323 QCURVE",
"578 442 OFFCURVE",
"580 455 QCURVE",
"581 461 OFFCURVE",
"577 461 QCURVE",
"574 461 OFFCURVE",
"565 458 QCURVE",
"543 449 OFFCURVE",
"508 480 OFFCURVE",
"515 500 QCURVE",
"519 510 OFFCURVE",
"544 532 OFFCURVE",
"558 538 QCURVE"
);
}
);
};
layerId = "523CE715-D489-4446-A5DE-4E6CA80777EE";
paths = (
{
closed = 1;
nodes = (
"592 551 OFFCURVE",
"687 551 OFFCURVE",
"728 537 QCURVE",
"768 523 OFFCURVE",
"773 503 QCURVE",
"776 487 OFFCURVE",
"751 482 QCURVE",
"742 480 OFFCURVE",
"731 480 QCURVE",
"713 480 OFFCURVE",
"685 467 OFFCURVE",
"654 437 OFFCURVE",
"612 373 OFFCURVE",
"562 285 OFFCURVE",
"524 213 QCURVE",
"448 71 OFFCURVE",
"338 -58 OFFCURVE",
"309 -39 QCURVE",
"299 -33 OFFCURVE",
"271 18 OFFCURVE",
"261 49 QCURVE",
"240 113 OFFCURVE",
"111 413 OFFCURVE",
"97 431 QCURVE",
"91 439 OFFCURVE",
"64 452 OFFCURVE",
"51 453 QCURVE",
"34 456 OFFCURVE",
"19 474 OFFCURVE",
"19 494 QCURVE",
"19 519 OFFCURVE",
"39 533 OFFCURVE",
"78 536 QCURVE",
"103 538 OFFCURVE",
"163 530 OFFCURVE",
"181 524 QCURVE",
"192 519 OFFCURVE",
"204 515 OFFCURVE",
"213 509 OFFCURVE",
"214 505 OFFCURVE",
"211 499 OFFCURVE",
"204 493 OFFCURVE",
"197 487 QCURVE",
"184 478 OFFCURVE",
"174 452 OFFCURVE",
"178 440 QCURVE",
"199 374 OFFCURVE",
"335 77 OFFCURVE",
"346 73 QCURVE",
"356 69 OFFCURVE",
"376 96 QCURVE",
"402 132 OFFCURVE",
"511 323 QCURVE",
"578 442 OFFCURVE",
"580 455 QCURVE",
"581 461 OFFCURVE",
"577 461 QCURVE",
"574 461 OFFCURVE",
"565 458 QCURVE",
"543 449 OFFCURVE",
"508 480 OFFCURVE",
"515 500 QCURVE",
"519 510 OFFCURVE",
"544 532 OFFCURVE",
"558 538 QCURVE"
);
}
);
width = 791;
}
);
unicode = 0056;
},
{
color = 0;
glyphname = W;
lastChange = "2018-05-20 14:18:03 +0000";
layers = (
{
background = {
paths = (
{
closed = 1;
nodes = (
"153 532 OFFCURVE",
"255 533 OFFCURVE",
"326 509 OFFCURVE",
"326 490 QCURVE",
"326 484 OFFCURVE",
"297 475 OFFCURVE",
"255 475 OFFCURVE",
"221 468 OFFCURVE",
"218 464 QCURVE",
"212 454 OFFCURVE",
"264 138 OFFCURVE",
"274 128 QCURVE",
"279 123 OFFCURVE",
"293 148 QCURVE",
"316 193 OFFCURVE",
"324 239 QCURVE",
"326 249 OFFCURVE",
"326 256 QCURVE",
"326 268 OFFCURVE",
"349 299 OFFCURVE",
"365 310 QCURVE",
"376 317 OFFCURVE",
"386 323 OFFCURVE",
"400 328 OFFCURVE",
"405 326 OFFCURVE",
"417 319 OFFCURVE",
"424 309 OFFCURVE",
"433 299 QCURVE",
"461 263 OFFCURVE",
"505 185 QCURVE",
"523 154 OFFCURVE",
"558 111 OFFCURVE",
"564 113 QCURVE",
"576 117 OFFCURVE",
"678 379 OFFCURVE",
"678 408 QCURVE",
"678 424 OFFCURVE",
"657 433 OFFCURVE",
"624 429 QCURVE",
"592 426 OFFCURVE",
"567 435 OFFCURVE",
"564 451 QCURVE",
"556 491 OFFCURVE",
"611 521 OFFCURVE",
"681 514 QCURVE",
"777 504 OFFCURVE",
"839 472 QCURVE",
"879 452 OFFCURVE",
"866 440 QCURVE",
"856 431 OFFCURVE",
"820 431 QCURVE",
"789 431 OFFCURVE",
"776 421 QCURVE",
"756 405 OFFCURVE",
"726 326 QCURVE",
"712 290 OFFCURVE",
"676 191 QCURVE",
"652 124 OFFCURVE",
"608 18 OFFCURVE",
"601 9 QCURVE",
"577 -19 OFFCURVE",
"517 18 OFFCURVE",
"484 80 QCURVE",
"423 194 OFFCURVE",
"398 195 QCURVE",
"393 195 OFFCURVE",
"388 190 QCURVE",
"374 175 OFFCURVE",
"341 87 QCURVE",
"299 -21 OFFCURVE",
"288 -35 QCURVE",
"279 -48 OFFCURVE",
"267 -36 QCURVE",
"263 -32 OFFCURVE",
"255 -20 QCURVE",
"237 4 OFFCURVE",
"172 253 OFFCURVE",
"157 353 QCURVE",
"144 438 OFFCURVE",
"124 442 QCURVE",
"115 444 OFFCURVE",
"103 433 QCURVE",
"93 425 OFFCURVE",
"63 424 OFFCURVE",
"38 435 OFFCURVE",
"19 456 OFFCURVE",
"19 468 QCURVE",
"19 487 OFFCURVE",
"54 510 OFFCURVE",
"98 521 QCURVE"
);
}
);
};
layerId = "523CE715-D489-4446-A5DE-4E6CA80777EE";
paths = (
{
closed = 1;
nodes = (
"153 532 OFFCURVE",
"255 533 OFFCURVE",
"326 509 OFFCURVE",
"326 490 QCURVE",
"326 484 OFFCURVE",
"297 475 OFFCURVE",
"255 475 OFFCURVE",
"221 468 OFFCURVE",
"218 464 QCURVE",
"212 454 OFFCURVE",
"264 138 OFFCURVE",
"274 128 QCURVE",
"279 123 OFFCURVE",
"293 148 QCURVE",
"316 193 OFFCURVE",
"324 239 QCURVE",
"326 249 OFFCURVE",
"326 256 QCURVE",
"326 268 OFFCURVE",
"349 299 OFFCURVE",
"365 310 QCURVE",
"376 317 OFFCURVE",
"386 323 OFFCURVE",
"400 328 OFFCURVE",
"405 326 OFFCURVE",
"417 319 OFFCURVE",
"424 309 OFFCURVE",
"433 299 QCURVE",
"461 263 OFFCURVE",
"505 185 QCURVE",
"523 154 OFFCURVE",
"558 111 OFFCURVE",
"564 113 QCURVE",
"576 117 OFFCURVE",
"678 379 OFFCURVE",
"678 408 QCURVE",
"678 424 OFFCURVE",
"657 433 OFFCURVE",
"624 429 QCURVE",
"592 426 OFFCURVE",
"567 435 OFFCURVE",
"564 451 QCURVE",
"556 491 OFFCURVE",
"611 521 OFFCURVE",
"681 514 QCURVE",
"777 504 OFFCURVE",
"839 472 QCURVE",
"879 452 OFFCURVE",
"866 440 QCURVE",
"856 431 OFFCURVE",
"820 431 QCURVE",
"789 431 OFFCURVE",
"776 421 QCURVE",
"756 405 OFFCURVE",
"726 326 QCURVE",
"712 290 OFFCURVE",
"676 191 QCURVE",
"652 124 OFFCURVE",
"608 18 OFFCURVE",
"601 9 QCURVE",
"577 -19 OFFCURVE",
"517 18 OFFCURVE",
"484 80 QCURVE",
"423 194 OFFCURVE",
"398 195 QCURVE",
"393 195 OFFCURVE",
"388 190 QCURVE",
"374 175 OFFCURVE",
"341 87 QCURVE",
"299 -21 OFFCURVE",
"288 -35 QCURVE",
"279 -48 OFFCURVE",
"267 -36 QCURVE",
"263 -32 OFFCURVE",
"255 -20 QCURVE",
"237 4 OFFCURVE",
"172 253 OFFCURVE",
"157 353 QCURVE",
"144 438 OFFCURVE",
"124 442 QCURVE",
"115 444 OFFCURVE",
"103 433 QCURVE",
"93 425 OFFCURVE",
"63 424 OFFCURVE",
"38 435 OFFCURVE",
"19 456 OFFCURVE",
"19 468 QCURVE",
"19 487 OFFCURVE",
"54 510 OFFCURVE",
"98 521 QCURVE"
);
}
);
width = 888;
}
);
unicode = 0057;
},
{
color = 0;
glyphname = X;
lastChange = "2018-05-20 14:18:03 +0000";
layers = (
{
background = {
paths = (
{
closed = 1;
nodes = (
"181 606 OFFCURVE",
"278 591 OFFCURVE",
"278 574 QCURVE",
"278 565 OFFCURVE",
"261 553 OFFCURVE",
"237 553 OFFCURVE",
"219 545 OFFCURVE",
"219 540 QCURVE",
"219 527 OFFCURVE",
"330 348 OFFCURVE",
"338 348 QCURVE",
"342 348 OFFCURVE",
"374 386 OFFCURVE",
"393 413 QCURVE",
"421 451 OFFCURVE",
"436 494 OFFCURVE",
"431 521 QCURVE",
"428 536 OFFCURVE",
"428 553 OFFCURVE",
"438 569 OFFCURVE",
"459 574 OFFCURVE",
"494 580 OFFCURVE",
"548 578 OFFCURVE",
"584 578 QCURVE",
"680 576 OFFCURVE",
"698 558 QCURVE",
"709 548 OFFCURVE",
"679 539 QCURVE",
"666 534 OFFCURVE",
"646 531 QCURVE",
"621 527 OFFCURVE",
"558 498 OFFCURVE",
"538 483 QCURVE",
"503 456 OFFCURVE",
"381 299 OFFCURVE",
"381 282 QCURVE",
"381 262 OFFCURVE",
"485 128 OFFCURVE",
"604 11 OFFCURVE",
"623 11 QCURVE",
"640 11 OFFCURVE",
"700 -19 OFFCURVE",
"747 -59 OFFCURVE",
"747 -71 QCURVE",
"747 -88 OFFCURVE",
"741 -89 QCURVE",
"733 -90 OFFCURVE",
"679 -68 QCURVE",
"624 -44 OFFCURVE",
"521 -49 QCURVE",
"474 -53 OFFCURVE",
"428 -49 OFFCURVE",
"415 -39 OFFCURVE",
"413 -24 QCURVE",
"411 -11 OFFCURVE",
"421 17 OFFCURVE",
"431 25 QCURVE",
"441 34 OFFCURVE",
"441 52 OFFCURVE",
"423 86 OFFCURVE",
"398 122 QCURVE",
"376 154 OFFCURVE",
"339 201 OFFCURVE",
"335 201 QCURVE",
"329 201 OFFCURVE",
"234 71 OFFCURVE",
"234 63 QCURVE",
"234 59 OFFCURVE",
"248 55 OFFCURVE",
"265 55 OFFCURVE",
"278 44 OFFCURVE",
"278 36 QCURVE",
"278 17 OFFCURVE",
"28 -21 OFFCURVE",
"18 -11 OFFCURVE",
"24 29 QCURVE",
"29 55 OFFCURVE",
"49 70 OFFCURVE",
"80 70 QCURVE",
"124 70 OFFCURVE",
"203 131 OFFCURVE",
"248 200 QCURVE",
"294 273 LINE",
"211 399 LINE",
"153 489 OFFCURVE",
"136 505 QCURVE",
"119 521 OFFCURVE",
"96 518 QCURVE",
"91 518 OFFCURVE",
"81 516 QCURVE",
"54 511 OFFCURVE",
"29 517 OFFCURVE",
"24 529 QCURVE",
"11 564 OFFCURVE",
"47 597 OFFCURVE",
"99 600 QCURVE"
);
}
);
};
layerId = "523CE715-D489-4446-A5DE-4E6CA80777EE";
paths = (
{
closed = 1;
nodes = (
"181 606 OFFCURVE",
"278 591 OFFCURVE",
"278 574 QCURVE",
"278 565 OFFCURVE",
"261 553 OFFCURVE",
"237 553 OFFCURVE",
"219 545 OFFCURVE",
"219 540 QCURVE",
"219 527 OFFCURVE",
"330 348 OFFCURVE",
"338 348 QCURVE",
"342 348 OFFCURVE",
"374 386 OFFCURVE",
"393 413 QCURVE",
"421 451 OFFCURVE",
"436 494 OFFCURVE",
"431 521 QCURVE",
"428 536 OFFCURVE",
"428 553 OFFCURVE",
"438 569 OFFCURVE",
"459 574 OFFCURVE",
"494 580 OFFCURVE",
"548 578 OFFCURVE",
"584 578 QCURVE",
"680 576 OFFCURVE",
"698 558 QCURVE",
"709 548 OFFCURVE",
"679 539 QCURVE",
"666 534 OFFCURVE",
"646 531 QCURVE",
"621 527 OFFCURVE",
"558 498 OFFCURVE",
"538 483 QCURVE",
"503 456 OFFCURVE",
"381 299 OFFCURVE",
"381 282 QCURVE",
"381 262 OFFCURVE",
"485 128 OFFCURVE",
"604 11 OFFCURVE",
"623 11 QCURVE",
"640 11 OFFCURVE",
"700 -19 OFFCURVE",
"747 -59 OFFCURVE",
"747 -71 QCURVE",
"747 -88 OFFCURVE",
"741 -89 QCURVE",
"733 -90 OFFCURVE",
"679 -68 QCURVE",
"624 -44 OFFCURVE",
"521 -49 QCURVE",
"474 -53 OFFCURVE",
"428 -49 OFFCURVE",
"415 -39 OFFCURVE",
"413 -24 QCURVE",
"411 -11 OFFCURVE",
"421 17 OFFCURVE",
"431 25 QCURVE",
"441 34 OFFCURVE",
"441 52 OFFCURVE",
"423 86 OFFCURVE",
"398 122 QCURVE",
"376 154 OFFCURVE",
"339 201 OFFCURVE",
"335 201 QCURVE",
"329 201 OFFCURVE",
"234 71 OFFCURVE",
"234 63 QCURVE",
"234 59 OFFCURVE",
"248 55 OFFCURVE",
"265 55 OFFCURVE",
"278 44 OFFCURVE",
"278 36 QCURVE",
"278 17 OFFCURVE",
"28 -21 OFFCURVE",
"18 -11 OFFCURVE",
"24 29 QCURVE",
"29 55 OFFCURVE",
"49 70 OFFCURVE",
"80 70 QCURVE",
"124 70 OFFCURVE",
"203 131 OFFCURVE",
"248 200 QCURVE",
"294 273 LINE",
"211 399 LINE",
"153 489 OFFCURVE",
"136 505 QCURVE",
"119 521 OFFCURVE",
"96 518 QCURVE",
"91 518 OFFCURVE",
"81 516 QCURVE",
"54 511 OFFCURVE",
"29 517 OFFCURVE",
"24 529 QCURVE",
"11 564 OFFCURVE",
"47 597 OFFCURVE",
"99 600 QCURVE"
);
}
);
width = 766;
}
);
unicode = 0058;
},
{
color = 0;
glyphname = Y;
lastChange = "2018-05-20 14:18:03 +0000";
layers = (
{
background = {
paths = (
{
closed = 1;
nodes = (
"31 711 OFFCURVE",
"117 711 OFFCURVE",
"215 693 OFFCURVE",
"295 661 OFFCURVE",
"295 646 QCURVE",
"295 640 OFFCURVE",
"269 631 OFFCURVE",
"251 631 QCURVE",
"207 631 LINE",
"261 529 LINE",
"314 427 LINE",
"346 457 LINE",
"369 479 OFFCURVE",
"429 556 OFFCURVE",
"464 617 OFFCURVE",
"456 617 QCURVE",
"448 617 OFFCURVE",
"429 636 OFFCURVE",
"419 661 OFFCURVE",
"418 688 OFFCURVE",
"424 694 QCURVE",
"430 700 OFFCURVE",
"525 711 OFFCURVE",
"584 713 QCURVE",
"632 715 OFFCURVE",
"685 715 OFFCURVE",
"719 712 OFFCURVE",
"731 704 OFFCURVE",
"731 698 QCURVE",
"731 689 OFFCURVE",
"704 673 OFFCURVE",
"684 668 QCURVE",
"626 656 OFFCURVE",
"512 563 OFFCURVE",
"438 468 QCURVE",
"344 349 OFFCURVE",
"331 327 QCURVE",
"317 302 OFFCURVE",
"324 35 QCURVE",
"324 24 OFFCURVE",
"348 5 OFFCURVE",
"368 1 QCURVE",
"411 -9 OFFCURVE",
"420 -26 QCURVE",
"426 -37 OFFCURVE",
"408 -42 QCURVE",
"324 -68 OFFCURVE",
"171 -90 OFFCURVE",
"158 -79 QCURVE",
"144 -68 OFFCURVE",
"143 -33 OFFCURVE",
"167 -7 OFFCURVE",
"185 -7 QCURVE",
"216 -7 OFFCURVE",
"244 16 OFFCURVE",
"248 44 QCURVE",
"257 116 OFFCURVE",
"257 219 OFFCURVE",
"248 270 QCURVE",
"234 349 OFFCURVE",
"235 389 QCURVE",
"236 411 OFFCURVE",
"203 501 OFFCURVE",
"161 573 OFFCURVE",
"150 573 QCURVE",
"145 573 OFFCURVE",
"132 591 OFFCURVE",
"128 603 QCURVE",
"123 619 OFFCURVE",
"101 630 OFFCURVE",
"74 628 QCURVE",
"39 625 OFFCURVE",
"12 662 OFFCURVE",
"25 697 QCURVE"
);
}
);
};
layerId = "523CE715-D489-4446-A5DE-4E6CA80777EE";
paths = (
{
closed = 1;
nodes = (
"31 711 OFFCURVE",
"117 711 OFFCURVE",
"215 693 OFFCURVE",
"295 661 OFFCURVE",
"295 646 QCURVE",
"295 640 OFFCURVE",
"269 631 OFFCURVE",
"251 631 QCURVE",
"207 631 LINE",
"261 529 LINE",
"314 427 LINE",
"346 457 LINE",
"369 479 OFFCURVE",
"429 556 OFFCURVE",
"464 617 OFFCURVE",
"456 617 QCURVE",
"448 617 OFFCURVE",
"429 636 OFFCURVE",
"419 661 OFFCURVE",
"418 688 OFFCURVE",
"424 694 QCURVE",
"430 700 OFFCURVE",
"525 711 OFFCURVE",
"584 713 QCURVE",
"632 715 OFFCURVE",
"685 715 OFFCURVE",
"719 712 OFFCURVE",
"731 704 OFFCURVE",
"731 698 QCURVE",
"731 689 OFFCURVE",
"704 673 OFFCURVE",
"684 668 QCURVE",
"626 656 OFFCURVE",
"512 563 OFFCURVE",
"438 468 QCURVE",
"344 349 OFFCURVE",
"331 327 QCURVE",
"317 302 OFFCURVE",
"324 35 QCURVE",
"324 24 OFFCURVE",
"348 5 OFFCURVE",
"368 1 QCURVE",
"411 -9 OFFCURVE",
"420 -26 QCURVE",
"426 -37 OFFCURVE",
"408 -42 QCURVE",
"324 -68 OFFCURVE",
"171 -90 OFFCURVE",
"158 -79 QCURVE",
"144 -68 OFFCURVE",
"143 -33 OFFCURVE",
"167 -7 OFFCURVE",
"185 -7 QCURVE",
"216 -7 OFFCURVE",
"244 16 OFFCURVE",
"248 44 QCURVE",
"257 116 OFFCURVE",
"257 219 OFFCURVE",
"248 270 QCURVE",
"234 349 OFFCURVE",
"235 389 QCURVE",
"236 411 OFFCURVE",
"203 501 OFFCURVE",
"161 573 OFFCURVE",
"150 573 QCURVE",
"145 573 OFFCURVE",
"132 591 OFFCURVE",
"128 603 QCURVE",
"123 619 OFFCURVE",
"101 630 OFFCURVE",
"74 628 QCURVE",
"39 625 OFFCURVE",
"12 662 OFFCURVE",
"25 697 QCURVE"
);
}
);
width = 749;
}
);
unicode = 0059;
},
{
color = 0;
glyphname = Z;
lastChange = "2018-05-20 14:18:03 +0000";
layers = (
{
background = {
paths = (
{
closed = 1;
nodes = (
"33 675 OFFCURVE",
"43 685 OFFCURVE",
"65 689 OFFCURVE",
"94 686 OFFCURVE",
"124 682 QCURVE",
"206 671 OFFCURVE",
"453 662 OFFCURVE",
"463 661 QCURVE",
"496 660 OFFCURVE",
"458 566 QCURVE",
"409 448 OFFCURVE",
"302 294 QCURVE",
"279 263 OFFCURVE",
"256 233 QCURVE",
"201 159 OFFCURVE",
"138 64 OFFCURVE",
"144 60 QCURVE",
"148 57 OFFCURVE",
"388 65 QCURVE",
"627 73 LINE",
"631 119 LINE",
"636 164 OFFCURVE",
"658 167 QCURVE",
"678 170 OFFCURVE",
"693 142 QCURVE",
"707 116 OFFCURVE",
"707 80 QCURVE",
"707 64 OFFCURVE",
"705 43 OFFCURVE",
"698 23 OFFCURVE",
"688 12 OFFCURVE",
"665 2 OFFCURVE",
"640 -3 OFFCURVE",
"595 -6 OFFCURVE",
"548 -7 OFFCURVE",
"511 -7 QCURVE",
"375 -7 OFFCURVE",
"91 -37 OFFCURVE",
"86 -52 QCURVE",
"77 -76 OFFCURVE",
"59 -56 QCURVE",
"51 -48 OFFCURVE",
"44 -32 QCURVE",
"30 -1 OFFCURVE",
"43 83 OFFCURVE",
"63 90 QCURVE",
"71 93 OFFCURVE",
"100 125 OFFCURVE",
"112 144 QCURVE",
"141 192 OFFCURVE",
"221 292 QCURVE",
"275 361 OFFCURVE",
"394 558 OFFCURVE",
"385 566 QCURVE",
"376 572 OFFCURVE",
"130 597 OFFCURVE",
"118 593 QCURVE",
"110 589 OFFCURVE",
"96 563 OFFCURVE",
"94 546 QCURVE",
"93 526 OFFCURVE",
"78 508 OFFCURVE",
"62 508 QCURVE",
"46 508 OFFCURVE",
"29 534 OFFCURVE",
"23 571 QCURVE",
"12 634 OFFCURVE",
"28 664 QCURVE"
);
}
);
};
layerId = "523CE715-D489-4446-A5DE-4E6CA80777EE";
paths = (
{
closed = 1;
nodes = (
"33 675 OFFCURVE",
"43 685 OFFCURVE",
"65 689 OFFCURVE",
"94 686 OFFCURVE",
"124 682 QCURVE",
"206 671 OFFCURVE",
"453 662 OFFCURVE",
"463 661 QCURVE",
"496 660 OFFCURVE",
"458 566 QCURVE",
"409 448 OFFCURVE",
"302 294 QCURVE",
"279 263 OFFCURVE",
"256 233 QCURVE",
"201 159 OFFCURVE",
"138 64 OFFCURVE",
"144 60 QCURVE",
"148 57 OFFCURVE",
"388 65 QCURVE",
"627 73 LINE",
"631 119 LINE",
"636 164 OFFCURVE",
"658 167 QCURVE",
"678 170 OFFCURVE",
"693 142 QCURVE",
"707 116 OFFCURVE",
"707 80 QCURVE",
"707 64 OFFCURVE",
"705 43 OFFCURVE",
"698 23 OFFCURVE",
"688 12 OFFCURVE",
"665 2 OFFCURVE",
"640 -3 OFFCURVE",
"595 -6 OFFCURVE",
"548 -7 OFFCURVE",
"511 -7 QCURVE",
"375 -7 OFFCURVE",
"91 -37 OFFCURVE",
"86 -52 QCURVE",
"77 -76 OFFCURVE",
"59 -56 QCURVE",
"51 -48 OFFCURVE",
"44 -32 QCURVE",
"30 -1 OFFCURVE",
"43 83 OFFCURVE",
"63 90 QCURVE",
"71 93 OFFCURVE",
"100 125 OFFCURVE",
"112 144 QCURVE",
"141 192 OFFCURVE",
"221 292 QCURVE",
"275 361 OFFCURVE",
"394 558 OFFCURVE",
"385 566 QCURVE",
"376 572 OFFCURVE",
"130 597 OFFCURVE",
"118 593 QCURVE",
"110 589 OFFCURVE",
"96 563 OFFCURVE",
"94 546 QCURVE",
"93 526 OFFCURVE",
"78 508 OFFCURVE",
"62 508 QCURVE",
"46 508 OFFCURVE",
"29 534 OFFCURVE",
"23 571 QCURVE",
"12 634 OFFCURVE",
"28 664 QCURVE"
);
}
);
width = 726;
}
);
unicode = 005A;
},
{
glyphname = a;
lastChange = "2018-05-20 14:18:03 +0000";
layers = (
{
anchors = (
{
name = top;
position = "{260, 438}";
}
);
background = {
anchors = (
{
name = top;
position = "{260, 438}";
}
);
paths = (
{
closed = 1;
nodes = (
"161 356 OFFCURVE",
"204 388 OFFCURVE",
"264 388 CURVE SMOOTH",
"336 388 OFFCURVE",
"363 349 OFFCURVE",
"357 246 CURVE SMOOTH",
"350 131 OFFCURVE",
"343 -18 OFFCURVE",
"452 -18 CURVE SMOOTH",
"508 -18 OFFCURVE",
"548 18 OFFCURVE",
"584 78 CURVE",
"544 105 LINE",
"526 81 OFFCURVE",
"501 58 OFFCURVE",
"478 58 CURVE SMOOTH",
"431 58 OFFCURVE",
"433 125 OFFCURVE",
"436 254 CURVE SMOOTH",
"439 374 OFFCURVE",
"407 464 OFFCURVE",
"279 464 CURVE SMOOTH",
"189 464 OFFCURVE",
"114 409 OFFCURVE",
"85 318 CURVE",
"138 297 LINE"
);
},
{
closed = 1;
nodes = (
"219 232 OFFCURVE",
"78 183 OFFCURVE",
"84 75 CURVE SMOOTH",
"88 5 OFFCURVE",
"143 -24 OFFCURVE",
"217 -18 CURVE SMOOTH",
"284 -13 OFFCURVE",
"355 31 OFFCURVE",
"408 99 CURVE",
"369 131 LINE",
"329 83 OFFCURVE",
"283 56 OFFCURVE",
"244 47 CURVE SMOOTH",
"201 38 OFFCURVE",
"176 54 OFFCURVE",
"173 85 CURVE SMOOTH",
"169 131 OFFCURVE",
"220 171 OFFCURVE",
"379 194 CURVE",
"375 248 LINE"
);
}
);
};
layerId = "523CE715-D489-4446-A5DE-4E6CA80777EE";
paths = (
{
closed = 1;
nodes = (
"161 356 OFFCURVE",
"204 388 OFFCURVE",
"264 388 CURVE SMOOTH",
"336 388 OFFCURVE",
"363 349 OFFCURVE",
"357 246 CURVE SMOOTH",
"350 131 OFFCURVE",
"343 -18 OFFCURVE",
"452 -18 CURVE SMOOTH",
"508 -18 OFFCURVE",
"548 18 OFFCURVE",
"584 78 CURVE",
"544 105 LINE",
"526 81 OFFCURVE",
"501 58 OFFCURVE",
"478 58 CURVE SMOOTH",
"431 58 OFFCURVE",
"433 125 OFFCURVE",
"436 254 CURVE SMOOTH",
"439 374 OFFCURVE",
"407 464 OFFCURVE",
"279 464 CURVE SMOOTH",
"189 464 OFFCURVE",
"114 409 OFFCURVE",
"85 318 CURVE",
"138 297 LINE"
);
},
{
closed = 1;
nodes = (
"219 232 OFFCURVE",
"78 183 OFFCURVE",
"84 75 CURVE SMOOTH",
"88 5 OFFCURVE",
"143 -24 OFFCURVE",
"217 -18 CURVE SMOOTH",
"284 -13 OFFCURVE",
"355 31 OFFCURVE",
"408 99 CURVE",
"369 131 LINE",
"329 83 OFFCURVE",
"283 56 OFFCURVE",
"244 47 CURVE SMOOTH",
"201 38 OFFCURVE",
"176 54 OFFCURVE",
"173 85 CURVE SMOOTH",
"169 131 OFFCURVE",
"220 171 OFFCURVE",
"379 194 CURVE",
"375 248 LINE"
);
}
);
width = 595;
}
);
unicode = 0061;
userData = {
com.typemytype.robofont.mark = (
0.656,
1,
0.6,
1
);
};
},
{
color = 6;
glyphname = aacute;
lastChange = "2018-05-20 14:18:03 +0000";
layers = (
{
background = {
anchors = (
{
name = top;
position = "{260, 438}";
}
);
paths = (
{
closed = 1;
nodes = (
"161 356 OFFCURVE",
"204 388 OFFCURVE",
"264 388 CURVE SMOOTH",
"336 388 OFFCURVE",
"363 349 OFFCURVE",
"357 246 CURVE SMOOTH",
"350 131 OFFCURVE",
"343 -18 OFFCURVE",
"452 -18 CURVE SMOOTH",
"508 -18 OFFCURVE",
"548 18 OFFCURVE",
"584 78 CURVE",
"544 105 LINE",
"526 81 OFFCURVE",
"501 58 OFFCURVE",
"478 58 CURVE SMOOTH",
"431 58 OFFCURVE",
"433 125 OFFCURVE",
"436 254 CURVE SMOOTH",
"439 374 OFFCURVE",
"407 464 OFFCURVE",
"279 464 CURVE SMOOTH",
"189 464 OFFCURVE",
"114 409 OFFCURVE",
"85 318 CURVE",
"138 297 LINE"
);
},
{
closed = 1;
nodes = (
"219 232 OFFCURVE",
"78 183 OFFCURVE",
"84 75 CURVE SMOOTH",
"88 5 OFFCURVE",
"143 -24 OFFCURVE",
"217 -18 CURVE SMOOTH",
"284 -13 OFFCURVE",
"355 31 OFFCURVE",
"408 99 CURVE",
"369 131 LINE",
"329 83 OFFCURVE",
"283 56 OFFCURVE",
"244 47 CURVE SMOOTH",
"201 38 OFFCURVE",
"176 54 OFFCURVE",
"173 85 CURVE SMOOTH",
"169 131 OFFCURVE",
"220 171 OFFCURVE",
"379 194 CURVE",
"375 248 LINE"
);
},
{
closed = 1;
nodes = (
"223 503 LINE",
"410 651 LINE",
"322 718 LINE",
"173 538 LINE"
);
}
);
};
components = (
{
name = a;
},
{
name = acutecomb;
transform = "{1, 0, 0, 1, 260, 0}";
}
);
layerId = "523CE715-D489-4446-A5DE-4E6CA80777EE";
width = 595;
}
);
unicode = 00E1;
userData = {
com.typemytype.robofont.mark = (
0.6,
0.986,
1,
1
);
};
},
{
color = 6;
glyphname = acircumflex;
lastChange = "2018-05-20 14:18:03 +0000";
layers = (
{
background = {
anchors = (
{
name = top;
position = "{260, 438}";
}
);
paths = (
{
closed = 1;
nodes = (
"161 356 OFFCURVE",
"204 388 OFFCURVE",
"264 388 CURVE SMOOTH",
"336 388 OFFCURVE",
"363 349 OFFCURVE",
"357 246 CURVE SMOOTH",
"350 131 OFFCURVE",
"343 -18 OFFCURVE",
"452 -18 CURVE SMOOTH",
"508 -18 OFFCURVE",
"548 18 OFFCURVE",
"584 78 CURVE",
"544 105 LINE",
"526 81 OFFCURVE",
"501 58 OFFCURVE",
"478 58 CURVE SMOOTH",
"431 58 OFFCURVE",
"433 125 OFFCURVE",
"436 254 CURVE SMOOTH",
"439 374 OFFCURVE",
"407 464 OFFCURVE",
"279 464 CURVE SMOOTH",
"189 464 OFFCURVE",
"114 409 OFFCURVE",
"85 318 CURVE",
"138 297 LINE"
);
},
{
closed = 1;
nodes = (
"219 232 OFFCURVE",
"78 183 OFFCURVE",
"84 75 CURVE SMOOTH",
"88 5 OFFCURVE",
"143 -24 OFFCURVE",
"217 -18 CURVE SMOOTH",
"284 -13 OFFCURVE",
"355 31 OFFCURVE",
"408 99 CURVE",
"369 131 LINE",
"329 83 OFFCURVE",
"283 56 OFFCURVE",
"244 47 CURVE SMOOTH",
"201 38 OFFCURVE",
"176 54 OFFCURVE",
"173 85 CURVE SMOOTH",
"169 131 OFFCURVE",
"220 171 OFFCURVE",
"379 194 CURVE",
"375 248 LINE"
);
},
{
closed = 1;
nodes = (
"106 518 LINE",
"156 491 LINE",
"269 642 LINE",
"234 642 LINE",
"364 498 LINE",
"409 526 LINE",
"294 704 LINE",
"207 702 LINE"
);
}
);
};
components = (
{
name = a;
},
{
name = circumflexcomb;
transform = "{1, 0, 0, 1, 260, 0}";
}
);
layerId = "523CE715-D489-4446-A5DE-4E6CA80777EE";
width = 595;
}
);
unicode = 00E2;
userData = {
com.typemytype.robofont.mark = (
0.6,
0.986,
1,
1
);
};
},
{
color = 6;
glyphname = adieresis;
lastChange = "2018-05-20 14:18:03 +0000";
layers = (
{
background = {
anchors = (
{
name = top;
position = "{260, 438}";
}
);
paths = (
{
closed = 1;
nodes = (
"161 356 OFFCURVE",
"204 388 OFFCURVE",
"264 388 CURVE SMOOTH",
"336 388 OFFCURVE",
"363 349 OFFCURVE",
"357 246 CURVE SMOOTH",
"350 131 OFFCURVE",
"343 -18 OFFCURVE",
"452 -18 CURVE SMOOTH",
"508 -18 OFFCURVE",
"548 18 OFFCURVE",
"584 78 CURVE",
"544 105 LINE",
"526 81 OFFCURVE",
"501 58 OFFCURVE",
"478 58 CURVE SMOOTH",
"431 58 OFFCURVE",
"433 125 OFFCURVE",
"436 254 CURVE SMOOTH",
"439 374 OFFCURVE",
"407 464 OFFCURVE",
"279 464 CURVE SMOOTH",
"189 464 OFFCURVE",
"114 409 OFFCURVE",
"85 318 CURVE",
"138 297 LINE"
);
},
{
closed = 1;
nodes = (
"219 232 OFFCURVE",
"78 183 OFFCURVE",
"84 75 CURVE SMOOTH",
"88 5 OFFCURVE",
"143 -24 OFFCURVE",
"217 -18 CURVE SMOOTH",
"284 -13 OFFCURVE",
"355 31 OFFCURVE",
"408 99 CURVE",
"369 131 LINE",
"329 83 OFFCURVE",
"283 56 OFFCURVE",
"244 47 CURVE SMOOTH",
"201 38 OFFCURVE",
"176 54 OFFCURVE",
"173 85 CURVE SMOOTH",
"169 131 OFFCURVE",
"220 171 OFFCURVE",
"379 194 CURVE",
"375 248 LINE"
);
},
{
closed = 1;
nodes = (
"86 569 OFFCURVE",
"113 542 OFFCURVE",
"147 542 CURVE SMOOTH",
"181 542 OFFCURVE",
"208 569 OFFCURVE",
"208 603 CURVE SMOOTH",
"208 636 OFFCURVE",
"181 663 OFFCURVE",
"147 663 CURVE SMOOTH",
"113 663 OFFCURVE",
"86 636 OFFCURVE",
"86 603 CURVE SMOOTH"
);
},
{
closed = 1;
nodes = (
"313 574 OFFCURVE",
"340 547 OFFCURVE",
"374 547 CURVE SMOOTH",
"408 547 OFFCURVE",
"434 574 OFFCURVE",
"434 608 CURVE SMOOTH",
"434 641 OFFCURVE",
"408 668 OFFCURVE",
"374 668 CURVE SMOOTH",
"340 668 OFFCURVE",
"313 641 OFFCURVE",
"313 608 CURVE SMOOTH"
);
}
);
};
components = (
{
name = a;
},
{
name = dieresiscomb;
transform = "{1, 0, 0, 1, 260, 0}";
}
);
layerId = "523CE715-D489-4446-A5DE-4E6CA80777EE";
width = 595;
}
);
unicode = 00E4;
userData = {
com.typemytype.robofont.mark = (
0.6,
0.986,
1,
1
);
};
},
{
color = 6;
glyphname = agrave;
lastChange = "2018-05-20 14:18:03 +0000";
layers = (
{
background = {
anchors = (
{
name = top;
position = "{260, 438}";
}
);
paths = (
{
closed = 1;
nodes = (
"161 356 OFFCURVE",
"204 388 OFFCURVE",
"264 388 CURVE SMOOTH",
"336 388 OFFCURVE",
"363 349 OFFCURVE",
"357 246 CURVE SMOOTH",
"350 131 OFFCURVE",
"343 -18 OFFCURVE",
"452 -18 CURVE SMOOTH",
"508 -18 OFFCURVE",
"548 18 OFFCURVE",
"584 78 CURVE",
"544 105 LINE",
"526 81 OFFCURVE",
"501 58 OFFCURVE",
"478 58 CURVE SMOOTH",
"431 58 OFFCURVE",
"433 125 OFFCURVE",
"436 254 CURVE SMOOTH",
"439 374 OFFCURVE",
"407 464 OFFCURVE",
"279 464 CURVE SMOOTH",
"189 464 OFFCURVE",
"114 409 OFFCURVE",
"85 318 CURVE",
"138 297 LINE"
);
},
{
closed = 1;
nodes = (
"219 232 OFFCURVE",
"78 183 OFFCURVE",
"84 75 CURVE SMOOTH",
"88 5 OFFCURVE",
"143 -24 OFFCURVE",
"217 -18 CURVE SMOOTH",
"284 -13 OFFCURVE",
"355 31 OFFCURVE",
"408 99 CURVE",
"369 131 LINE",
"329 83 OFFCURVE",
"283 56 OFFCURVE",
"244 47 CURVE SMOOTH",
"201 38 OFFCURVE",
"176 54 OFFCURVE",
"173 85 CURVE SMOOTH",
"169 131 OFFCURVE",
"220 171 OFFCURVE",
"379 194 CURVE",
"375 248 LINE"
);
},
{
closed = 1;
nodes = (
"98 651 LINE",
"285 503 LINE",
"335 538 LINE",
"186 718 LINE"
);
}
);
};
components = (
{
name = a;
},
{
name = gravecomb;
transform = "{1, 0, 0, 1, 260, 0}";
}
);
layerId = "523CE715-D489-4446-A5DE-4E6CA80777EE";
width = 595;
}
);
unicode = 00E0;
userData = {
com.typemytype.robofont.mark = (
0.6,
0.986,
1,
1
);
};
},
{
color = 6;
glyphname = amacron;
lastChange = "2018-05-20 14:18:03 +0000";
layers = (
{
background = {
anchors = (
{
name = top;
position = "{260, 438}";
}
);
paths = (
{
closed = 1;
nodes = (
"161 356 OFFCURVE",
"204 388 OFFCURVE",
"264 388 CURVE SMOOTH",
"336 388 OFFCURVE",
"363 349 OFFCURVE",
"357 246 CURVE SMOOTH",
"350 131 OFFCURVE",
"343 -18 OFFCURVE",
"452 -18 CURVE SMOOTH",
"508 -18 OFFCURVE",
"548 18 OFFCURVE",
"584 78 CURVE",
"544 105 LINE",
"526 81 OFFCURVE",
"501 58 OFFCURVE",
"478 58 CURVE SMOOTH",
"431 58 OFFCURVE",
"433 125 OFFCURVE",
"436 254 CURVE SMOOTH",
"439 374 OFFCURVE",
"407 464 OFFCURVE",
"279 464 CURVE SMOOTH",
"189 464 OFFCURVE",
"114 409 OFFCURVE",
"85 318 CURVE",
"138 297 LINE"
);
},
{
closed = 1;
nodes = (
"219 232 OFFCURVE",
"78 183 OFFCURVE",
"84 75 CURVE SMOOTH",
"88 5 OFFCURVE",
"143 -24 OFFCURVE",
"217 -18 CURVE SMOOTH",
"284 -13 OFFCURVE",
"355 31 OFFCURVE",
"408 99 CURVE",
"369 131 LINE",
"329 83 OFFCURVE",
"283 56 OFFCURVE",
"244 47 CURVE SMOOTH",
"201 38 OFFCURVE",
"176 54 OFFCURVE",
"173 85 CURVE SMOOTH",
"169 131 OFFCURVE",
"220 171 OFFCURVE",
"379 194 CURVE",
"375 248 LINE"
);
},
{
closed = 1;
nodes = (
"421 556 LINE",
"426 639 LINE",
"90 631 LINE",
"93 559 LINE"
);
}
);
};
components = (
{
name = a;
},
{
name = macroncomb;
transform = "{1, 0, 0, 1, 260, 0}";
}
);
layerId = "523CE715-D489-4446-A5DE-4E6CA80777EE";
width = 595;
}
);
unicode = 0101;
userData = {
com.typemytype.robofont.mark = (
0.6,
0.986,
1,
1
);
};
},
{
color = 0;
glyphname = aring;
lastChange = "2018-05-20 14:18:03 +0000";
layers = (
{
background = {
paths = (
{
closed = 1;
nodes = (
"198 478 OFFCURVE",
"327 482 OFFCURVE",
"356 466 QCURVE",
"411 436 OFFCURVE",
"413 258 QCURVE",
"413 169 OFFCURVE",
"454 73 OFFCURVE",
"488 82 QCURVE",
"514 89 OFFCURVE",
"516 72 QCURVE",
"518 53 OFFCURVE",
"491 30 QCURVE",
"485 25 OFFCURVE",
"479 21 QCURVE",
"443 -3 OFFCURVE",
"387 17 OFFCURVE",
"373 59 QCURVE",
"357 103 LINE",
"293 53 LINE",
"214 -6 OFFCURVE",
"133 -19 QCURVE",
"63 -30 OFFCURVE",
"41 2 QCURVE",
"33 13 OFFCURVE",
"33 28 QCURVE",
"33 63 OFFCURVE",
"89 161 OFFCURVE",
"120 178 QCURVE",
"136 188 OFFCURVE",
"212 212 OFFCURVE",
"249 220 QCURVE",
"341 239 LINE",
"341 306 LINE",
"341 334 OFFCURVE",
"331 384 OFFCURVE",
"323 391 QCURVE",
"308 407 OFFCURVE",
"245 411 OFFCURVE",
"178 391 OFFCURVE",
"110 348 OFFCURVE",
"89 321 QCURVE",
"59 283 OFFCURVE",
"19 284 OFFCURVE",
"19 323 QCURVE",
"19 349 OFFCURVE",
"111 440 OFFCURVE",
"158 461 QCURVE"
);
},
{
closed = 1;
nodes = (
"319 144 LINE",
"268 143 LINE",
"218 143 OFFCURVE",
"138 113 OFFCURVE",
"130 91 QCURVE",
"121 68 OFFCURVE",
"129 60 QCURVE",
"138 51 OFFCURVE",
"258 93 OFFCURVE",
"285 116 QCURVE"
);
},
{
closed = 1;
nodes = (
"178 755 OFFCURVE",
"213 772 OFFCURVE",
"221 768 QCURVE",
"241 760 OFFCURVE",
"254 760 QCURVE",
"259 760 OFFCURVE",
"280 733 OFFCURVE",
"289 714 QCURVE",
"304 683 OFFCURVE",
"304 651 OFFCURVE",
"286 615 QCURVE",
"273 589 OFFCURVE",
"238 554 OFFCURVE",
"201 541 OFFCURVE",
"166 548 OFFCURVE",
"138 572 OFFCURVE",
"121 617 OFFCURVE",
"121 646 QCURVE",
"121 678 OFFCURVE",
"139 719 OFFCURVE",
"161 740 QCURVE"
);
},
{
closed = 1;
nodes = (
"238 673 OFFCURVE",
"228 687 OFFCURVE",
"218 687 QCURVE",
"208 687 OFFCURVE",
"194 669 OFFCURVE",
"194 656 QCURVE",
"194 634 OFFCURVE",
"223 630 OFFCURVE",
"231 649 QCURVE",
"234 655 OFFCURVE",
"235 662 QCURVE"
);
}
);
};
layerId = "523CE715-D489-4446-A5DE-4E6CA80777EE";
paths = (
{
closed = 1;
nodes = (
"198 478 OFFCURVE",
"327 482 OFFCURVE",
"356 466 QCURVE",
"411 436 OFFCURVE",
"413 258 QCURVE",
"413 169 OFFCURVE",
"454 73 OFFCURVE",
"488 82 QCURVE",
"514 89 OFFCURVE",
"516 72 QCURVE",
"518 53 OFFCURVE",
"491 30 QCURVE",
"485 25 OFFCURVE",
"479 21 QCURVE",
"443 -3 OFFCURVE",
"387 17 OFFCURVE",
"373 59 QCURVE",
"357 103 LINE",
"293 53 LINE",
"214 -6 OFFCURVE",
"133 -19 QCURVE",
"63 -30 OFFCURVE",
"41 2 QCURVE",
"33 13 OFFCURVE",
"33 28 QCURVE",
"33 63 OFFCURVE",
"89 161 OFFCURVE",
"120 178 QCURVE",
"136 188 OFFCURVE",
"212 212 OFFCURVE",
"249 220 QCURVE",
"341 239 LINE",
"341 306 LINE",
"341 334 OFFCURVE",
"331 384 OFFCURVE",
"323 391 QCURVE",
"308 407 OFFCURVE",
"245 411 OFFCURVE",
"178 391 OFFCURVE",
"110 348 OFFCURVE",
"89 321 QCURVE",
"59 283 OFFCURVE",
"19 284 OFFCURVE",
"19 323 QCURVE",
"19 349 OFFCURVE",
"111 440 OFFCURVE",
"158 461 QCURVE"
);
},
{
closed = 1;
nodes = (
"319 144 LINE",
"268 143 LINE",
"218 143 OFFCURVE",
"138 113 OFFCURVE",
"130 91 QCURVE",
"121 68 OFFCURVE",
"129 60 QCURVE",
"138 51 OFFCURVE",
"258 93 OFFCURVE",
"285 116 QCURVE"
);
},
{
closed = 1;
nodes = (
"178 755 OFFCURVE",
"213 772 OFFCURVE",
"221 768 QCURVE",
"241 760 OFFCURVE",
"254 760 QCURVE",
"259 760 OFFCURVE",
"280 733 OFFCURVE",
"289 714 QCURVE",
"304 683 OFFCURVE",
"304 651 OFFCURVE",
"286 615 QCURVE",
"273 589 OFFCURVE",
"238 554 OFFCURVE",
"201 541 OFFCURVE",
"166 548 OFFCURVE",
"138 572 OFFCURVE",
"121 617 OFFCURVE",
"121 646 QCURVE",
"121 678 OFFCURVE",
"139 719 OFFCURVE",
"161 740 QCURVE"
);
},
{
closed = 1;
nodes = (
"238 673 OFFCURVE",
"228 687 OFFCURVE",
"218 687 QCURVE",
"208 687 OFFCURVE",
"194 669 OFFCURVE",
"194 656 QCURVE",
"194 634 OFFCURVE",
"223 630 OFFCURVE",
"231 649 QCURVE",
"234 655 OFFCURVE",
"235 662 QCURVE"
);
}
);
width = 535;
}
);
unicode = 00E5;
},
{
color = 6;
glyphname = atilde;
lastChange = "2018-05-20 14:18:03 +0000";
layers = (
{
background = {
anchors = (
{
name = top;
position = "{260, 438}";
}
);
paths = (
{
closed = 1;
nodes = (
"161 356 OFFCURVE",
"204 388 OFFCURVE",
"264 388 CURVE SMOOTH",
"336 388 OFFCURVE",
"363 349 OFFCURVE",
"357 246 CURVE SMOOTH",
"350 131 OFFCURVE",
"343 -18 OFFCURVE",
"452 -18 CURVE SMOOTH",
"508 -18 OFFCURVE",
"548 18 OFFCURVE",
"584 78 CURVE",
"544 105 LINE",
"526 81 OFFCURVE",
"501 58 OFFCURVE",
"478 58 CURVE SMOOTH",
"431 58 OFFCURVE",
"433 125 OFFCURVE",
"436 254 CURVE SMOOTH",
"439 374 OFFCURVE",
"407 464 OFFCURVE",
"279 464 CURVE SMOOTH",
"189 464 OFFCURVE",
"114 409 OFFCURVE",
"85 318 CURVE",
"138 297 LINE"
);
},
{
closed = 1;
nodes = (
"219 232 OFFCURVE",
"78 183 OFFCURVE",
"84 75 CURVE SMOOTH",
"88 5 OFFCURVE",
"143 -24 OFFCURVE",
"217 -18 CURVE SMOOTH",
"284 -13 OFFCURVE",
"355 31 OFFCURVE",
"408 99 CURVE",
"369 131 LINE",
"329 83 OFFCURVE",
"283 56 OFFCURVE",
"244 47 CURVE SMOOTH",
"201 38 OFFCURVE",
"176 54 OFFCURVE",
"173 85 CURVE SMOOTH",
"169 131 OFFCURVE",
"220 171 OFFCURVE",
"379 194 CURVE",
"375 248 LINE"
);
},
{
closed = 1;
nodes = (
"125 576 OFFCURVE",
"148 593 OFFCURVE",
"176 593 CURVE SMOOTH",
"233 593 OFFCURVE",
"263 525 OFFCURVE",
"336 525 CURVE SMOOTH",
"392 525 OFFCURVE",
"431 576 OFFCURVE",
"450 649 CURVE",
"406 664 LINE",
"388 623 OFFCURVE",
"370 596 OFFCURVE",
"344 596 CURVE SMOOTH",
"294 596 OFFCURVE",
"268 673 OFFCURVE",
"190 673 CURVE SMOOTH",
"143 673 OFFCURVE",
"100 638 OFFCURVE",
"66 579 CURVE",
"103 551 LINE"
);
}
);
};
components = (
{
name = a;
},
{
name = tildecomb;
transform = "{1, 0, 0, 1, 260, 0}";
}
);
layerId = "523CE715-D489-4446-A5DE-4E6CA80777EE";
width = 595;
}
);
unicode = 00E3;
userData = {
com.typemytype.robofont.mark = (
0.6,
0.986,
1,
1
);
};
},
{
color = 0;
glyphname = ae;
lastChange = "2018-05-20 14:18:03 +0000";
layers = (
{
background = {
paths = (
{
closed = 1;
nodes = (
"226 434 OFFCURVE",
"269 429 OFFCURVE",
"300 413 QCURVE",
"326 400 OFFCURVE",
"372 398 OFFCURVE",
"473 419 OFFCURVE",
"519 417 OFFCURVE",
"543 403 QCURVE",
"581 383 OFFCURVE",
"650 279 OFFCURVE",
"646 251 QCURVE",
"643 233 OFFCURVE",
"581 196 OFFCURVE",
"489 172 OFFCURVE",
"446 171 QCURVE",
"386 171 OFFCURVE",
"386 154 QCURVE",
"386 144 OFFCURVE",
"406 128 QCURVE",
"426 110 OFFCURVE",
"513 109 OFFCURVE",
"543 126 QCURVE",
"572 141 OFFCURVE",
"594 131 OFFCURVE",
"584 106 QCURVE",
"579 92 OFFCURVE",
"524 60 OFFCURVE",
"453 35 OFFCURVE",
"374 16 OFFCURVE",
"316 16 OFFCURVE",
"303 25 QCURVE",
"289 36 OFFCURVE",
"244 30 OFFCURVE",
"186 9 QCURVE",
"19 -49 OFFCURVE",
"19 44 QCURVE",
"19 79 OFFCURVE",
"98 168 OFFCURVE",
"211 229 OFFCURVE",
"256 229 QCURVE",
"273 229 OFFCURVE",
"282 250 OFFCURVE",
"279 284 QCURVE",
"276 320 OFFCURVE",
"261 341 OFFCURVE",
"234 344 QCURVE",
"193 349 OFFCURVE",
"125 300 OFFCURVE",
"117 260 QCURVE",
"112 234 OFFCURVE",
"88 211 OFFCURVE",
"64 224 OFFCURVE",
"59 247 QCURVE",
"53 280 OFFCURVE",
"42 304 QCURVE",
"36 318 OFFCURVE",
"60 348 OFFCURVE",
"95 373 QCURVE",
"121 391 OFFCURVE",
"175 421 OFFCURVE",
"187 424 QCURVE"
);
},
{
closed = 1;
nodes = (
"531 316 OFFCURVE",
"477 341 OFFCURVE",
"421 330 OFFCURVE",
"403 307 QCURVE",
"392 292 OFFCURVE",
"385 276 OFFCURVE",
"395 263 OFFCURVE",
"421 256 OFFCURVE",
"448 253 QCURVE",
"556 236 OFFCURVE",
"551 274 QCURVE",
"550 281 OFFCURVE",
"546 289 QCURVE"
);
},
{
closed = 1;
nodes = (
"262 147 OFFCURVE",
"176 132 OFFCURVE",
"143 104 QCURVE",
"99 66 LINE",
"151 73 LINE",
"186 78 OFFCURVE",
"248 97 OFFCURVE",
"280 118 OFFCURVE",
"275 126 QCURVE"
);
}
);
};
layerId = "523CE715-D489-4446-A5DE-4E6CA80777EE";
paths = (
{
closed = 1;
nodes = (
"226 434 OFFCURVE",
"269 429 OFFCURVE",
"300 413 QCURVE",
"326 400 OFFCURVE",
"372 398 OFFCURVE",
"473 419 OFFCURVE",
"519 417 OFFCURVE",
"543 403 QCURVE",
"581 383 OFFCURVE",
"650 279 OFFCURVE",
"646 251 QCURVE",
"643 233 OFFCURVE",
"581 196 OFFCURVE",
"489 172 OFFCURVE",
"446 171 QCURVE",
"386 171 OFFCURVE",
"386 154 QCURVE",
"386 144 OFFCURVE",
"406 128 QCURVE",
"426 110 OFFCURVE",
"513 109 OFFCURVE",
"543 126 QCURVE",
"572 141 OFFCURVE",
"594 131 OFFCURVE",
"584 106 QCURVE",
"579 92 OFFCURVE",
"524 60 OFFCURVE",
"453 35 OFFCURVE",
"374 16 OFFCURVE",
"316 16 OFFCURVE",
"303 25 QCURVE",
"289 36 OFFCURVE",
"244 30 OFFCURVE",
"186 9 QCURVE",
"19 -49 OFFCURVE",
"19 44 QCURVE",
"19 79 OFFCURVE",
"98 168 OFFCURVE",
"211 229 OFFCURVE",
"256 229 QCURVE",
"273 229 OFFCURVE",
"282 250 OFFCURVE",
"279 284 QCURVE",
"276 320 OFFCURVE",
"261 341 OFFCURVE",
"234 344 QCURVE",
"193 349 OFFCURVE",
"125 300 OFFCURVE",
"117 260 QCURVE",
"112 234 OFFCURVE",
"88 211 OFFCURVE",
"64 224 OFFCURVE",
"59 247 QCURVE",
"53 280 OFFCURVE",
"42 304 QCURVE",
"36 318 OFFCURVE",
"60 348 OFFCURVE",
"95 373 QCURVE",
"121 391 OFFCURVE",
"175 421 OFFCURVE",
"187 424 QCURVE"
);
},
{
closed = 1;
nodes = (
"531 316 OFFCURVE",
"477 341 OFFCURVE",
"421 330 OFFCURVE",
"403 307 QCURVE",
"392 292 OFFCURVE",
"385 276 OFFCURVE",
"395 263 OFFCURVE",
"421 256 OFFCURVE",
"448 253 QCURVE",
"556 236 OFFCURVE",
"551 274 QCURVE",
"550 281 OFFCURVE",
"546 289 QCURVE"
);
},
{
closed = 1;
nodes = (
"262 147 OFFCURVE",
"176 132 OFFCURVE",
"143 104 QCURVE",
"99 66 LINE",
"151 73 LINE",
"186 78 OFFCURVE",
"248 97 OFFCURVE",
"280 118 OFFCURVE",
"275 126 QCURVE"
);
}
);
width = 665;
}
);
unicode = 00E6;
},
{
glyphname = b;
lastChange = "2018-05-20 14:18:03 +0000";
layers = (
{
background = {
paths = (
{
closed = 1;
nodes = (
"13 560 LINE",
"124 568 LINE",
"100 585 LINE",
"98 399 OFFCURVE",
"105 204 OFFCURVE",
"121 18 CURVE",
"156 -9 OFFCURVE",
"214 -30 OFFCURVE",
"279 -30 CURVE SMOOTH",
"440 -30 OFFCURVE",
"521 113 OFFCURVE",
"521 248 CURVE SMOOTH",
"521 378 OFFCURVE",
"449 447 OFFCURVE",
"356 447 CURVE SMOOTH",
"253 447 OFFCURVE",
"173 368 OFFCURVE",
"143 233 CURVE",
"179 211 LINE",
"204 294 OFFCURVE",
"253 374 OFFCURVE",
"336 374 CURVE SMOOTH",
"414 374 OFFCURVE",
"441 310 OFFCURVE",
"441 239 CURVE SMOOTH",
"441 148 OFFCURVE",
"396 43 OFFCURVE",
"274 43 CURVE SMOOTH",
"210 43 OFFCURVE",
"166 65 OFFCURVE",
"123 90 CURVE",
"197 41 LINE",
"178 246 OFFCURVE",
"176 454 OFFCURVE",
"176 654 CURVE",
"6 622 LINE"
);
}
);
};
layerId = "523CE715-D489-4446-A5DE-4E6CA80777EE";
paths = (
{
closed = 1;
nodes = (
"13 560 LINE",
"124 568 LINE",
"100 585 LINE",
"98 399 OFFCURVE",
"105 204 OFFCURVE",
"121 18 CURVE",
"156 -9 OFFCURVE",
"214 -30 OFFCURVE",
"279 -30 CURVE SMOOTH",
"440 -30 OFFCURVE",
"521 113 OFFCURVE",
"521 248 CURVE SMOOTH",
"521 378 OFFCURVE",
"449 447 OFFCURVE",
"356 447 CURVE SMOOTH",
"253 447 OFFCURVE",
"173 368 OFFCURVE",
"143 233 CURVE",
"179 211 LINE",
"204 294 OFFCURVE",
"253 374 OFFCURVE",
"336 374 CURVE SMOOTH",
"414 374 OFFCURVE",
"441 310 OFFCURVE",
"441 239 CURVE SMOOTH",
"441 148 OFFCURVE",
"396 43 OFFCURVE",
"274 43 CURVE SMOOTH",
"210 43 OFFCURVE",
"166 65 OFFCURVE",
"123 90 CURVE",
"197 41 LINE",
"178 246 OFFCURVE",
"176 454 OFFCURVE",
"176 654 CURVE",
"6 622 LINE"
);
}
);
width = 618;
}
);
unicode = 0062;
userData = {
com.typemytype.robofont.mark = (
0.656,
1,
0.6,
1
);
};
},
{
glyphname = c;
lastChange = "2018-05-20 14:18:03 +0000";
layers = (
{
anchors = (
{
name = top;
position = "{306, 438}";
}
);
background = {
anchors = (
{
name = top;
position = "{306, 438}";
}
);
paths = (
{
closed = 1;
nodes = (
"431 404 OFFCURVE",
"370 456 OFFCURVE",
"285 456 CURVE SMOOTH",
"188 456 OFFCURVE",
"94 379 OFFCURVE",
"69 258 CURVE SMOOTH",
"37 104 OFFCURVE",
"113 -48 OFFCURVE",
"289 -48 CURVE SMOOTH",
"391 -48 OFFCURVE",
"452 9 OFFCURVE",
"493 81 CURVE",
"445 114 LINE",
"411 58 OFFCURVE",
"364 21 OFFCURVE",
"296 21 CURVE SMOOTH",
"202 21 OFFCURVE",
"130 106 OFFCURVE",
"148 229 CURVE SMOOTH",
"162 330 OFFCURVE",
"226 386 OFFCURVE",
"297 386 CURVE SMOOTH",
"349 386 OFFCURVE",
"391 358 OFFCURVE",
"413 298 CURVE",
"403 357 LINE",
"421 228 LINE",
"476 220 LINE",
"501 471 LINE",
"421 479 LINE",
"418 364 LINE",
"445 310 LINE"
);
}
);
};
layerId = "523CE715-D489-4446-A5DE-4E6CA80777EE";
paths = (
{
closed = 1;
nodes = (
"431 404 OFFCURVE",
"370 456 OFFCURVE",
"285 456 CURVE SMOOTH",
"188 456 OFFCURVE",
"94 379 OFFCURVE",
"69 258 CURVE SMOOTH",
"37 104 OFFCURVE",
"113 -48 OFFCURVE",
"289 -48 CURVE SMOOTH",
"391 -48 OFFCURVE",
"452 9 OFFCURVE",
"493 81 CURVE",
"445 114 LINE",
"411 58 OFFCURVE",
"364 21 OFFCURVE",
"296 21 CURVE SMOOTH",
"202 21 OFFCURVE",
"130 106 OFFCURVE",
"148 229 CURVE SMOOTH",
"162 330 OFFCURVE",
"226 386 OFFCURVE",
"297 386 CURVE SMOOTH",
"349 386 OFFCURVE",
"391 358 OFFCURVE",
"413 298 CURVE",
"403 357 LINE",
"421 228 LINE",
"476 220 LINE",
"501 471 LINE",
"421 479 LINE",
"418 364 LINE",
"445 310 LINE"
);
}
);
width = 589;
}
);
unicode = 0063;
userData = {
com.typemytype.robofont.mark = (
0.656,
1,
0.6,
1
);
};
},
{
color = 6;
glyphname = cacute;
lastChange = "2018-05-20 14:18:03 +0000";
layers = (
{
background = {
anchors = (
{
name = top;
position = "{306, 438}";
}
);
paths = (
{
closed = 1;
nodes = (
"431 404 OFFCURVE",
"370 456 OFFCURVE",
"285 456 CURVE SMOOTH",
"188 456 OFFCURVE",
"94 379 OFFCURVE",
"69 258 CURVE SMOOTH",
"37 104 OFFCURVE",
"113 -48 OFFCURVE",
"289 -48 CURVE SMOOTH",
"391 -48 OFFCURVE",
"452 9 OFFCURVE",
"493 81 CURVE",
"445 114 LINE",
"411 58 OFFCURVE",
"364 21 OFFCURVE",
"296 21 CURVE SMOOTH",
"202 21 OFFCURVE",
"130 106 OFFCURVE",
"148 229 CURVE SMOOTH",
"162 330 OFFCURVE",
"226 386 OFFCURVE",
"297 386 CURVE SMOOTH",
"349 386 OFFCURVE",
"391 358 OFFCURVE",
"413 298 CURVE",
"403 357 LINE",
"421 228 LINE",
"476 220 LINE",
"501 471 LINE",
"421 479 LINE",
"418 364 LINE",
"445 310 LINE"
);
},
{
closed = 1;
nodes = (
"269 503 LINE",
"456 651 LINE",
"368 718 LINE",
"219 538 LINE"
);
}
);
};
components = (
{
name = c;
},
{
name = acutecomb;
transform = "{1, 0, 0, 1, 306, 0}";
}
);
layerId = "523CE715-D489-4446-A5DE-4E6CA80777EE";
width = 589;
}
);
unicode = 0107;
userData = {
com.typemytype.robofont.mark = (
0.6,
0.986,
1,
1
);
};
},
{
color = 6;
glyphname = ccaron;
lastChange = "2018-05-20 14:18:03 +0000";
layers = (
{
background = {
anchors = (
{
name = top;
position = "{306, 438}";
}
);
paths = (
{
closed = 1;
nodes = (
"431 404 OFFCURVE",
"370 456 OFFCURVE",
"285 456 CURVE SMOOTH",
"188 456 OFFCURVE",
"94 379 OFFCURVE",
"69 258 CURVE SMOOTH",
"37 104 OFFCURVE",
"113 -48 OFFCURVE",
"289 -48 CURVE SMOOTH",
"391 -48 OFFCURVE",
"452 9 OFFCURVE",
"493 81 CURVE",
"445 114 LINE",
"411 58 OFFCURVE",
"364 21 OFFCURVE",
"296 21 CURVE SMOOTH",
"202 21 OFFCURVE",
"130 106 OFFCURVE",
"148 229 CURVE SMOOTH",
"162 330 OFFCURVE",
"226 386 OFFCURVE",
"297 386 CURVE SMOOTH",
"349 386 OFFCURVE",
"391 358 OFFCURVE",
"413 298 CURVE",
"403 357 LINE",
"421 228 LINE",
"476 220 LINE",
"501 471 LINE",
"421 479 LINE",
"418 364 LINE",
"445 310 LINE"
);
},
{
closed = 1;
nodes = (
"428 697 LINE",
"378 723 LINE",
"265 573 LINE",
"300 573 LINE",
"170 716 LINE",
"124 689 LINE",
"240 510 LINE",
"327 513 LINE"
);
}
);
};
components = (
{
name = c;
},
{
name = caroncomb;
transform = "{1, 0, 0, 1, 281, 0}";
}
);
layerId = "523CE715-D489-4446-A5DE-4E6CA80777EE";
width = 589;
}
);
unicode = 010D;
userData = {
com.typemytype.robofont.mark = (
0.6,
0.986,
1,
1
);
};
},
{
color = 6;
glyphname = ccedilla;
lastChange = "2018-05-20 14:18:03 +0000";
layers = (
{
background = {
anchors = (
{
name = top;
position = "{306, 438}";
}
);
paths = (
{
closed = 1;
nodes = (
"431 404 OFFCURVE",
"370 456 OFFCURVE",
"285 456 CURVE SMOOTH",
"188 456 OFFCURVE",
"94 379 OFFCURVE",
"69 258 CURVE SMOOTH",
"37 104 OFFCURVE",
"113 -48 OFFCURVE",
"289 -48 CURVE SMOOTH",
"391 -48 OFFCURVE",
"452 9 OFFCURVE",
"493 81 CURVE",
"445 114 LINE",
"411 58 OFFCURVE",
"364 21 OFFCURVE",
"296 21 CURVE SMOOTH",
"202 21 OFFCURVE",
"130 106 OFFCURVE",
"148 229 CURVE SMOOTH",
"162 330 OFFCURVE",
"226 386 OFFCURVE",
"297 386 CURVE SMOOTH",
"349 386 OFFCURVE",
"391 358 OFFCURVE",
"413 298 CURVE",
"403 357 LINE",
"421 228 LINE",
"476 220 LINE",
"501 471 LINE",
"421 479 LINE",
"418 364 LINE",
"445 310 LINE"
);
},
{
closed = 1;
nodes = (
"193 -134 LINE",
"199 -145 LINE",
"243 -130 OFFCURVE",
"316 -113 OFFCURVE",
"316 -159 CURVE SMOOTH",
"316 -206 OFFCURVE",
"263 -218 OFFCURVE",
"199 -208 CURVE",
"188 -257 LINE",
"281 -277 OFFCURVE",
"379 -254 OFFCURVE",
"391 -168 CURVE SMOOTH",
"403 -81 OFFCURVE",
"322 -55 OFFCURVE",
"220 -101 CURVE",
"274 -101 LINE",
"328 0 LINE",
"264 0 LINE"
);
}
);
};
components = (
{
name = c;
},
{
name = cedillacomb;
transform = "{1, 0, 0, 1, 288, 0}";
}
);
layerId = "523CE715-D489-4446-A5DE-4E6CA80777EE";
width = 589;
}
);
unicode = 00E7;
userData = {
com.typemytype.robofont.mark = (
0.6,
0.986,
1,
1
);
};
},
{
color = 6;
glyphname = ccircumflex;
lastChange = "2018-05-20 14:18:03 +0000";
layers = (
{
background = {
anchors = (
{
name = top;
position = "{306, 438}";
}
);
paths = (
{
closed = 1;
nodes = (
"431 404 OFFCURVE",
"370 456 OFFCURVE",
"285 456 CURVE SMOOTH",
"188 456 OFFCURVE",
"94 379 OFFCURVE",
"69 258 CURVE SMOOTH",
"37 104 OFFCURVE",
"113 -48 OFFCURVE",
"289 -48 CURVE SMOOTH",
"391 -48 OFFCURVE",
"452 9 OFFCURVE",
"493 81 CURVE",
"445 114 LINE",
"411 58 OFFCURVE",
"364 21 OFFCURVE",
"296 21 CURVE SMOOTH",
"202 21 OFFCURVE",
"130 106 OFFCURVE",
"148 229 CURVE SMOOTH",
"162 330 OFFCURVE",
"226 386 OFFCURVE",
"297 386 CURVE SMOOTH",
"349 386 OFFCURVE",
"391 358 OFFCURVE",
"413 298 CURVE",
"403 357 LINE",
"421 228 LINE",
"476 220 LINE",
"501 471 LINE",
"421 479 LINE",
"418 364 LINE",
"445 310 LINE"
);
},
{
closed = 1;
nodes = (
"146 524 LINE",
"196 498 LINE",
"309 648 LINE",
"274 648 LINE",
"404 504 LINE",
"449 532 LINE",
"334 711 LINE",
"247 708 LINE"
);
}
);
};
components = (
{
name = c;
},
{
name = circumflexcomb;
transform = "{1, 0, 0, 1, 300, 6}";
}
);
layerId = "523CE715-D489-4446-A5DE-4E6CA80777EE";
width = 589;
}
);
unicode = 0109;
userData = {
com.typemytype.robofont.mark = (
0.6,
0.986,
1,
1
);
};
},
{
color = 6;
glyphname = cdotaccent;
lastChange = "2018-05-20 14:18:03 +0000";
layers = (
{
background = {
anchors = (
{
name = top;
position = "{306, 438}";
}
);
paths = (
{
closed = 1;
nodes = (
"431 404 OFFCURVE",
"370 456 OFFCURVE",
"285 456 CURVE SMOOTH",
"188 456 OFFCURVE",
"94 379 OFFCURVE",
"69 258 CURVE SMOOTH",
"37 104 OFFCURVE",
"113 -48 OFFCURVE",
"289 -48 CURVE SMOOTH",
"391 -48 OFFCURVE",
"452 9 OFFCURVE",
"493 81 CURVE",
"445 114 LINE",
"411 58 OFFCURVE",
"364 21 OFFCURVE",
"296 21 CURVE SMOOTH",
"202 21 OFFCURVE",
"130 106 OFFCURVE",
"148 229 CURVE SMOOTH",
"162 330 OFFCURVE",
"226 386 OFFCURVE",
"297 386 CURVE SMOOTH",
"349 386 OFFCURVE",
"391 358 OFFCURVE",
"413 298 CURVE",
"403 357 LINE",
"421 228 LINE",
"476 220 LINE",
"501 471 LINE",
"421 479 LINE",
"418 364 LINE",
"445 310 LINE"
);
},
{
closed = 1;
nodes = (
"218 574 OFFCURVE",
"246 543 OFFCURVE",
"289 540 CURVE SMOOTH",
"348 536 OFFCURVE",
"369 574 OFFCURVE",
"369 616 CURVE SMOOTH",
"369 658 OFFCURVE",
"341 694 OFFCURVE",
"294 692 CURVE SMOOTH",
"253 689 OFFCURVE",
"218 658 OFFCURVE",
"218 616 CURVE SMOOTH"
);
}
);
};
components = (
{
name = c;
},
{
name = dotaccentcomb;
transform = "{1, 0, 0, 1, 294, 0}";
}
);
layerId = "523CE715-D489-4446-A5DE-4E6CA80777EE";
width = 589;
}
);
unicode = 010B;
userData = {
com.typemytype.robofont.mark = (
0.6,
0.986,
1,
1
);
};
},
{
glyphname = d;
lastChange = "2018-05-20 14:18:03 +0000";
layers = (
{
background = {
paths = (
{
closed = 1;
nodes = (
"326 596 LINE",
"461 588 LINE",
"441 601 LINE",
"451 392 OFFCURVE",
"449 185 OFFCURVE",
"440 -24 CURVE",
"653 -5 LINE",
"649 55 LINE",
"488 52 LINE",
"519 41 LINE",
"529 245 OFFCURVE",
"524 454 OFFCURVE",
"513 656 CURVE",
"331 665 LINE"
);
},
{
closed = 1;
nodes = (
"449 385 OFFCURVE",
"383 439 OFFCURVE",
"294 439 CURVE SMOOTH",
"183 439 OFFCURVE",
"93 357 OFFCURVE",
"76 223 CURVE SMOOTH",
"56 67 OFFCURVE",
"147 -11 OFFCURVE",
"248 -11 CURVE SMOOTH",
"357 -11 OFFCURVE",
"429 51 OFFCURVE",
"486 144 CURVE",
"449 185 LINE",
"392 99 OFFCURVE",
"330 60 OFFCURVE",
"258 60 CURVE SMOOTH",
"201 60 OFFCURVE",
"138 98 OFFCURVE",
"154 223 CURVE SMOOTH",
"165 304 OFFCURVE",
"224 369 OFFCURVE",
"303 369 CURVE SMOOTH",
"367 369 OFFCURVE",
"416 331 OFFCURVE",
"451 282 CURVE",
"486 322 LINE"
);
}
);
};
layerId = "523CE715-D489-4446-A5DE-4E6CA80777EE";
paths = (
{
closed = 1;
nodes = (
"326 596 LINE",
"461 588 LINE",
"441 601 LINE",
"451 392 OFFCURVE",
"449 185 OFFCURVE",
"440 -24 CURVE",
"653 -5 LINE",
"649 55 LINE",
"488 52 LINE",
"519 41 LINE",
"529 245 OFFCURVE",
"524 454 OFFCURVE",
"513 656 CURVE",
"331 665 LINE"
);
},
{
closed = 1;
nodes = (
"449 385 OFFCURVE",
"383 439 OFFCURVE",
"294 439 CURVE SMOOTH",
"183 439 OFFCURVE",
"93 357 OFFCURVE",
"76 223 CURVE SMOOTH",
"56 67 OFFCURVE",
"147 -11 OFFCURVE",
"248 -11 CURVE SMOOTH",
"357 -11 OFFCURVE",
"429 51 OFFCURVE",
"486 144 CURVE",
"449 185 LINE",
"392 99 OFFCURVE",
"330 60 OFFCURVE",
"258 60 CURVE SMOOTH",
"201 60 OFFCURVE",
"138 98 OFFCURVE",
"154 223 CURVE SMOOTH",
"165 304 OFFCURVE",
"224 369 OFFCURVE",
"303 369 CURVE SMOOTH",
"367 369 OFFCURVE",
"416 331 OFFCURVE",
"451 282 CURVE",
"486 322 LINE"
);
}
);
width = 681;
}
);
unicode = 0064;
userData = {
com.typemytype.robofont.mark = (
0.656,
1,
0.6,
1
);
};
},
{
glyphname = e;
lastChange = "2018-05-20 15:27:19 +0000";
layers = (
{
anchors = (
{
name = top;
position = "{331, 438}";
}
);
background = {
anchors = (
{
name = top;
position = "{331, 438}";
}
);
paths = (
{
closed = 1;
nodes = (
"220 463 OFFCURVE",
"103 376 OFFCURVE",
"79 234 CURVE SMOOTH",
"51 75 OFFCURVE",
"146 -40 OFFCURVE",
"301 -40 CURVE SMOOTH",
"401 -40 OFFCURVE",
"484 8 OFFCURVE",
"532 127 CURVE",
"473 148 LINE",
"435 69 OFFCURVE",
"386 31 OFFCURVE",
"306 31 CURVE SMOOTH",
"200 31 OFFCURVE",
"144 111 OFFCURVE",
"162 232 CURVE SMOOTH",
"176 332 OFFCURVE",
"246 392 OFFCURVE",
"328 392 CURVE SMOOTH",
"393 392 OFFCURVE",
"442 353 OFFCURVE",
"422 235 CURVE",
"463 271 LINE",
"354 251 OFFCURVE",
"213 243 OFFCURVE",
"127 243 CURVE",
"126 181 LINE",
"213 181 OFFCURVE",
"374 193 OFFCURVE",
"501 211 CURVE",
"533 376 OFFCURVE",
"456 458 OFFCURVE",
"338 461 CURVE SMOOTH"
);
}
);
};
layerId = "523CE715-D489-4446-A5DE-4E6CA80777EE";
paths = (
{
closed = 1;
nodes = (
"220 463 OFFCURVE",
"103 376 OFFCURVE",
"79 234 CURVE SMOOTH",
"51 75 OFFCURVE",
"146 -40 OFFCURVE",
"301 -40 CURVE SMOOTH",
"401 -40 OFFCURVE",
"484 8 OFFCURVE",
"532 127 CURVE",
"473 148 LINE",
"435 69 OFFCURVE",
"386 31 OFFCURVE",
"306 31 CURVE SMOOTH",
"200 31 OFFCURVE",
"144 111 OFFCURVE",
"162 232 CURVE SMOOTH",
"176 332 OFFCURVE",
"246 392 OFFCURVE",
"328 392 CURVE SMOOTH",
"393 392 OFFCURVE",
"442 353 OFFCURVE",
"422 235 CURVE",
"463 271 LINE",
"354 251 OFFCURVE",
"213 243 OFFCURVE",
"127 243 CURVE",
"126 181 LINE",
"213 181 OFFCURVE",
"374 193 OFFCURVE",
"501 211 CURVE",
"533 376 OFFCURVE",
"456 458 OFFCURVE",
"338 461 CURVE SMOOTH"
);
}
);
width = 614;
}
);
leftKerningGroup = o;
unicode = 0065;
userData = {
com.typemytype.robofont.mark = (
0.656,
1,
0.6,
1
);
};
},
{
color = 6;
glyphname = eacute;
lastChange = "2018-05-20 14:18:03 +0000";
layers = (
{
background = {
anchors = (
{
name = top;
position = "{331, 438}";
}
);
paths = (
{
closed = 1;
nodes = (
"220 463 OFFCURVE",
"103 376 OFFCURVE",
"79 234 CURVE SMOOTH",
"51 75 OFFCURVE",
"146 -40 OFFCURVE",
"301 -40 CURVE SMOOTH",
"401 -40 OFFCURVE",
"484 8 OFFCURVE",
"532 127 CURVE",
"473 148 LINE",
"435 69 OFFCURVE",
"386 31 OFFCURVE",
"306 31 CURVE SMOOTH",
"200 31 OFFCURVE",
"144 111 OFFCURVE",
"162 232 CURVE SMOOTH",
"176 332 OFFCURVE",
"246 392 OFFCURVE",
"328 392 CURVE SMOOTH",
"393 392 OFFCURVE",
"442 353 OFFCURVE",
"422 235 CURVE",
"463 271 LINE",
"354 251 OFFCURVE",
"213 243 OFFCURVE",
"127 243 CURVE",
"126 181 LINE",
"213 181 OFFCURVE",
"374 193 OFFCURVE",
"501 211 CURVE",
"533 376 OFFCURVE",
"456 458 OFFCURVE",
"338 461 CURVE SMOOTH"
);
},
{
closed = 1;
nodes = (
"294 503 LINE",
"481 651 LINE",
"393 718 LINE",
"244 538 LINE"
);
}
);
};
components = (
{
name = e;
},
{
name = acutecomb;
transform = "{1, 0, 0, 1, 331, 0}";
}
);
layerId = "523CE715-D489-4446-A5DE-4E6CA80777EE";
width = 614;
}
);
unicode = 00E9;
userData = {
com.typemytype.robofont.mark = (
0.6,
0.986,
1,
1
);
};
},
{
color = 6;
glyphname = ecaron;
lastChange = "2018-05-20 14:18:03 +0000";
layers = (
{
background = {
anchors = (
{
name = top;
position = "{331, 438}";
}
);
paths = (
{
closed = 1;
nodes = (
"220 463 OFFCURVE",
"103 376 OFFCURVE",
"79 234 CURVE SMOOTH",
"51 75 OFFCURVE",
"146 -40 OFFCURVE",
"301 -40 CURVE SMOOTH",
"401 -40 OFFCURVE",
"484 8 OFFCURVE",
"532 127 CURVE",
"473 148 LINE",
"435 69 OFFCURVE",
"386 31 OFFCURVE",
"306 31 CURVE SMOOTH",
"200 31 OFFCURVE",
"144 111 OFFCURVE",
"162 232 CURVE SMOOTH",
"176 332 OFFCURVE",
"246 392 OFFCURVE",
"328 392 CURVE SMOOTH",
"393 392 OFFCURVE",
"442 353 OFFCURVE",
"422 235 CURVE",
"463 271 LINE",
"354 251 OFFCURVE",
"213 243 OFFCURVE",
"127 243 CURVE",
"126 181 LINE",
"213 181 OFFCURVE",
"374 193 OFFCURVE",
"501 211 CURVE",
"533 376 OFFCURVE",
"456 458 OFFCURVE",
"338 461 CURVE SMOOTH"
);
},
{
closed = 1;
nodes = (
"478 697 LINE",
"428 723 LINE",
"315 573 LINE",
"350 573 LINE",
"220 716 LINE",
"174 689 LINE",
"290 510 LINE",
"377 513 LINE"
);
}
);
};
components = (
{
name = e;
},
{
name = caroncomb;
transform = "{1, 0, 0, 1, 331, 0}";
}
);
layerId = "523CE715-D489-4446-A5DE-4E6CA80777EE";
width = 614;
}
);
unicode = 011B;
userData = {
com.typemytype.robofont.mark = (
0.6,
0.986,
1,
1
);
};
},
{
color = 6;
glyphname = ecircumflex;
lastChange = "2018-05-20 14:18:03 +0000";
layers = (
{
background = {
anchors = (
{
name = top;
position = "{331, 438}";
}
);
paths = (
{
closed = 1;
nodes = (
"220 463 OFFCURVE",
"103 376 OFFCURVE",
"79 234 CURVE SMOOTH",
"51 75 OFFCURVE",
"146 -40 OFFCURVE",
"301 -40 CURVE SMOOTH",
"401 -40 OFFCURVE",
"484 8 OFFCURVE",
"532 127 CURVE",
"473 148 LINE",
"435 69 OFFCURVE",
"386 31 OFFCURVE",
"306 31 CURVE SMOOTH",
"200 31 OFFCURVE",
"144 111 OFFCURVE",
"162 232 CURVE SMOOTH",
"176 332 OFFCURVE",
"246 392 OFFCURVE",
"328 392 CURVE SMOOTH",
"393 392 OFFCURVE",
"442 353 OFFCURVE",
"422 235 CURVE",
"463 271 LINE",
"354 251 OFFCURVE",
"213 243 OFFCURVE",
"127 243 CURVE",
"126 181 LINE",
"213 181 OFFCURVE",
"374 193 OFFCURVE",
"501 211 CURVE",
"533 376 OFFCURVE",
"456 458 OFFCURVE",
"338 461 CURVE SMOOTH"
);
},
{
closed = 1;
nodes = (
"178 518 LINE",
"227 491 LINE",
"340 642 LINE",
"305 642 LINE",
"435 498 LINE",
"481 526 LINE",
"365 704 LINE",
"278 702 LINE"
);
}
);
};
components = (
{
name = e;
},
{
name = circumflexcomb;
transform = "{1, 0, 0, 1, 331, 0}";
}
);
layerId = "523CE715-D489-4446-A5DE-4E6CA80777EE";
width = 614;
}
);
unicode = 00EA;
userData = {
com.typemytype.robofont.mark = (
0.6,
0.986,
1,
1
);
};
},
{
color = 6;
glyphname = edieresis;
lastChange = "2018-05-20 14:18:03 +0000";
layers = (
{
background = {
anchors = (
{
name = top;
position = "{331, 438}";
}
);
paths = (
{
closed = 1;
nodes = (
"220 463 OFFCURVE",
"103 376 OFFCURVE",
"79 234 CURVE SMOOTH",
"51 75 OFFCURVE",
"146 -40 OFFCURVE",
"301 -40 CURVE SMOOTH",
"401 -40 OFFCURVE",
"484 8 OFFCURVE",
"532 127 CURVE",
"473 148 LINE",
"435 69 OFFCURVE",
"386 31 OFFCURVE",
"306 31 CURVE SMOOTH",
"200 31 OFFCURVE",
"144 111 OFFCURVE",
"162 232 CURVE SMOOTH",
"176 332 OFFCURVE",
"246 392 OFFCURVE",
"328 392 CURVE SMOOTH",
"393 392 OFFCURVE",
"442 353 OFFCURVE",
"422 235 CURVE",
"463 271 LINE",
"354 251 OFFCURVE",
"213 243 OFFCURVE",
"127 243 CURVE",
"126 181 LINE",
"213 181 OFFCURVE",
"374 193 OFFCURVE",
"501 211 CURVE",
"533 376 OFFCURVE",
"456 458 OFFCURVE",
"338 461 CURVE SMOOTH"
);
},
{
closed = 1;
nodes = (
"158 569 OFFCURVE",
"184 542 OFFCURVE",
"218 542 CURVE SMOOTH",
"252 542 OFFCURVE",
"279 569 OFFCURVE",
"279 603 CURVE SMOOTH",
"279 636 OFFCURVE",
"252 663 OFFCURVE",
"218 663 CURVE SMOOTH",
"184 663 OFFCURVE",
"158 636 OFFCURVE",
"158 603 CURVE SMOOTH"
);
},
{
closed = 1;
nodes = (
"384 574 OFFCURVE",
"411 547 OFFCURVE",
"445 547 CURVE SMOOTH",
"479 547 OFFCURVE",
"506 574 OFFCURVE",
"506 608 CURVE SMOOTH",
"506 641 OFFCURVE",
"479 668 OFFCURVE",
"445 668 CURVE SMOOTH",
"411 668 OFFCURVE",
"384 641 OFFCURVE",
"384 608 CURVE SMOOTH"
);
}
);
};
components = (
{
name = e;
},
{
name = dieresiscomb;
transform = "{1, 0, 0, 1, 331, 0}";
}
);
layerId = "523CE715-D489-4446-A5DE-4E6CA80777EE";
width = 614;
}
);
unicode = 00EB;
userData = {
com.typemytype.robofont.mark = (
0.6,
0.986,
1,
1
);
};
},
{
color = 6;
glyphname = edotaccent;
lastChange = "2018-05-20 14:18:03 +0000";
layers = (
{
background = {
anchors = (
{
name = top;
position = "{331, 438}";
}
);
paths = (
{
closed = 1;
nodes = (
"220 463 OFFCURVE",
"103 376 OFFCURVE",
"79 234 CURVE SMOOTH",
"51 75 OFFCURVE",
"146 -40 OFFCURVE",
"301 -40 CURVE SMOOTH",
"401 -40 OFFCURVE",
"484 8 OFFCURVE",
"532 127 CURVE",
"473 148 LINE",
"435 69 OFFCURVE",
"386 31 OFFCURVE",
"306 31 CURVE SMOOTH",
"200 31 OFFCURVE",
"144 111 OFFCURVE",
"162 232 CURVE SMOOTH",
"176 332 OFFCURVE",
"246 392 OFFCURVE",
"328 392 CURVE SMOOTH",
"393 392 OFFCURVE",
"442 353 OFFCURVE",
"422 235 CURVE",
"463 271 LINE",
"354 251 OFFCURVE",
"213 243 OFFCURVE",
"127 243 CURVE",
"126 181 LINE",
"213 181 OFFCURVE",
"374 193 OFFCURVE",
"501 211 CURVE",
"533 376 OFFCURVE",
"456 458 OFFCURVE",
"338 461 CURVE SMOOTH"
);
},
{
closed = 1;
nodes = (
"256 574 OFFCURVE",
"284 543 OFFCURVE",
"327 540 CURVE SMOOTH",
"386 536 OFFCURVE",
"407 574 OFFCURVE",
"407 616 CURVE SMOOTH",
"407 658 OFFCURVE",
"378 694 OFFCURVE",
"331 692 CURVE SMOOTH",
"290 689 OFFCURVE",
"256 658 OFFCURVE",
"256 616 CURVE SMOOTH"
);
}
);
};
components = (
{
name = e;
},
{
name = dotaccentcomb;
transform = "{1, 0, 0, 1, 331, 0}";
}
);
layerId = "523CE715-D489-4446-A5DE-4E6CA80777EE";
width = 614;
}
);
unicode = 0117;
userData = {
com.typemytype.robofont.mark = (
0.6,
0.986,
1,
1
);
};
},
{
color = 6;
glyphname = egrave;
lastChange = "2018-05-20 14:18:03 +0000";
layers = (
{
background = {
anchors = (
{
name = top;
position = "{331, 438}";
}
);
paths = (
{
closed = 1;
nodes = (
"220 463 OFFCURVE",
"103 376 OFFCURVE",
"79 234 CURVE SMOOTH",
"51 75 OFFCURVE",
"146 -40 OFFCURVE",
"301 -40 CURVE SMOOTH",
"401 -40 OFFCURVE",
"484 8 OFFCURVE",
"532 127 CURVE",
"473 148 LINE",
"435 69 OFFCURVE",
"386 31 OFFCURVE",
"306 31 CURVE SMOOTH",
"200 31 OFFCURVE",
"144 111 OFFCURVE",
"162 232 CURVE SMOOTH",
"176 332 OFFCURVE",
"246 392 OFFCURVE",
"328 392 CURVE SMOOTH",
"393 392 OFFCURVE",
"442 353 OFFCURVE",
"422 235 CURVE",
"463 271 LINE",
"354 251 OFFCURVE",
"213 243 OFFCURVE",
"127 243 CURVE",
"126 181 LINE",
"213 181 OFFCURVE",
"374 193 OFFCURVE",
"501 211 CURVE",
"533 376 OFFCURVE",
"456 458 OFFCURVE",
"338 461 CURVE SMOOTH"
);
},
{
closed = 1;
nodes = (
"169 651 LINE",
"356 503 LINE",
"406 538 LINE",
"257 718 LINE"
);
}
);
};
components = (
{
name = e;
},
{
name = gravecomb;
transform = "{1, 0, 0, 1, 331, 0}";
}
);
layerId = "523CE715-D489-4446-A5DE-4E6CA80777EE";
width = 614;
}
);
unicode = 00E8;
userData = {
com.typemytype.robofont.mark = (
0.6,
0.986,
1,
1
);
};
},
{
color = 6;
glyphname = emacron;
lastChange = "2018-05-20 14:18:03 +0000";
layers = (
{
background = {
anchors = (
{
name = top;
position = "{331, 438}";
}
);
paths = (
{
closed = 1;
nodes = (
"220 463 OFFCURVE",
"103 376 OFFCURVE",
"79 234 CURVE SMOOTH",
"51 75 OFFCURVE",
"146 -40 OFFCURVE",
"301 -40 CURVE SMOOTH",
"401 -40 OFFCURVE",
"484 8 OFFCURVE",
"532 127 CURVE",
"473 148 LINE",
"435 69 OFFCURVE",
"386 31 OFFCURVE",
"306 31 CURVE SMOOTH",
"200 31 OFFCURVE",
"144 111 OFFCURVE",
"162 232 CURVE SMOOTH",
"176 332 OFFCURVE",
"246 392 OFFCURVE",
"328 392 CURVE SMOOTH",
"393 392 OFFCURVE",
"442 353 OFFCURVE",
"422 235 CURVE",
"463 271 LINE",
"354 251 OFFCURVE",
"213 243 OFFCURVE",
"127 243 CURVE",
"126 181 LINE",
"213 181 OFFCURVE",
"374 193 OFFCURVE",
"501 211 CURVE",
"533 376 OFFCURVE",
"456 458 OFFCURVE",
"338 461 CURVE SMOOTH"
);
},
{
closed = 1;
nodes = (
"493 556 LINE",
"497 639 LINE",
"161 631 LINE",
"164 559 LINE"
);
}
);
};
components = (
{
name = e;
},
{
name = macroncomb;
transform = "{1, 0, 0, 1, 331, 0}";
}
);
layerId = "523CE715-D489-4446-A5DE-4E6CA80777EE";
width = 614;
}
);
unicode = 0113;
userData = {
com.typemytype.robofont.mark = (
0.6,
0.986,
1,
1
);
};
},
{
glyphname = f;
lastChange = "2018-05-20 14:18:03 +0000";
layers = (
{
background = {
paths = (
{
closed = 1;
nodes = (
"84 50 LINE",
"90 -17 LINE",
"426 -4 LINE",
"423 66 LINE",
"245 56 LINE",
"276 47 LINE",
"244 196 OFFCURVE",
"229 324 OFFCURVE",
"226 458 CURVE SMOOTH",
"224 562 OFFCURVE",
"260 612 OFFCURVE",
"335 612 CURVE SMOOTH",
"394 612 OFFCURVE",
"436 576 OFFCURVE",
"468 519 CURVE",
"523 546 LINE",
"482 649 OFFCURVE",
"399 689 OFFCURVE",
"324 689 CURVE SMOOTH",
"190 689 OFFCURVE",
"145 584 OFFCURVE",
"149 450 CURVE SMOOTH",
"154 316 OFFCURVE",
"166 200 OFFCURVE",
"185 22 CURVE",
"189 54 LINE"
);
},
{
closed = 1;
nodes = (
"196 408 LINE",
"48 399 LINE",
"54 332 LINE",
"466 356 LINE",
"457 434 LINE"
);
}
);
};
layerId = "523CE715-D489-4446-A5DE-4E6CA80777EE";
paths = (
{
closed = 1;
nodes = (
"84 50 LINE",
"90 -17 LINE",
"426 -4 LINE",
"423 66 LINE",
"245 56 LINE",
"276 47 LINE",
"244 196 OFFCURVE",
"229 324 OFFCURVE",
"226 458 CURVE SMOOTH",
"224 562 OFFCURVE",
"260 612 OFFCURVE",
"335 612 CURVE SMOOTH",
"394 612 OFFCURVE",
"436 576 OFFCURVE",
"468 519 CURVE",
"523 546 LINE",
"482 649 OFFCURVE",
"399 689 OFFCURVE",
"324 689 CURVE SMOOTH",
"190 689 OFFCURVE",
"145 584 OFFCURVE",
"149 450 CURVE SMOOTH",
"154 316 OFFCURVE",
"166 200 OFFCURVE",
"185 22 CURVE",
"189 54 LINE"
);
},
{
closed = 1;
nodes = (
"196 408 LINE",
"48 399 LINE",
"54 332 LINE",
"466 356 LINE",
"457 434 LINE"
);
}
);
width = 551;
}
);
unicode = 0066;
userData = {
com.typemytype.robofont.mark = (
0.656,
1,
0.6,
1
);
};
},
{
glyphname = g;
lastChange = "2018-05-20 14:18:03 +0000";
layers = (
{
anchors = (
{
name = top;
position = "{275, 438}";
}
);
background = {
anchors = (
{
name = top;
position = "{275, 438}";
}
);
paths = (
{
closed = 1;
nodes = (
"200 454 OFFCURVE",
"136 388 OFFCURVE",
"118 306 CURVE SMOOTH",
"97 213 OFFCURVE",
"131 113 OFFCURVE",
"256 113 CURVE SMOOTH",
"321 113 OFFCURVE",
"408 156 OFFCURVE",
"428 263 CURVE SMOOTH",
"447 363 OFFCURVE",
"402 454 OFFCURVE",
"298 454 CURVE SMOOTH"
);
},
{
closed = 1;
nodes = (
"351 389 OFFCURVE",
"365 326 OFFCURVE",
"353 266 CURVE SMOOTH",
"342 209 OFFCURVE",
"301 177 OFFCURVE",
"257 177 CURVE SMOOTH",
"183 177 OFFCURVE",
"182 246 OFFCURVE",
"192 296 CURVE SMOOTH",
"201 342 OFFCURVE",
"232 389 OFFCURVE",
"290 389 CURVE SMOOTH"
);
},
{
closed = 1;
nodes = (
"361 453 OFFCURVE",
"419 503 OFFCURVE",
"472 503 CURVE SMOOTH",
"494 503 OFFCURVE",
"516 493 OFFCURVE",
"533 475 CURVE",
"574 536 LINE",
"554 563 OFFCURVE",
"519 582 OFFCURVE",
"479 582 CURVE SMOOTH",
"387 582 OFFCURVE",
"321 493 OFFCURVE",
"293 417 CURVE",
"338 404 LINE"
);
},
{
closed = 1;
nodes = (
"106 148 OFFCURVE",
"79 119 OFFCURVE",
"74 89 CURVE SMOOTH",
"68 56 OFFCURVE",
"81 31 OFFCURVE",
"109 19 CURVE SMOOTH",
"138 8 OFFCURVE",
"176 8 OFFCURVE",
"229 6 CURVE SMOOTH",
"400 -1 OFFCURVE",
"451 -38 OFFCURVE",
"447 -96 CURVE SMOOTH",
"443 -159 OFFCURVE",
"347 -191 OFFCURVE",
"263 -190 CURVE SMOOTH",
"158 -189 OFFCURVE",
"109 -161 OFFCURVE",
"119 -94 CURVE SMOOTH",
"126 -51 OFFCURVE",
"163 -14 OFFCURVE",
"241 8 CURVE",
"219 25 LINE",
"101 13 OFFCURVE",
"44 -49 OFFCURVE",
"39 -110 CURVE SMOOTH",
"31 -208 OFFCURVE",
"118 -260 OFFCURVE",
"266 -260 CURVE SMOOTH",
"359 -260 OFFCURVE",
"518 -216 OFFCURVE",
"527 -95 CURVE SMOOTH",
"533 -8 OFFCURVE",
"466 40 OFFCURVE",
"367 57 CURVE SMOOTH",
"308 67 OFFCURVE",
"242 68 OFFCURVE",
"181 71 CURVE SMOOTH",
"139 73 OFFCURVE",
"133 105 OFFCURVE",
"181 138 CURVE",
"145 178 LINE"
);
}
);
};
layerId = "523CE715-D489-4446-A5DE-4E6CA80777EE";
paths = (
{
closed = 1;
nodes = (
"200 454 OFFCURVE",
"136 388 OFFCURVE",
"118 306 CURVE SMOOTH",
"97 213 OFFCURVE",
"131 113 OFFCURVE",
"256 113 CURVE SMOOTH",
"321 113 OFFCURVE",
"408 156 OFFCURVE",
"428 263 CURVE SMOOTH",
"447 363 OFFCURVE",
"402 454 OFFCURVE",
"298 454 CURVE SMOOTH"
);
},
{
closed = 1;
nodes = (
"351 389 OFFCURVE",
"365 326 OFFCURVE",
"353 266 CURVE SMOOTH",
"342 209 OFFCURVE",
"301 177 OFFCURVE",
"257 177 CURVE SMOOTH",
"183 177 OFFCURVE",
"182 246 OFFCURVE",
"192 296 CURVE SMOOTH",
"201 342 OFFCURVE",
"232 389 OFFCURVE",
"290 389 CURVE SMOOTH"
);
},
{
closed = 1;
nodes = (
"361 453 OFFCURVE",
"419 503 OFFCURVE",
"472 503 CURVE SMOOTH",
"494 503 OFFCURVE",
"516 493 OFFCURVE",
"533 475 CURVE",
"574 536 LINE",
"554 563 OFFCURVE",
"519 582 OFFCURVE",
"479 582 CURVE SMOOTH",
"387 582 OFFCURVE",
"321 493 OFFCURVE",
"293 417 CURVE",
"338 404 LINE"
);
},
{
closed = 1;
nodes = (
"106 148 OFFCURVE",
"79 119 OFFCURVE",
"74 89 CURVE SMOOTH",
"68 56 OFFCURVE",
"81 31 OFFCURVE",
"109 19 CURVE SMOOTH",
"138 8 OFFCURVE",
"176 8 OFFCURVE",
"229 6 CURVE SMOOTH",
"400 -1 OFFCURVE",
"451 -38 OFFCURVE",
"447 -96 CURVE SMOOTH",
"443 -159 OFFCURVE",
"347 -191 OFFCURVE",
"263 -190 CURVE SMOOTH",
"158 -189 OFFCURVE",
"109 -161 OFFCURVE",
"119 -94 CURVE SMOOTH",
"126 -51 OFFCURVE",
"163 -14 OFFCURVE",
"241 8 CURVE",
"219 25 LINE",
"101 13 OFFCURVE",
"44 -49 OFFCURVE",
"39 -110 CURVE SMOOTH",
"31 -208 OFFCURVE",
"118 -260 OFFCURVE",
"266 -260 CURVE SMOOTH",
"359 -260 OFFCURVE",
"518 -216 OFFCURVE",
"527 -95 CURVE SMOOTH",
"533 -8 OFFCURVE",
"466 40 OFFCURVE",
"367 57 CURVE SMOOTH",
"308 67 OFFCURVE",
"242 68 OFFCURVE",
"181 71 CURVE SMOOTH",
"139 73 OFFCURVE",
"133 105 OFFCURVE",
"181 138 CURVE",
"145 178 LINE"
);
}
);
width = 579;
}
);
unicode = 0067;
userData = {
com.typemytype.robofont.mark = (
0.656,
1,
0.6,
1
);
};
},
{
color = 6;
glyphname = gcircumflex;
lastChange = "2018-05-20 14:18:03 +0000";
layers = (
{
background = {
anchors = (
{
name = top;
position = "{275, 438}";
}
);
paths = (
{
closed = 1;
nodes = (
"200 454 OFFCURVE",
"136 388 OFFCURVE",
"118 306 CURVE SMOOTH",
"97 213 OFFCURVE",
"131 113 OFFCURVE",
"256 113 CURVE SMOOTH",
"321 113 OFFCURVE",
"408 156 OFFCURVE",
"428 263 CURVE SMOOTH",
"447 363 OFFCURVE",
"402 454 OFFCURVE",
"298 454 CURVE SMOOTH"
);
},
{
closed = 1;
nodes = (
"351 389 OFFCURVE",
"365 326 OFFCURVE",
"353 266 CURVE SMOOTH",
"342 209 OFFCURVE",
"301 177 OFFCURVE",
"257 177 CURVE SMOOTH",
"183 177 OFFCURVE",
"182 246 OFFCURVE",
"192 296 CURVE SMOOTH",
"201 342 OFFCURVE",
"232 389 OFFCURVE",
"290 389 CURVE SMOOTH"
);
},
{
closed = 1;
nodes = (
"106 148 OFFCURVE",
"79 119 OFFCURVE",
"74 89 CURVE SMOOTH",
"68 56 OFFCURVE",
"81 31 OFFCURVE",
"109 19 CURVE SMOOTH",
"138 8 OFFCURVE",
"176 8 OFFCURVE",
"229 6 CURVE SMOOTH",
"400 -1 OFFCURVE",
"451 -38 OFFCURVE",
"447 -96 CURVE SMOOTH",
"443 -159 OFFCURVE",
"347 -191 OFFCURVE",
"263 -190 CURVE SMOOTH",
"158 -189 OFFCURVE",
"109 -161 OFFCURVE",
"119 -94 CURVE SMOOTH",
"126 -51 OFFCURVE",
"163 -14 OFFCURVE",
"241 8 CURVE",
"219 25 LINE",
"101 13 OFFCURVE",
"44 -49 OFFCURVE",
"39 -110 CURVE SMOOTH",
"31 -208 OFFCURVE",
"118 -260 OFFCURVE",
"266 -260 CURVE SMOOTH",
"359 -260 OFFCURVE",
"518 -216 OFFCURVE",
"527 -95 CURVE SMOOTH",
"533 -8 OFFCURVE",
"466 40 OFFCURVE",
"367 57 CURVE SMOOTH",
"308 67 OFFCURVE",
"242 68 OFFCURVE",
"181 71 CURVE SMOOTH",
"139 73 OFFCURVE",
"133 105 OFFCURVE",
"181 138 CURVE",
"145 178 LINE"
);
},
{
closed = 1;
nodes = (
"441 395 OFFCURVE",
"508 390 OFFCURVE",
"563 365 CURVE",
"584 447 LINE",
"519 462 OFFCURVE",
"421 456 OFFCURVE",
"356 419 CURVE",
"377 374 LINE"
);
},
{
closed = 1;
nodes = (
"121 518 LINE",
"171 491 LINE",
"284 642 LINE",
"249 642 LINE",
"379 498 LINE",
"424 526 LINE",
"309 704 LINE",
"222 702 LINE"
);
}
);
};
components = (
{
name = g.ss03;
},
{
name = circumflexcomb;
transform = "{1, 0, 0, 1, 275, 0}";
}
);
layerId = "523CE715-D489-4446-A5DE-4E6CA80777EE";
width = 579;
}
);
unicode = 011D;
userData = {
com.typemytype.robofont.mark = (
0.6,
0.986,
1,
1
);
};
},
{
color = 6;
glyphname = gcommaaccent;
lastChange = "2018-05-20 14:18:03 +0000";
layers = (
{
background = {
anchors = (
{
name = _top;
position = "{275, 438}";
},
{
name = top;
position = "{275, 438}";
}
);
paths = (
{
closed = 1;
nodes = (
"356 605 OFFCURVE",
"328 648 OFFCURVE",
"252 628 CURVE",
"284 584 LINE",
"267 654 OFFCURVE",
"301 693 OFFCURVE",
"342 724 CURVE",
"308 764 LINE",
"267 739 OFFCURVE",
"236 706 OFFCURVE",
"219 666 CURVE SMOOTH",
"208 641 OFFCURVE",
"204 611 OFFCURVE",
"204 586 CURVE SMOOTH",
"204 518 OFFCURVE",
"242 491 OFFCURVE",
"281 491 CURVE SMOOTH",
"324 491 OFFCURVE",
"356 524 OFFCURVE",
"356 566 CURVE"
);
},
{
closed = 1;
nodes = (
"200 454 OFFCURVE",
"136 388 OFFCURVE",
"118 306 CURVE SMOOTH",
"97 213 OFFCURVE",
"131 113 OFFCURVE",
"256 113 CURVE SMOOTH",
"321 113 OFFCURVE",
"408 156 OFFCURVE",
"428 263 CURVE SMOOTH",
"447 363 OFFCURVE",
"402 454 OFFCURVE",
"298 454 CURVE SMOOTH"
);
},
{
closed = 1;
nodes = (
"351 389 OFFCURVE",
"365 326 OFFCURVE",
"353 266 CURVE SMOOTH",
"342 209 OFFCURVE",
"301 177 OFFCURVE",
"257 177 CURVE SMOOTH",
"183 177 OFFCURVE",
"182 246 OFFCURVE",
"192 296 CURVE SMOOTH",
"201 342 OFFCURVE",
"232 389 OFFCURVE",
"290 389 CURVE SMOOTH"
);
},
{
closed = 1;
nodes = (
"106 148 OFFCURVE",
"79 119 OFFCURVE",
"74 89 CURVE SMOOTH",
"68 56 OFFCURVE",
"81 31 OFFCURVE",
"109 19 CURVE SMOOTH",
"138 8 OFFCURVE",
"176 8 OFFCURVE",
"229 6 CURVE SMOOTH",
"400 -1 OFFCURVE",
"451 -38 OFFCURVE",
"447 -96 CURVE SMOOTH",
"443 -159 OFFCURVE",
"347 -191 OFFCURVE",
"263 -190 CURVE SMOOTH",
"158 -189 OFFCURVE",
"109 -161 OFFCURVE",
"119 -94 CURVE SMOOTH",
"126 -51 OFFCURVE",
"163 -14 OFFCURVE",
"241 8 CURVE",
"219 25 LINE",
"101 13 OFFCURVE",
"44 -49 OFFCURVE",
"39 -110 CURVE SMOOTH",
"31 -208 OFFCURVE",
"118 -260 OFFCURVE",
"266 -260 CURVE SMOOTH",
"359 -260 OFFCURVE",
"518 -216 OFFCURVE",
"527 -95 CURVE SMOOTH",
"533 -8 OFFCURVE",
"466 40 OFFCURVE",
"367 57 CURVE SMOOTH",
"308 67 OFFCURVE",
"242 68 OFFCURVE",
"181 71 CURVE SMOOTH",
"139 73 OFFCURVE",
"133 105 OFFCURVE",
"181 138 CURVE",
"145 178 LINE"
);
},
{
closed = 1;
nodes = (
"441 395 OFFCURVE",
"508 390 OFFCURVE",
"563 365 CURVE",
"584 447 LINE",
"519 462 OFFCURVE",
"421 456 OFFCURVE",
"356 419 CURVE",
"377 374 LINE"
);
}
);
};
components = (
{
name = commaturnedabovecomb;
transform = "{1, 0, 0, 1, 275, 0}";
},
{
name = g.ss03;
}
);
layerId = "523CE715-D489-4446-A5DE-4E6CA80777EE";
width = 579;
}
);
unicode = 0123;
userData = {
com.typemytype.robofont.mark = (
0.6,
0.986,
1,
1
);
};
},
{
color = 6;
glyphname = gdotaccent;
lastChange = "2018-05-20 14:18:03 +0000";
layers = (
{
background = {
anchors = (
{
name = top;
position = "{275, 438}";
}
);
paths = (
{
closed = 1;
nodes = (
"200 454 OFFCURVE",
"136 388 OFFCURVE",
"118 306 CURVE SMOOTH",
"97 213 OFFCURVE",
"131 113 OFFCURVE",
"256 113 CURVE SMOOTH",
"321 113 OFFCURVE",
"408 156 OFFCURVE",
"428 263 CURVE SMOOTH",
"447 363 OFFCURVE",
"402 454 OFFCURVE",
"298 454 CURVE SMOOTH"
);
},
{
closed = 1;
nodes = (
"351 389 OFFCURVE",
"365 326 OFFCURVE",
"353 266 CURVE SMOOTH",
"342 209 OFFCURVE",
"301 177 OFFCURVE",
"257 177 CURVE SMOOTH",
"183 177 OFFCURVE",
"182 246 OFFCURVE",
"192 296 CURVE SMOOTH",
"201 342 OFFCURVE",
"232 389 OFFCURVE",
"290 389 CURVE SMOOTH"
);
},
{
closed = 1;
nodes = (
"106 148 OFFCURVE",
"79 119 OFFCURVE",
"74 89 CURVE SMOOTH",
"68 56 OFFCURVE",
"81 31 OFFCURVE",
"109 19 CURVE SMOOTH",
"138 8 OFFCURVE",
"176 8 OFFCURVE",
"229 6 CURVE SMOOTH",
"400 -1 OFFCURVE",
"451 -38 OFFCURVE",
"447 -96 CURVE SMOOTH",
"443 -159 OFFCURVE",
"347 -191 OFFCURVE",
"263 -190 CURVE SMOOTH",
"158 -189 OFFCURVE",
"109 -161 OFFCURVE",
"119 -94 CURVE SMOOTH",
"126 -51 OFFCURVE",
"163 -14 OFFCURVE",
"241 8 CURVE",
"219 25 LINE",
"101 13 OFFCURVE",
"44 -49 OFFCURVE",
"39 -110 CURVE SMOOTH",
"31 -208 OFFCURVE",
"118 -260 OFFCURVE",
"266 -260 CURVE SMOOTH",
"359 -260 OFFCURVE",
"518 -216 OFFCURVE",
"527 -95 CURVE SMOOTH",
"533 -8 OFFCURVE",
"466 40 OFFCURVE",
"367 57 CURVE SMOOTH",
"308 67 OFFCURVE",
"242 68 OFFCURVE",
"181 71 CURVE SMOOTH",
"139 73 OFFCURVE",
"133 105 OFFCURVE",
"181 138 CURVE",
"145 178 LINE"
);
},
{
closed = 1;
nodes = (
"441 395 OFFCURVE",
"508 390 OFFCURVE",
"563 365 CURVE",
"584 447 LINE",
"519 462 OFFCURVE",
"421 456 OFFCURVE",
"356 419 CURVE",
"377 374 LINE"
);
},
{
closed = 1;
nodes = (
"199 574 OFFCURVE",
"228 543 OFFCURVE",
"271 540 CURVE SMOOTH",
"329 536 OFFCURVE",
"351 574 OFFCURVE",
"351 616 CURVE SMOOTH",
"351 658 OFFCURVE",
"322 694 OFFCURVE",
"275 692 CURVE SMOOTH",
"234 689 OFFCURVE",
"199 658 OFFCURVE",
"199 616 CURVE SMOOTH"
);
}
);
};
components = (
{
name = g.ss03;
},
{
name = dotaccentcomb;
transform = "{1, 0, 0, 1, 275, 0}";
}
);
layerId = "523CE715-D489-4446-A5DE-4E6CA80777EE";
width = 579;
}
);
unicode = 0121;
userData = {
com.typemytype.robofont.mark = (
0.6,
0.986,
1,
1
);
};
},
{
glyphname = h;
lastChange = "2018-05-20 14:18:03 +0000";
layers = (
{
background = {
paths = (
{
closed = 1;
nodes = (
"14 597 LINE",
"166 583 LINE",
"140 604 LINE",
"119 419 OFFCURVE",
"143 226 OFFCURVE",
"169 46 CURVE",
"203 66 LINE",
"91 68 LINE",
"88 0 LINE",
"324 -19 LINE",
"332 46 LINE",
"231 60 LINE",
"250 46 LINE",
"219 246 OFFCURVE",
"198 456 OFFCURVE",
"219 662 CURVE",
"18 659 LINE"
);
},
{
closed = 1;
nodes = (
"240 324 OFFCURVE",
"325 409 OFFCURVE",
"408 409 CURVE SMOOTH",
"517 409 OFFCURVE",
"529 199 OFFCURVE",
"501 41 CURVE",
"514 58 LINE",
"434 43 LINE",
"438 -19 LINE",
"714 4 LINE",
"710 68 LINE",
"555 61 LINE",
"586 45 LINE",
"614 206 OFFCURVE",
"601 489 OFFCURVE",
"426 489 CURVE SMOOTH",
"288 489 OFFCURVE",
"206 370 OFFCURVE",
"163 247 CURVE",
"195 210 LINE"
);
}
);
};
layerId = "523CE715-D489-4446-A5DE-4E6CA80777EE";
paths = (
{
closed = 1;
nodes = (
"14 597 LINE",
"166 583 LINE",
"140 604 LINE",
"119 419 OFFCURVE",
"143 226 OFFCURVE",
"169 46 CURVE",
"203 66 LINE",
"91 68 LINE",
"88 0 LINE",
"324 -19 LINE",
"332 46 LINE",
"231 60 LINE",
"250 46 LINE",
"219 246 OFFCURVE",
"198 456 OFFCURVE",
"219 662 CURVE",
"18 659 LINE"
);
},
{
closed = 1;
nodes = (
"240 324 OFFCURVE",
"325 409 OFFCURVE",
"408 409 CURVE SMOOTH",
"517 409 OFFCURVE",
"529 199 OFFCURVE",
"501 41 CURVE",
"514 58 LINE",
"434 43 LINE",
"438 -19 LINE",
"714 4 LINE",
"710 68 LINE",
"555 61 LINE",
"586 45 LINE",
"614 206 OFFCURVE",
"601 489 OFFCURVE",
"426 489 CURVE SMOOTH",
"288 489 OFFCURVE",
"206 370 OFFCURVE",
"163 247 CURVE",
"195 210 LINE"
);
}
);
width = 751;
}
);
unicode = 0068;
userData = {
com.typemytype.robofont.mark = (
0.656,
1,
0.6,
1
);
};
},
{
color = 6;
glyphname = hcircumflex;
lastChange = "2018-05-20 14:18:03 +0000";
layers = (
{
background = {
paths = (
{
closed = 1;
nodes = (
"14 597 LINE",
"166 583 LINE",
"140 604 LINE",
"119 419 OFFCURVE",
"143 226 OFFCURVE",
"169 46 CURVE",
"203 66 LINE",
"91 68 LINE",
"88 0 LINE",
"324 -19 LINE",
"332 46 LINE",
"231 60 LINE",
"250 46 LINE",
"219 246 OFFCURVE",
"198 456 OFFCURVE",
"219 662 CURVE",
"18 659 LINE"
);
},
{
closed = 1;
nodes = (
"240 324 OFFCURVE",
"325 409 OFFCURVE",
"408 409 CURVE SMOOTH",
"517 409 OFFCURVE",
"529 199 OFFCURVE",
"501 41 CURVE",
"514 58 LINE",
"434 43 LINE",
"438 -19 LINE",
"714 4 LINE",
"710 68 LINE",
"555 61 LINE",
"586 45 LINE",
"614 206 OFFCURVE",
"601 489 OFFCURVE",
"426 489 CURVE SMOOTH",
"288 489 OFFCURVE",
"206 370 OFFCURVE",
"163 247 CURVE",
"195 210 LINE"
);
},
{
closed = 1;
nodes = (
"205 701 LINE",
"254 675 LINE",
"368 826 LINE",
"333 826 LINE",
"463 682 LINE",
"508 709 LINE",
"393 888 LINE",
"306 886 LINE"
);
}
);
};
components = (
{
name = h;
},
{
name = circumflexcomb;
transform = "{1, 0, 0, 1, 359, 184}";
}
);
layerId = "523CE715-D489-4446-A5DE-4E6CA80777EE";
width = 751;
}
);
unicode = 0125;
userData = {
com.typemytype.robofont.mark = (
0.6,
0.986,
1,
1
);
};
},
{
glyphname = i;
lastChange = "2018-05-20 14:18:03 +0000";
layers = (
{
background = {
paths = (
{
closed = 1;
nodes = (
"44 393 LINE",
"235 388 LINE",
"212 407 LINE",
"193 287 OFFCURVE",
"183 167 OFFCURVE",
"181 52 CURVE",
"269 52 LINE",
"269 187 OFFCURVE",
"283 322 OFFCURVE",
"296 466 CURVE",
"45 453 LINE"
);
},
{
closed = 1;
nodes = (
"44 -13 LINE",
"424 -4 LINE",
"426 52 LINE",
"226 63 LINE",
"39 43 LINE"
);
},
{
closed = 1;
nodes = (
"181 574 OFFCURVE",
"209 543 OFFCURVE",
"252 540 CURVE SMOOTH",
"311 536 OFFCURVE",
"332 574 OFFCURVE",
"332 616 CURVE SMOOTH",
"332 658 OFFCURVE",
"303 694 OFFCURVE",
"256 692 CURVE SMOOTH",
"215 689 OFFCURVE",
"181 658 OFFCURVE",
"181 616 CURVE SMOOTH"
);
}
);
};
layerId = "523CE715-D489-4446-A5DE-4E6CA80777EE";
paths = (
{
closed = 1;
nodes = (
"44 393 LINE",
"235 388 LINE",
"212 407 LINE",
"193 287 OFFCURVE",
"183 167 OFFCURVE",
"181 52 CURVE",
"269 52 LINE",
"269 187 OFFCURVE",
"283 322 OFFCURVE",
"296 466 CURVE",
"45 453 LINE"
);
},
{
closed = 1;
nodes = (
"44 -13 LINE",
"424 -4 LINE",
"426 52 LINE",
"226 63 LINE",
"39 43 LINE"
);
},
{
closed = 1;
nodes = (
"181 574 OFFCURVE",
"209 543 OFFCURVE",
"252 540 CURVE SMOOTH",
"311 536 OFFCURVE",
"332 574 OFFCURVE",
"332 616 CURVE SMOOTH",
"332 658 OFFCURVE",
"303 694 OFFCURVE",
"256 692 CURVE SMOOTH",
"215 689 OFFCURVE",
"181 658 OFFCURVE",
"181 616 CURVE SMOOTH"
);
}
);
width = 461;
}
);
unicode = 0069;
userData = {
com.typemytype.robofont.mark = (
0.656,
1,
0.6,
1
);
};
},
{
glyphname = idotless;
lastChange = "2018-05-20 14:18:03 +0000";
layers = (
{
anchors = (
{
name = top;
position = "{256, 438}";
}
);
background = {
anchors = (
{
name = top;
position = "{256, 438}";
}
);
paths = (
{
closed = 1;
nodes = (
"44 393 LINE",
"235 388 LINE",
"212 407 LINE",
"193 287 OFFCURVE",
"183 167 OFFCURVE",
"181 52 CURVE",
"269 52 LINE",
"269 187 OFFCURVE",
"283 322 OFFCURVE",
"296 466 CURVE",
"45 453 LINE"
);
},
{
closed = 1;
nodes = (
"44 -13 LINE",
"424 -4 LINE",
"426 52 LINE",
"226 63 LINE",
"39 43 LINE"
);
}
);
};
layerId = "523CE715-D489-4446-A5DE-4E6CA80777EE";
paths = (
{
closed = 1;
nodes = (
"44 393 LINE",
"235 388 LINE",
"212 407 LINE",
"193 287 OFFCURVE",
"183 167 OFFCURVE",
"181 52 CURVE",
"269 52 LINE",
"269 187 OFFCURVE",
"283 322 OFFCURVE",
"296 466 CURVE",
"45 453 LINE"
);
},
{
closed = 1;
nodes = (
"44 -13 LINE",
"424 -4 LINE",
"426 52 LINE",
"226 63 LINE",
"39 43 LINE"
);
}
);
width = 461;
}
);
unicode = 0131;
userData = {
com.typemytype.robofont.mark = (
0.656,
1,
0.6,
1
);
};
},
{
color = 6;
glyphname = iacute;
lastChange = "2018-05-20 14:18:03 +0000";
layers = (
{
background = {
anchors = (
{
name = top;
position = "{256, 438}";
}
);
paths = (
{
closed = 1;
nodes = (
"44 393 LINE",
"235 388 LINE",
"212 407 LINE",
"193 287 OFFCURVE",
"183 167 OFFCURVE",
"181 52 CURVE",
"269 52 LINE",
"269 187 OFFCURVE",
"283 322 OFFCURVE",
"296 466 CURVE",
"45 453 LINE"
);
},
{
closed = 1;
nodes = (
"44 -13 LINE",
"424 -4 LINE",
"426 52 LINE",
"226 63 LINE",
"39 43 LINE"
);
},
{
closed = 1;
nodes = (
"219 503 LINE",
"406 651 LINE",
"318 718 LINE",
"169 538 LINE"
);
}
);
};
components = (
{
name = idotless;
},
{
name = acutecomb;
transform = "{1, 0, 0, 1, 256, 0}";
}
);
layerId = "523CE715-D489-4446-A5DE-4E6CA80777EE";
width = 461;
}
);
unicode = 00ED;
userData = {
com.typemytype.robofont.mark = (
0.6,
0.986,
1,
1
);
};
},
{
color = 6;
glyphname = icircumflex;
lastChange = "2018-05-20 14:18:03 +0000";
layers = (
{
background = {
anchors = (
{
name = top;
position = "{256, 438}";
}
);
paths = (
{
closed = 1;
nodes = (
"44 393 LINE",
"235 388 LINE",
"212 407 LINE",
"193 287 OFFCURVE",
"183 167 OFFCURVE",
"181 52 CURVE",
"269 52 LINE",
"269 187 OFFCURVE",
"283 322 OFFCURVE",
"296 466 CURVE",
"45 453 LINE"
);
},
{
closed = 1;
nodes = (
"44 -13 LINE",
"424 -4 LINE",
"426 52 LINE",
"226 63 LINE",
"39 43 LINE"
);
},
{
closed = 1;
nodes = (
"90 530 LINE",
"139 504 LINE",
"253 654 LINE",
"218 654 LINE",
"348 511 LINE",
"393 538 LINE",
"278 717 LINE",
"191 714 LINE"
);
}
);
};
components = (
{
name = idotless;
},
{
name = circumflexcomb;
transform = "{1, 0, 0, 1, 244, 13}";
}
);
layerId = "523CE715-D489-4446-A5DE-4E6CA80777EE";
width = 461;
}
);
unicode = 00EE;
userData = {
com.typemytype.robofont.mark = (
0.6,
0.986,
1,
1
);
};
},
{
color = 6;
glyphname = idieresis;
lastChange = "2018-05-20 14:18:03 +0000";
layers = (
{
background = {
anchors = (
{
name = top;
position = "{256, 438}";
}
);
paths = (
{
closed = 1;
nodes = (
"44 393 LINE",
"235 388 LINE",
"212 407 LINE",
"193 287 OFFCURVE",
"183 167 OFFCURVE",
"181 52 CURVE",
"269 52 LINE",
"269 187 OFFCURVE",
"283 322 OFFCURVE",
"296 466 CURVE",
"45 453 LINE"
);
},
{
closed = 1;
nodes = (
"44 -13 LINE",
"424 -4 LINE",
"426 52 LINE",
"226 63 LINE",
"39 43 LINE"
);
},
{
closed = 1;
nodes = (
"83 569 OFFCURVE",
"109 542 OFFCURVE",
"143 542 CURVE SMOOTH",
"177 542 OFFCURVE",
"204 569 OFFCURVE",
"204 603 CURVE SMOOTH",
"204 636 OFFCURVE",
"177 663 OFFCURVE",
"143 663 CURVE SMOOTH",
"109 663 OFFCURVE",
"83 636 OFFCURVE",
"83 603 CURVE SMOOTH"
);
},
{
closed = 1;
nodes = (
"309 574 OFFCURVE",
"336 547 OFFCURVE",
"370 547 CURVE SMOOTH",
"404 547 OFFCURVE",
"431 574 OFFCURVE",
"431 608 CURVE SMOOTH",
"431 641 OFFCURVE",
"404 668 OFFCURVE",
"370 668 CURVE SMOOTH",
"336 668 OFFCURVE",
"309 641 OFFCURVE",
"309 608 CURVE SMOOTH"
);
}
);
};
components = (
{
name = idotless;
},
{
name = dieresiscomb;
transform = "{1, 0, 0, 1, 256, 0}";
}
);
layerId = "523CE715-D489-4446-A5DE-4E6CA80777EE";
width = 461;
}
);
unicode = 00EF;
userData = {
com.typemytype.robofont.mark = (
0.6,
0.986,
1,
1
);
};
},
{
color = 6;
glyphname = igrave;
lastChange = "2018-05-20 14:18:03 +0000";
layers = (
{
background = {
anchors = (
{
name = top;
position = "{256, 438}";
}
);
paths = (
{
closed = 1;
nodes = (
"44 393 LINE",
"235 388 LINE",
"212 407 LINE",
"193 287 OFFCURVE",
"183 167 OFFCURVE",
"181 52 CURVE",
"269 52 LINE",
"269 187 OFFCURVE",
"283 322 OFFCURVE",
"296 466 CURVE",
"45 453 LINE"
);
},
{
closed = 1;
nodes = (
"44 -13 LINE",
"424 -4 LINE",
"426 52 LINE",
"226 63 LINE",
"39 43 LINE"
);
},
{
closed = 1;
nodes = (
"94 651 LINE",
"281 503 LINE",
"331 538 LINE",
"182 718 LINE"
);
}
);
};
components = (
{
name = idotless;
},
{
name = gravecomb;
transform = "{1, 0, 0, 1, 256, 0}";
}
);
layerId = "523CE715-D489-4446-A5DE-4E6CA80777EE";
width = 461;
}
);
unicode = 00EC;
userData = {
com.typemytype.robofont.mark = (
0.6,
0.986,
1,
1
);
};
},
{
color = 6;
glyphname = ij;
lastChange = "2018-05-20 14:18:03 +0000";
layers = (
{
background = {
paths = (
{
closed = 1;
nodes = (
"44 393 LINE",
"235 388 LINE",
"212 407 LINE",
"193 287 OFFCURVE",
"183 167 OFFCURVE",
"181 52 CURVE",
"269 52 LINE",
"269 187 OFFCURVE",
"283 322 OFFCURVE",
"296 466 CURVE",
"45 453 LINE"
);
},
{
closed = 1;
nodes = (
"44 -13 LINE",
"424 -4 LINE",
"426 52 LINE",
"226 63 LINE",
"39 43 LINE"
);
},
{
closed = 1;
nodes = (
"181 574 OFFCURVE",
"209 543 OFFCURVE",
"252 540 CURVE SMOOTH",
"311 536 OFFCURVE",
"332 574 OFFCURVE",
"332 616 CURVE SMOOTH",
"332 658 OFFCURVE",
"303 694 OFFCURVE",
"256 692 CURVE SMOOTH",
"215 689 OFFCURVE",
"181 658 OFFCURVE",
"181 616 CURVE SMOOTH"
);
},
{
closed = 1;
nodes = (
"511 356 LINE",
"756 358 LINE",
"709 418 LINE",
"725 289 OFFCURVE",
"736 116 OFFCURVE",
"724 -4 CURVE SMOOTH",
"713 -114 OFFCURVE",
"664 -212 OFFCURVE",
"567 -212 CURVE SMOOTH",
"488 -212 OFFCURVE",
"465 -156 OFFCURVE",
"446 -85 CURVE",
"381 -100 LINE",
"399 -209 OFFCURVE",
"447 -286 OFFCURVE",
"563 -286 CURVE SMOOTH",
"694 -286 OFFCURVE",
"786 -182 OFFCURVE",
"804 -4 CURVE SMOOTH",
"816 114 OFFCURVE",
"805 286 OFFCURVE",
"796 438 CURVE",
"508 419 LINE"
);
},
{
closed = 1;
nodes = (
"804 645 OFFCURVE",
"770 677 OFFCURVE",
"729 679 CURVE SMOOTH",
"682 682 OFFCURVE",
"650 643 OFFCURVE",
"650 599 CURVE SMOOTH",
"650 558 OFFCURVE",
"679 528 OFFCURVE",
"733 528 CURVE SMOOTH",
"776 528 OFFCURVE",
"804 562 OFFCURVE",
"804 604 CURVE SMOOTH"
);
}
);
};
components = (
{
name = i;
},
{
name = j;
transform = "{1, 0, 0, 1, 461, 0}";
}
);
layerId = "523CE715-D489-4446-A5DE-4E6CA80777EE";
width = 924;
}
);
unicode = 0133;
userData = {
com.typemytype.robofont.mark = (
0.6,
0.986,
1,
1
);
};
},
{
color = 6;
glyphname = imacron;
lastChange = "2018-05-20 14:18:03 +0000";
layers = (
{
background = {
anchors = (
{
name = top;
position = "{256, 438}";
}
);
paths = (
{
closed = 1;
nodes = (
"44 393 LINE",
"235 388 LINE",
"212 407 LINE",
"193 287 OFFCURVE",
"183 167 OFFCURVE",
"181 52 CURVE",
"269 52 LINE",
"269 187 OFFCURVE",
"283 322 OFFCURVE",
"296 466 CURVE",
"45 453 LINE"
);
},
{
closed = 1;
nodes = (
"44 -13 LINE",
"424 -4 LINE",
"426 52 LINE",
"226 63 LINE",
"39 43 LINE"
);
},
{
closed = 1;
nodes = (
"418 556 LINE",
"422 639 LINE",
"86 631 LINE",
"89 559 LINE"
);
}
);
};
components = (
{
name = idotless;
},
{
name = macroncomb;
transform = "{1, 0, 0, 1, 256, 0}";
}
);
layerId = "523CE715-D489-4446-A5DE-4E6CA80777EE";
width = 461;
}
);
unicode = 012B;
userData = {
com.typemytype.robofont.mark = (
0.6,
0.986,
1,
1
);
};
},
{
glyphname = j;
lastChange = "2018-05-20 14:18:03 +0000";
layers = (
{
background = {
paths = (
{
closed = 1;
nodes = (
"49 356 LINE",
"294 358 LINE",
"248 418 LINE",
"264 289 OFFCURVE",
"275 116 OFFCURVE",
"263 -4 CURVE SMOOTH",
"252 -114 OFFCURVE",
"203 -212 OFFCURVE",
"106 -212 CURVE SMOOTH",
"27 -212 OFFCURVE",
"4 -156 OFFCURVE",
"-16 -85 CURVE",
"-80 -100 LINE",
"-62 -209 OFFCURVE",
"-14 -286 OFFCURVE",
"101 -286 CURVE SMOOTH",
"233 -286 OFFCURVE",
"325 -182 OFFCURVE",
"343 -4 CURVE SMOOTH",
"354 114 OFFCURVE",
"344 286 OFFCURVE",
"335 438 CURVE",
"47 419 LINE"
);
},
{
closed = 1;
nodes = (
"343 645 OFFCURVE",
"309 677 OFFCURVE",
"268 679 CURVE SMOOTH",
"221 682 OFFCURVE",
"189 643 OFFCURVE",
"189 599 CURVE SMOOTH",
"189 558 OFFCURVE",
"218 528 OFFCURVE",
"272 528 CURVE SMOOTH",
"315 528 OFFCURVE",
"343 562 OFFCURVE",
"343 604 CURVE SMOOTH"
);
}
);
};
layerId = "523CE715-D489-4446-A5DE-4E6CA80777EE";
paths = (
{
closed = 1;
nodes = (
"49 356 LINE",
"294 358 LINE",
"248 418 LINE",
"264 289 OFFCURVE",
"275 116 OFFCURVE",
"263 -4 CURVE SMOOTH",
"252 -114 OFFCURVE",
"203 -212 OFFCURVE",
"106 -212 CURVE SMOOTH",
"27 -212 OFFCURVE",
"4 -156 OFFCURVE",
"-16 -85 CURVE",
"-80 -100 LINE",
"-62 -209 OFFCURVE",
"-14 -286 OFFCURVE",
"101 -286 CURVE SMOOTH",
"233 -286 OFFCURVE",
"325 -182 OFFCURVE",
"343 -4 CURVE SMOOTH",
"354 114 OFFCURVE",
"344 286 OFFCURVE",
"335 438 CURVE",
"47 419 LINE"
);
},
{
closed = 1;
nodes = (
"343 645 OFFCURVE",
"309 677 OFFCURVE",
"268 679 CURVE SMOOTH",
"221 682 OFFCURVE",
"189 643 OFFCURVE",
"189 599 CURVE SMOOTH",
"189 558 OFFCURVE",
"218 528 OFFCURVE",
"272 528 CURVE SMOOTH",
"315 528 OFFCURVE",
"343 562 OFFCURVE",
"343 604 CURVE SMOOTH"
);
}
);
width = 463;
}
);
unicode = 006A;
userData = {
com.typemytype.robofont.mark = (
0.656,
1,
0.6,
1
);
};
},
{
glyphname = jdotless;
lastChange = "2018-05-20 14:18:03 +0000";
layers = (
{
anchors = (
{
name = top;
position = "{284, 438}";
}
);
background = {
anchors = (
{
name = top;
position = "{284, 438}";
}
);
paths = (
{
closed = 1;
nodes = (
"49 356 LINE",
"294 358 LINE",
"248 418 LINE",
"264 289 OFFCURVE",
"275 116 OFFCURVE",
"263 -4 CURVE SMOOTH",
"252 -114 OFFCURVE",
"203 -212 OFFCURVE",
"106 -212 CURVE SMOOTH",
"27 -212 OFFCURVE",
"4 -156 OFFCURVE",
"-16 -85 CURVE",
"-80 -100 LINE",
"-62 -209 OFFCURVE",
"-14 -286 OFFCURVE",
"101 -286 CURVE SMOOTH",
"233 -286 OFFCURVE",
"325 -182 OFFCURVE",
"343 -4 CURVE SMOOTH",
"354 114 OFFCURVE",
"344 286 OFFCURVE",
"335 438 CURVE",
"47 419 LINE"
);
}
);
};
layerId = "523CE715-D489-4446-A5DE-4E6CA80777EE";
paths = (
{
closed = 1;
nodes = (
"49 356 LINE",
"294 358 LINE",
"248 418 LINE",
"264 289 OFFCURVE",
"275 116 OFFCURVE",
"263 -4 CURVE SMOOTH",
"252 -114 OFFCURVE",
"203 -212 OFFCURVE",
"106 -212 CURVE SMOOTH",
"27 -212 OFFCURVE",
"4 -156 OFFCURVE",
"-16 -85 CURVE",
"-80 -100 LINE",
"-62 -209 OFFCURVE",
"-14 -286 OFFCURVE",
"101 -286 CURVE SMOOTH",
"233 -286 OFFCURVE",
"325 -182 OFFCURVE",
"343 -4 CURVE SMOOTH",
"354 114 OFFCURVE",
"344 286 OFFCURVE",
"335 438 CURVE",
"47 419 LINE"
);
}
);
width = 463;
}
);
unicode = 0237;
userData = {
com.typemytype.robofont.mark = (
0.656,
1,
0.6,
1
);
};
},
{
color = 6;
glyphname = jcircumflex;
lastChange = "2018-05-20 14:18:03 +0000";
layers = (
{
background = {
anchors = (
{
name = top;
position = "{284, 438}";
}
);
paths = (
{
closed = 1;
nodes = (
"49 356 LINE",
"294 358 LINE",
"248 418 LINE",
"264 289 OFFCURVE",
"275 116 OFFCURVE",
"263 -4 CURVE SMOOTH",
"252 -114 OFFCURVE",
"203 -212 OFFCURVE",
"106 -212 CURVE SMOOTH",
"27 -212 OFFCURVE",
"4 -156 OFFCURVE",
"-16 -85 CURVE",
"-80 -100 LINE",
"-62 -209 OFFCURVE",
"-14 -286 OFFCURVE",
"101 -286 CURVE SMOOTH",
"233 -286 OFFCURVE",
"325 -182 OFFCURVE",
"343 -4 CURVE SMOOTH",
"354 114 OFFCURVE",
"344 286 OFFCURVE",
"335 438 CURVE",
"47 419 LINE"
);
},
{
closed = 1;
nodes = (
"111 518 LINE",
"161 491 LINE",
"274 642 LINE",
"239 642 LINE",
"369 498 LINE",
"414 526 LINE",
"299 704 LINE",
"212 702 LINE"
);
}
);
};
components = (
{
name = jdotless;
},
{
name = circumflexcomb;
transform = "{1, 0, 0, 1, 265, 0}";
}
);
layerId = "523CE715-D489-4446-A5DE-4E6CA80777EE";
width = 463;
}
);
unicode = 0135;
userData = {
com.typemytype.robofont.mark = (
0.6,
0.986,
1,
1
);
};
},
{
glyphname = k;
lastChange = "2018-05-20 14:18:03 +0000";
layers = (
{
anchors = (
{
name = bottom;
position = "{369, 0}";
}
);
background = {
anchors = (
{
name = bottom;
position = "{369, 0}";
}
);
paths = (
{
closed = 1;
nodes = (
"1 599 LINE",
"135 597 LINE",
"114 636 LINE",
"131 443 OFFCURVE",
"138 250 OFFCURVE",
"140 56 CURVE",
"151 68 LINE",
"51 61 LINE",
"51 -1 LINE",
"318 0 LINE",
"318 65 LINE",
"193 70 LINE",
"223 48 LINE",
"218 255 OFFCURVE",
"210 462 OFFCURVE",
"194 669 CURVE",
"-2 658 LINE"
);
},
{
closed = 1;
nodes = (
"187 136 LINE",
"582 428 LINE",
"493 386 LINE",
"644 393 LINE",
"643 454 LINE",
"322 459 LINE",
"320 399 LINE",
"462 387 LINE",
"464 425 LINE",
"171 201 LINE"
);
},
{
closed = 1;
nodes = (
"380 187 OFFCURVE",
"446 109 OFFCURVE",
"507 31 CURVE",
"516 45 LINE",
"427 41 LINE",
"427 -19 LINE",
"698 -23 LINE",
"699 41 LINE",
"569 50 LINE",
"613 28 LINE",
"535 125 OFFCURVE",
"444 222 OFFCURVE",
"347 309 CURVE",
"296 268 LINE"
);
}
);
};
layerId = "523CE715-D489-4446-A5DE-4E6CA80777EE";
paths = (
{
closed = 1;
nodes = (
"1 599 LINE",
"135 597 LINE",
"114 636 LINE",
"131 443 OFFCURVE",
"138 250 OFFCURVE",
"140 56 CURVE",
"151 68 LINE",
"51 61 LINE",
"51 -1 LINE",
"318 0 LINE",
"318 65 LINE",
"193 70 LINE",
"223 48 LINE",
"218 255 OFFCURVE",
"210 462 OFFCURVE",
"194 669 CURVE",
"-2 658 LINE"
);
},
{
closed = 1;
nodes = (
"187 136 LINE",
"582 428 LINE",
"493 386 LINE",
"644 393 LINE",
"643 454 LINE",
"322 459 LINE",
"320 399 LINE",
"462 387 LINE",
"464 425 LINE",
"171 201 LINE"
);
},
{
closed = 1;
nodes = (
"380 187 OFFCURVE",
"446 109 OFFCURVE",
"507 31 CURVE",
"516 45 LINE",
"427 41 LINE",
"427 -19 LINE",
"698 -23 LINE",
"699 41 LINE",
"569 50 LINE",
"613 28 LINE",
"535 125 OFFCURVE",
"444 222 OFFCURVE",
"347 309 CURVE",
"296 268 LINE"
);
}
);
width = 738;
}
);
unicode = 006B;
userData = {
com.typemytype.robofont.mark = (
0.656,
1,
0.6,
1
);
};
},
{
color = 6;
glyphname = kcommaaccent;
lastChange = "2018-05-20 14:18:03 +0000";
layers = (
{
background = {
anchors = (
{
name = bottom;
position = "{369, 0}";
}
);
paths = (
{
closed = 1;
nodes = (
"1 599 LINE",
"135 597 LINE",
"114 636 LINE",
"131 443 OFFCURVE",
"138 250 OFFCURVE",
"140 56 CURVE",
"151 68 LINE",
"51 61 LINE",
"51 -1 LINE",
"318 0 LINE",
"318 65 LINE",
"193 70 LINE",
"223 48 LINE",
"218 255 OFFCURVE",
"210 462 OFFCURVE",
"194 669 CURVE",
"-2 658 LINE"
);
},
{
closed = 1;
nodes = (
"187 136 LINE",
"582 428 LINE",
"493 386 LINE",
"644 393 LINE",
"643 454 LINE",
"322 459 LINE",
"320 399 LINE",
"462 387 LINE",
"464 425 LINE",
"171 201 LINE"
);
},
{
closed = 1;
nodes = (
"380 187 OFFCURVE",
"446 109 OFFCURVE",
"507 31 CURVE",
"516 45 LINE",
"427 41 LINE",
"427 -19 LINE",
"698 -23 LINE",
"699 41 LINE",
"569 50 LINE",
"613 28 LINE",
"535 125 OFFCURVE",
"444 222 OFFCURVE",
"347 309 CURVE",
"296 268 LINE"
);
},
{
closed = 1;
nodes = (
"294 -187 OFFCURVE",
"322 -229 OFFCURVE",
"398 -210 CURVE",
"366 -166 LINE",
"383 -236 OFFCURVE",
"349 -274 OFFCURVE",
"308 -306 CURVE",
"342 -346 LINE",
"383 -321 OFFCURVE",
"414 -288 OFFCURVE",
"431 -248 CURVE SMOOTH",
"442 -223 OFFCURVE",
"446 -193 OFFCURVE",
"446 -168 CURVE SMOOTH",
"446 -100 OFFCURVE",
"408 -73 OFFCURVE",
"369 -73 CURVE SMOOTH",
"326 -73 OFFCURVE",
"294 -106 OFFCURVE",
"294 -148 CURVE SMOOTH"
);
}
);
};
components = (
{
name = k;
},
{
name = commaaccentcomb;
transform = "{1, 0, 0, 1, 369, 0}";
}
);
layerId = "523CE715-D489-4446-A5DE-4E6CA80777EE";
width = 738;
}
);
unicode = 0137;
userData = {
com.typemytype.robofont.mark = (
0.6,
0.986,
1,
1
);
};
},
{
glyphname = l;
lastChange = "2018-05-20 14:18:03 +0000";
layers = (
{
anchors = (
{
name = bottom;
position = "{206, 0}";
}
);
background = {
anchors = (
{
name = bottom;
position = "{206, 0}";
}
);
paths = (
{
closed = 1;
nodes = (
"378 -3 LINE",
"377 65 LINE",
"56 54 LINE",
"60 -22 LINE"
);
},
{
closed = 1;
nodes = (
"225 591 LINE",
"201 623 LINE",
"203 424 OFFCURVE",
"187 225 OFFCURVE",
"177 26 CURVE",
"258 24 LINE",
"269 234 OFFCURVE",
"279 445 OFFCURVE",
"278 658 CURVE",
"52 668 LINE",
"48 595 LINE"
);
}
);
};
layerId = "523CE715-D489-4446-A5DE-4E6CA80777EE";
paths = (
{
closed = 1;
nodes = (
"378 -3 LINE",
"377 65 LINE",
"56 54 LINE",
"60 -22 LINE"
);
},
{
closed = 1;
nodes = (
"225 591 LINE",
"201 623 LINE",
"203 424 OFFCURVE",
"187 225 OFFCURVE",
"177 26 CURVE",
"258 24 LINE",
"269 234 OFFCURVE",
"279 445 OFFCURVE",
"278 658 CURVE",
"52 668 LINE",
"48 595 LINE"
);
}
);
width = 430;
}
);
unicode = 006C;
userData = {
com.typemytype.robofont.mark = (
0.656,
1,
0.6,
1
);
};
},
{
color = 6;
glyphname = lacute;
lastChange = "2018-05-20 14:18:03 +0000";
layers = (
{
background = {
anchors = (
{
name = bottom;
position = "{206, 0}";
}
);
paths = (
{
closed = 1;
nodes = (
"378 -3 LINE",
"377 65 LINE",
"56 54 LINE",
"60 -22 LINE"
);
},
{
closed = 1;
nodes = (
"225 591 LINE",
"201 623 LINE",
"203 424 OFFCURVE",
"187 225 OFFCURVE",
"177 26 CURVE",
"258 24 LINE",
"269 234 OFFCURVE",
"279 445 OFFCURVE",
"278 658 CURVE",
"52 668 LINE",
"48 595 LINE"
);
},
{
closed = 1;
nodes = (
"179 689 LINE",
"367 838 LINE",
"279 904 LINE",
"129 724 LINE"
);
}
);
};
components = (
{
name = l;
},
{
name = acutecomb;
transform = "{1, 0, 0, 1, 217, 186}";
}
);
layerId = "523CE715-D489-4446-A5DE-4E6CA80777EE";
width = 430;
}
);
unicode = 013A;
userData = {
com.typemytype.robofont.mark = (
0.6,
0.986,
1,
1
);
};
},
{
color = 6;
glyphname = lcommaaccent;
lastChange = "2018-05-20 14:18:03 +0000";
layers = (
{
background = {
anchors = (
{
name = bottom;
position = "{206, 0}";
}
);
paths = (
{
closed = 1;
nodes = (
"378 -3 LINE",
"377 65 LINE",
"56 54 LINE",
"60 -22 LINE"
);
},
{
closed = 1;
nodes = (
"225 591 LINE",
"201 623 LINE",
"203 424 OFFCURVE",
"187 225 OFFCURVE",
"177 26 CURVE",
"258 24 LINE",
"269 234 OFFCURVE",
"279 445 OFFCURVE",
"278 658 CURVE",
"52 668 LINE",
"48 595 LINE"
);
},
{
closed = 1;
nodes = (
"132 -187 OFFCURVE",
"159 -229 OFFCURVE",
"236 -210 CURVE",
"203 -166 LINE",
"221 -236 OFFCURVE",
"187 -274 OFFCURVE",
"146 -306 CURVE",
"179 -346 LINE",
"221 -321 OFFCURVE",
"252 -288 OFFCURVE",
"269 -248 CURVE SMOOTH",
"279 -223 OFFCURVE",
"284 -193 OFFCURVE",
"284 -168 CURVE SMOOTH",
"284 -100 OFFCURVE",
"246 -73 OFFCURVE",
"206 -73 CURVE SMOOTH",
"163 -73 OFFCURVE",
"132 -106 OFFCURVE",
"132 -148 CURVE SMOOTH"
);
}
);
};
components = (
{
name = l;
},
{
name = commaaccentcomb;
transform = "{1, 0, 0, 1, 206, 0}";
}
);
layerId = "523CE715-D489-4446-A5DE-4E6CA80777EE";
width = 430;
}
);
unicode = 013C;
userData = {
com.typemytype.robofont.mark = (
0.6,
0.986,
1,
1
);
};
},
